<?xml version="1.0" encoding="utf-8"?>
<!-- Generator: Adobe Illustrator 21.0.0, SVG Export Plug-In . SVG Version: 6.00 Build 0)  -->
<svg version="1.1" id="Capa_1" xmlns="http://www.w3.org/2000/svg" xmlns:xlink="http://www.w3.org/1999/xlink" x="0px" y="0px"
	 viewBox="0 0 351.1 351.1" style="enable-background:new 0 0 351.1 351.1;" xml:space="preserve">
<g>
	<g id="Clips_2_">
		<g>
			<path d="M324.6,42.7c-35.4-35.4-92.9-35.4-128.3,0L19.9,219.1c-26.6,26.6-26.6,69.6,0,96.2c21.9,21.9,54.9,25.4,80.8,11.2
				c2.7-0.1,5.4-1.2,7.4-3.2l176.4-176.4c17.7-17.7,17.7-46.4,0-64.1s-46.4-17.7-64.1,0L76.1,227.1c-4.4,4.4-4.4,11.6,0,16
				c4.4,4.4,11.6,4.4,16,0L236.4,98.8c8.9-8.9,23.2-8.9,32.1,0c8.9,8.9,8.9,23.2,0,32.1L100.1,299.3C82.4,317,53.7,317,36,299.3
				s-17.7-46.4,0-64.1L212.3,58.7c26.6-26.6,69.6-26.6,96.2,0c26.6,26.6,26.6,69.6,0,96.2L148.2,315.3c-4.4,4.4-4.4,11.6,0,16
				c4.4,4.4,11.6,4.4,16,0L324.6,171C360,135.6,360,78.1,324.6,42.7z"/>
		</g>
	</g>
</g>
</svg>
