<?xml version="1.0" encoding="utf-8"?>
<!-- Generator: Adobe Illustrator 17.1.0, SVG Export Plug-In . SVG Version: 6.00 Build 0)  -->
<!DOCTYPE svg PUBLIC "-//W3C//DTD SVG 1.1//EN" "http://www.w3.org/Graphics/SVG/1.1/DTD/svg11.dtd">
<svg version="1.1" id="Capa_1" xmlns="http://www.w3.org/2000/svg" xmlns:xlink="http://www.w3.org/1999/xlink" x="0px" y="0px"
	 viewBox="680 0 558.7 560" enable-background="new 680 0 558.7 560" xml:space="preserve">
<linearGradient id="SVGID_1_" gradientUnits="userSpaceOnUse" x1="680" y1="279.5088" x2="1238.6825" y2="279.5088">
	<stop  offset="0" style="stop-color:#1FC9FD"/>
	<stop  offset="1" style="stop-color:#FB0061"/>
</linearGradient>
<path fill="url(#SVGID_1_)" d="M1214.5,490.2L1214.5,490.2c-12.8-5.9-24.6-19.6-35.4-39.3c87.4-111,77.6-269.2-22.6-369.4
	C1104.4,29.5,1033.7,0,960,0c-74.7,0-145.4,29.5-197.5,82.5C709.5,134.6,680,205.3,680,280s29.5,144.4,81.5,197.5
	C813.6,530.5,884.4,559,959,559c44.2,0,87.4-10.8,126.7-30.5c29.5,19.6,63.9,29.5,97.3,29.5c6.9,0,13.8-1,20.6-2
	c14.7-2,27.5-13.8,29.5-29.5C1236.1,511.9,1228.2,497.1,1214.5,490.2z M1130.9,431.3c-6.9,7.9-7.9,17.7-3.9,26.5
	c7.9,17.7,16.7,33.4,26.5,45.2c-14.7-3.9-32.4-10.8-49.1-24.6l0,0c-7.9-5.9-18.7-6.9-28.5-2c-35.4,20.6-74.7,31.4-115.9,31.4
	c-60.9,0-118.9-23.6-162.1-66.8c-43.2-43.2-66.8-100.2-66.8-162.1s23.6-117.9,66.8-161.1C841.1,74.7,898.1,51.1,960,51.1
	s117.9,23.6,161.1,66.8C1206.6,203.4,1210.5,340.9,1130.9,431.3z"/>
<g>
	<linearGradient id="SVGID_2_" gradientUnits="userSpaceOnUse" x1="783.1579" y1="280" x2="832.2807" y2="280">
		<stop  offset="0" style="stop-color:#1FC9FD"/>
		<stop  offset="1" style="stop-color:#FB0061"/>
	</linearGradient>
	<circle fill="url(#SVGID_2_)" cx="807.7" cy="280" r="24.6"/>
	<linearGradient id="SVGID_3_" gradientUnits="userSpaceOnUse" x1="935.4386" y1="280" x2="984.5614" y2="280">
		<stop  offset="0" style="stop-color:#1FC9FD"/>
		<stop  offset="1" style="stop-color:#FB0061"/>
	</linearGradient>
	<circle fill="url(#SVGID_3_)" cx="960" cy="280" r="24.6"/>
	<linearGradient id="SVGID_4_" gradientUnits="userSpaceOnUse" x1="1087.7192" y1="280" x2="1136.842" y2="280">
		<stop  offset="0" style="stop-color:#1FC9FD"/>
		<stop  offset="1" style="stop-color:#FB0061"/>
	</linearGradient>
	<circle fill="url(#SVGID_4_)" cx="1112.3" cy="280" r="24.6"/>
</g>
</svg>
