<?xml version="1.0" encoding="utf-8"?>
<!-- Generator: Adobe Illustrator 21.0.0, SVG Export Plug-In . SVG Version: 6.00 Build 0)  -->
<svg version="1.1" id="Capa_1" xmlns="http://www.w3.org/2000/svg" xmlns:xlink="http://www.w3.org/1999/xlink" x="0px" y="0px"
	 viewBox="0 0 57 57" style="enable-background:new 0 0 57 57;" xml:space="preserve">
<style type="text/css">
	.st0{fill:#FFFFFF;}
</style>
<g>
	<g>
		<g>
			<path class="st0" d="M45.2,26.8c-4.6,0-8.3,3.7-8.3,8.3s3.7,8.3,8.3,8.3s8.3-3.7,8.3-8.3S49.8,26.8,45.2,26.8z"/>
		</g>
	</g>
	<g>
		<g>
			<path class="st0" d="M53.4,43.5c-2.1,2.1-5,3.3-8.2,3.3s-6-1.3-8.2-3.3c-2.2,2.1-3.5,5.1-3.5,8.3v3.5c0,0.9,0.7,1.7,1.7,1.7h20.2
				c0.9,0,1.7-0.7,1.7-1.7v-3.5C57,48.6,55.5,45.7,53.4,43.5z"/>
		</g>
	</g>
	<g>
		<g>
			<path class="st0" d="M11.8,0C7.2,0,3.5,3.9,3.5,8.5s3.7,8.3,8.3,8.3s8.3-3.7,8.3-8.3S16.4,0,11.8,0z"/>
		</g>
	</g>
	<g>
		<g>
			<path class="st0" d="M20,16.8c-2.1,2.1-5,3.3-8.2,3.3s-6-1.3-8.2-3.3C1.5,18.9,0,21.9,0,25.2v3.3c0,0.9,0.7,1.7,1.7,1.7h20.2
				c0.9,0,1.7-0.7,1.7-1.7v-3.3C23.5,21.9,22.1,18.9,20,16.8z"/>
		</g>
	</g>
	<g>
		<g>
			<path class="st0" d="M28.5,6.8c-1.7,0-3.4,0.3-5.1,0.7c0,0.3,0.1,0.7,0.1,1c0,0.8-0.1,1.7-0.3,2.4c1.7-0.5,3.5-0.8,5.3-0.8
				c8.4,0,15.5,5.7,17.7,13.5c1.3,0.1,2.5,0.4,3.6,0.9C47.9,14.4,39.1,6.8,28.5,6.8z"/>
		</g>
	</g>
	<g>
		<g>
			<path class="st0" d="M28.5,46.9c-8.4,0-15.5-5.7-17.7-13.4H7.4c2.3,9.6,10.9,16.7,21.1,16.7c0.6,0,1.2,0,1.8-0.1
				c0.1-1.2,0.4-2.4,0.8-3.5C30.3,46.8,29.4,46.9,28.5,46.9z"/>
		</g>
	</g>
</g>
</svg>
