<?xml version="1.0" encoding="utf-8"?>
<!-- Generator: Adobe Illustrator 17.1.0, SVG Export Plug-In . SVG Version: 6.00 Build 0)  -->
<!DOCTYPE svg PUBLIC "-//W3C//DTD SVG 1.1//EN" "http://www.w3.org/Graphics/SVG/1.1/DTD/svg11.dtd">
<svg version="1.1" id="Capa_1" xmlns="http://www.w3.org/2000/svg" xmlns:xlink="http://www.w3.org/1999/xlink" x="0px" y="0px"
	 viewBox="330 88 852 820" enable-background="new 330 88 852 820" xml:space="preserve">
<g>
	
		<linearGradient id="SVGID_1_" gradientUnits="userSpaceOnUse" x1="-4.998571e-002" y1="533.1501" x2="611.95" y2="533.1501" gradientTransform="matrix(1.2626 0 0 -1.2626 363.6364 1262.6263)">
		<stop  offset="0" style="stop-color:#1FC9FD"/>
		<stop  offset="1" style="stop-color:#FB0061"/>
	</linearGradient>
	<path fill="url(#SVGID_1_)" d="M863.8,589.5c0,62.4,50.1,112.5,112.5,112.5s112.5-50.1,112.5-112.5S1038.7,477,976.3,477
		C914,476.8,863.8,527.1,863.8,589.5z"/>
	
		<linearGradient id="SVGID_2_" gradientUnits="userSpaceOnUse" x1="-4.998571e-002" y1="370.45" x2="611.95" y2="370.45" gradientTransform="matrix(1.2626 0 0 -1.2626 363.6364 1262.6263)">
		<stop  offset="0" style="stop-color:#1FC9FD"/>
		<stop  offset="1" style="stop-color:#FB0061"/>
	</linearGradient>
	<path fill="url(#SVGID_2_)" d="M1087.4,703.3c-28.4,28.4-67.8,44.7-111.1,44.7c-43.4,0-81.3-17.7-111.1-44.7
		c-29.8,28.4-47.5,69.2-47.5,112.5v47.5c0,12.2,9.5,23.1,23.1,23.1h273.9c9.6,0,18.4-5.9,21.7-15.2v-71.2
		C1131.1,762.8,1112.4,729.5,1087.4,703.3z"/>
	
		<linearGradient id="SVGID_3_" gradientUnits="userSpaceOnUse" x1="-4.998571e-002" y1="819.85" x2="611.95" y2="819.85" gradientTransform="matrix(1.2626 0 0 -1.2626 363.6364 1262.6263)">
		<stop  offset="0" style="stop-color:#1FC9FD"/>
		<stop  offset="1" style="stop-color:#FB0061"/>
	</linearGradient>
	<path fill="url(#SVGID_3_)" d="M523.5,113.6c-62.4,0-112.5,52.9-112.5,115.3s50.1,112.5,112.5,112.5S636,291.2,636,228.9
		S585.9,113.6,523.5,113.6z"/>
	
		<linearGradient id="SVGID_4_" gradientUnits="userSpaceOnUse" x1="-4.998571e-002" y1="657.7" x2="611.95" y2="657.7" gradientTransform="matrix(1.2626 0 0 -1.2626 363.6364 1262.6263)">
		<stop  offset="0" style="stop-color:#1FC9FD"/>
		<stop  offset="1" style="stop-color:#FB0061"/>
	</linearGradient>
	<path fill="url(#SVGID_4_)" d="M386.7,523h273.9c12.2,0,23.1-9.5,23.1-23.1v-44.7c-1.4-44.7-20.3-85.4-48.9-113.9
		C606.4,369.8,567,386,523.7,386c-43.4,0-81.3-17.7-111.1-44.7c-28.7,28.4-49,69.1-49,113.9v44.7C363.6,512.2,373,523,386.7,523z"/>
	
		<linearGradient id="SVGID_5_" gradientUnits="userSpaceOnUse" x1="-4.998571e-002" y1="741.9999" x2="611.95" y2="741.9999" gradientTransform="matrix(1.2626 0 0 -1.2626 363.6364 1262.6263)">
		<stop  offset="0" style="stop-color:#1FC9FD"/>
		<stop  offset="1" style="stop-color:#FB0061"/>
	</linearGradient>
	<path fill="url(#SVGID_5_)" d="M989.8,433.5c17.7,1.4,33.8,5.4,48.9,12.2c-25.8-137-145.1-240-288.8-240c-23.1,0-46.1,4-69.2,9.5
		c0,4,1.4,9.5,1.4,13.5c0,10.9-1.4,23.1-4,32.6c23.1-6.8,47.5-10.9,71.8-10.9C863.8,250.4,960,327.7,989.8,433.5z"/>
	
		<linearGradient id="SVGID_6_" gradientUnits="userSpaceOnUse" x1="-4.998571e-002" y1="460.7" x2="611.95" y2="460.7" gradientTransform="matrix(1.2626 0 0 -1.2626 363.6364 1262.6263)">
		<stop  offset="0" style="stop-color:#1FC9FD"/>
		<stop  offset="1" style="stop-color:#FB0061"/>
	</linearGradient>
	<path fill="url(#SVGID_6_)" d="M510,567.7H464c31.1,130.2,147.7,226.4,286,226.4c8.1,0,16.3,0,24.4-1.4
		c1.4-16.3,5.4-32.6,10.9-47.5c-10.9,2.7-23.1,4-35.2,4C636,749.4,539.8,672.2,510,567.7z"/>
</g>
</svg>
