<?xml version="1.0" encoding="utf-8"?>
<!-- Generator: Adobe Illustrator 17.1.0, SVG Export Plug-In . SVG Version: 6.00 Build 0)  -->
<!DOCTYPE svg PUBLIC "-//W3C//DTD SVG 1.1//EN" "http://www.w3.org/Graphics/SVG/1.1/DTD/svg11.dtd">
<svg version="1.1" id="Layer_1" xmlns="http://www.w3.org/2000/svg" xmlns:xlink="http://www.w3.org/1999/xlink" x="0px" y="0px"
	 viewBox="0 0 2000 2000" enable-background="new 0 0 2000 2000" xml:space="preserve">
<g>
	
		<rect x="1952.7" y="802.3" transform="matrix(-0.2482 -0.9687 0.9687 -0.2482 1651.2898 2918.9917)" fill="#5793CE" width="11.3" height="32.9"/>
	
		<rect x="1936.5" y="818.2" transform="matrix(-0.2482 -0.9687 0.9687 -0.2482 1615.6638 2923.1731)" fill="#5793CE" width="11.3" height="32.9"/>
	
		<rect x="1920.2" y="834" transform="matrix(-0.2482 -0.9687 0.9687 -0.2482 1579.9349 2927.0938)" fill="#5793CE" width="11.3" height="32.9"/>
	
		<rect x="1904.1" y="850" transform="matrix(-0.2483 -0.9687 0.9687 -0.2483 1544.5813 2931.5398)" fill="#5793CE" width="11.3" height="32.9"/>
</g>
<g>
	<path fill="#5793CE" d="M612.9,309.7l6.5-11.2c0,0,5.5,3,11.4,1.1c4.8-1.5,8.8-5.8,12.2-12.7c11.8-24.3,33.4-26.2,43.3-23.7
		l-3.1,12.5l1.5-6.3l-1.5,6.3c-1.9-0.4-18.7-3.6-28.5,16.8c-5,10.4-11.8,16.9-20.2,19.4C623.3,315.5,613.9,310.2,612.9,309.7z"/>
</g>
<path fill="#D4ECFF" d="M407,734.3c-32.7,0-59.3-26.6-59.3-59.3c0-32.7,26.6-59.3,59.3-59.3s59.3,26.6,59.3,59.3
	C466.4,707.7,439.8,734.3,407,734.3z M407,628.6c-25.6,0-46.4,20.8-46.4,46.4c0,25.6,20.8,46.4,46.4,46.4
	c25.6,0,46.4-20.8,46.4-46.4C453.4,649.3,432.6,628.6,407,628.6z"/>
<path fill="#5793CE" d="M59,1553.8c-23.2,0-42-18.8-42-42c0-23.2,18.8-42,42-42s42,18.8,42,42C101,1535,82.2,1553.8,59,1553.8z
	 M59,1482.6c-16.1,0-29.1,13-29.1,29.1s13,29.1,29.1,29.1s29.1-13,29.1-29.1S75,1482.6,59,1482.6z"/>
<path fill="#5793CE" d="M320.2,1081.3l-28.6-58.1l58.1-28.6l28.6,58.1L320.2,1081.3z M309,1029.2l17.2,34.9l34.9-17.2l-17.2-34.9
	L309,1029.2z"/>
<rect x="1729.3" y="450.1" transform="matrix(-0.8974 0.4412 -0.4412 -0.8974 3514.4871 112.6811)" fill="#5793CE" width="29.7" height="29.7"/>
<g>
	
		<rect x="1208.6" y="99.6" transform="matrix(-0.7071 -0.7071 0.7071 -0.7071 1982.1227 1081.7052)" fill="#D4ECFF" width="12.9" height="61.5"/>
	
		<rect x="1184.3" y="124" transform="matrix(-0.7071 -0.7071 0.7071 -0.7071 1982.0405 1081.8601)" fill="#D4ECFF" width="61.5" height="12.9"/>
</g>
<circle fill="#D4ECFF" cx="1647.4" cy="152.1" r="30.5"/>
<circle fill="#D4ECFF" cx="838.4" cy="1862.6" r="17.7"/>
<g>
	<g>
		<path fill="#5793CE" d="M1514.4,280.7l-130-75c-2.5-1.5-4.9-1.5-6.8-0.5V205l-12.5,7.3c0,0,5.5,2,8.9,3.3v94.6
			c0,7.7,4.6,16.7,10.4,19.9l124.2,71.6v11l12.7-7.3h-0.1c2.1-1.3,3.5-4.1,3.5-8.3v-96.6C1524.9,292.9,1520.1,284,1514.4,280.7z"/>
		<path fill="#D4ECFF" d="M1501.6,412.6l-130-75c-5.8-3.4-10.4-12.3-10.4-19.9V221c0-7.7,4.6-11.3,10.4-7.9l130,75
			c5.8,3.4,10.4,12.3,10.4,19.9v96.6C1512,412.3,1507.3,415.8,1501.6,412.6z"/>
	</g>
	<g>
		<path fill="#FFFFFF" d="M1415.4,304.2c0,5.6-3.9,7.9-8.8,5c-4.9-2.9-8.8-9.5-8.8-15.2c0-5.6,3.9-7.9,8.8-5
			C1411.5,291.9,1415.4,298.6,1415.4,304.2z"/>
		<path fill="#FFFFFF" d="M1441.9,319.6c0,5.6-3.9,7.9-8.8,5c-4.9-2.8-8.8-9.5-8.8-15.2c0-5.6,3.9-7.9,8.8-5
			C1438,307.2,1441.9,313.9,1441.9,319.6z"/>
		<path fill="#FFFFFF" d="M1468.4,334.9c0,5.6-3.9,7.9-8.8,5c-4.9-2.8-8.8-9.5-8.8-15.2c0-5.6,3.9-7.9,8.8-5
			C1464.6,322.5,1468.4,329.3,1468.4,334.9z"/>
	</g>
</g>
</svg>
