<?xml version="1.0" encoding="utf-8"?>
<!-- Generator: Adobe Illustrator 17.1.0, SVG Export Plug-In . SVG Version: 6.00 Build 0)  -->
<!DOCTYPE svg PUBLIC "-//W3C//DTD SVG 1.1//EN" "http://www.w3.org/Graphics/SVG/1.1/DTD/svg11.dtd">
<svg version="1.1" id="Layer_1" xmlns="http://www.w3.org/2000/svg" xmlns:xlink="http://www.w3.org/1999/xlink" x="0px" y="0px"
	 viewBox="0 0 2000 2000" enable-background="new 0 0 2000 2000" xml:space="preserve">
<g>
	<polygon fill="#274F89" points="1353.6,1560.9 1252.7,1502.7 1151.7,1560.9 1252.7,1619.3 	"/>
	<polygon fill="#274F89" points="1140.4,1445.6 1039.5,1387.4 938.5,1445.6 1039.5,1504 	"/>
	<polygon fill="#274F89" points="926.8,1323.3 825.8,1265 724.8,1323.3 825.8,1381.5 	"/>
	<g>
		<g>
			<g>
				<polygon fill="#C13D1A" points="1039.5,1445.6 1039.5,1134.9 1140.4,1076.5 1140.4,1387.4 				"/>
				<polygon fill="#EF602E" points="1140.4,1076.5 1039.5,1018.2 938.5,1076.5 1039.5,1134.9 				"/>
				<polygon fill="#5793CE" points="1039.5,1134.9 938.5,1076.5 938.5,1387.4 1039.5,1445.6 				"/>
				<polygon fill="#396CAA" points="1039.5,1445.6 1039.5,1134.9 1140.4,1076.5 1140.4,1387.4 				"/>
				<polygon fill="#D4ECFF" points="1140.4,1076.5 1039.5,1018.2 938.5,1076.5 1039.5,1134.9 				"/>
			</g>
			<g>
				<polygon fill="#173D7A" points="1253.8,1571 1253.8,1396.2 1354.7,1337.9 1354.7,1512.8 				"/>
				<polygon fill="#396CAA" points="1253.8,1396.2 1152.8,1337.9 1152.8,1512.8 1253.8,1571 				"/>
				<polygon fill="#D4ECFF" points="1354.7,1337.9 1253.8,1279.6 1152.8,1337.9 1253.8,1396.2 				"/>
			</g>
			<g>
				<polygon fill="#D4ECFF" points="825.8,1323.3 825.8,895.8 926.8,837.5 926.8,1265 				"/>
				<polygon fill="#396CAA" points="825.8,895.8 724.8,837.5 724.8,1265 825.8,1323.3 				"/>
				<polygon fill="#5793CE" points="926.8,837.5 825.8,779.3 724.8,837.5 825.8,895.8 				"/>
			</g>
		</g>
	</g>
	<g>
		<g>
			<path fill="#5793CE" d="M765.7,1079.2c0,0-16.7-8.4-26.8,4.1c-10.3,12.5-24.8,42-25.3,62s15.8,18.6,25.5,13.9
				c9.7-4.8,37.9-45.7,39.6-53.7c1.8-8-2-18.8-4.8-21C771.1,1082.4,765.7,1079.2,765.7,1079.2z"/>
			<path fill="#D4ECFF" d="M769.4,1075.1l0.8,17.3c0.1,3.6-1.6,7.2-4.9,9c-2.9,1.6-7.2,2.9-12.8,2c-12.5-2-13.7-5.6-14.6-22.8
				C736.9,1063.3,769.4,1075.1,769.4,1075.1z"/>
			<g>
				<path fill="#5793CE" d="M704.6,1046c0,0-16.7-8.4-26.8,4.1c-10.3,12.5-24.8,42-25.3,62s15.8,18.6,25.5,13.9
					c9.7-4.8,37.9-45.7,39.6-53.7c1.8-8-2-18.8-4.8-21C710,1049.2,704.6,1046,704.6,1046z"/>
				<path fill="#D4ECFF" d="M708.3,1042l0.8,17.3c0.1,3.6-1.6,7.2-4.9,9c-2.9,1.6-7.2,2.9-12.8,2c-12.5-2-13.7-5.6-14.6-22.8
					C675.9,1030.3,708.3,1042,708.3,1042z"/>
				<path fill="#173D7A" d="M857.1,725c-4.9-80.3-86.9,11.8-86.9,11.8l-56.1,55l-50.6,55.5c-9.9,10.8-14.4,25.5-12.5,40l20.5,155.7
					c1,7.7,7.5,13.3,15.3,13.3c2.1,0,4.6-0.3,7.5-0.6c18.2-2.9,16.9-20.2,16.9-20.2l-3.8-145.5l106.1-64
					C813.5,825.8,862,805.1,857.1,725z"/>
			</g>
			<path fill="#173D7A" d="M918,755.5c-4.9-80.3-86.9,11.8-86.9,11.8l-56.1,55l-50.6,55.5c-9.9,10.8-14.4,25.5-12.5,40l20.5,155.7
				c1,7.7,7.5,13.3,15.3,13.3c2.1,0,4.6-0.3,7.5-0.6c18.2-2.9,16.9-20.2,16.9-20.2l-3.8-145.5l106.1-64
				C874.5,856.5,922.9,835.8,918,755.5z"/>
			<path fill="#5793CE" d="M869.5,497.9c62.1,25.7,61,62.5,61,62.5s-12.2,134.7-8,224.7c1.8,37.6-199.9,40.5-169.8-59.8
				c35.5-118.3,22.2-214,38.8-228.6C808,482.2,853.4,491.2,869.5,497.9z"/>
			
				<ellipse transform="matrix(0.2494 -0.9684 0.9684 0.2494 138.4668 1223.4795)" fill="#FFC2B0" cx="858.5" cy="522.4" rx="23.6" ry="32.1"/>
			<path fill="#FFFFFF" d="M863.1,549.6c-3.6,0-7.4-0.5-11.3-1.5c-18.7-4.8-31-20.3-27.4-34.5s21.8-21.8,40.5-16.9
				c8.9,2.3,16.7,7,21.8,13.3c5.4,6.5,7.3,14.1,5.5,21.1C889.6,542.4,877.4,549.6,863.1,549.6z M853.7,501.1
				c-11.5,0-21.2,5.4-23.5,14.1c-2.9,11,7.5,23.2,23.1,27.2c15.6,4,30.5-1.8,33.4-12.7c1.4-5.1-0.3-10.8-4.4-15.9
				c-4.4-5.4-11-9.4-18.7-11.3C860.3,501.6,856.9,501.1,853.7,501.1z"/>
			<path fill="#FFC2B0" d="M844.6,495c0,0,0.5,2.5-0.5,22.2c-0.4,6.1,21.3,11.9,27,6.4c5.6-5.6,3.4-11.4,4.8-32.5
				C877.1,470,844.6,495,844.6,495z"/>
			<path fill="#EA9C92" d="M875.8,491.1c0,0-5.4,19.6-31.6,27.1l0.4-17.8L875.8,491.1z"/>
			<circle fill="#FFC2B0" cx="846.1" cy="453.5" r="47.8"/>
			<path fill="#EA9C92" d="M857.1,455.2c0,0-26.3,11.3-44.5,11.4c-18.2,0.1-14.2-15.2-14.2-15.2l54.2-7.8L857.1,455.2z"/>
			<path fill="#FF2C9C" d="M807,458.1c0,0,23-9.8,43-5.6c4.8,1,9.2,3.5,12.2,7.3c1,1.3,2.3,2.4,3.6,2.6c3.5,0.8,9.4-14.1,16.3-14.3
				c6.9-0.4,11.5,4.5,5.9,13.7c-5.6,9.2-3.8,19.3-1.1,20.8s30.4-19.8,5.9-68.4s-86.7-22.3-96.4-12.5c0,0-10.2,8.9-18.4,1
				C778,402.5,768.7,472.2,807,458.1z"/>
			<path fill="#FFC2B0" d="M895.6,658.7v36.4c0,4.1-1.8,8.2-4.9,10.9l-74.8,68.1l8.5,13l98.7-71.6c4.6-3.4,7.5-8.5,8.2-14.2
				l6.6-63.5L895.6,658.7z"/>
			<path fill="#5793CE" d="M925.2,542.2c0,0,22.7,34.1,31.1,124c0,0-38.8,12.5-60.7,5.4S925.2,542.2,925.2,542.2z"/>
			<path fill="#396CAA" d="M891.4,585.3c0,0-8.9,47.6-9.4,69.9c-0.1,6.1,3.6,11.7,9.4,13.8l0,0V585.3z"/>
		</g>
		<g>
			<path fill="#5793CE" d="M872,821.7l-16.6-2.1L748.8,758c-3.4-2-9.4-1.8-13.3,0.5l-75.7,43.7l-10-1.4v9.9l0,0
				c-0.1,1.3,0.6,2.5,2.3,3.5L773,883.9c3.4,2,9.4,1.8,13.3-0.5l82.3-47.6c2.3-1.3,3.4-2.9,3.3-4.5l0,0v-9.7H872z"/>
			<path fill="#396CAA" d="M791.8,782.7l-7.5-4.4H701L660,802l-10-1.4v9.9l0,0c-0.1,1.3,0.6,2.5,2.3,3.5l120.9,69.8
				c1.8,1,4.4,1.5,6.9,1.3L791.8,782.7z"/>
			<path fill="#5793CE" d="M654.3,801.4l-4.4-0.6v9.9l0,0c-0.1,1.3,0.6,2.5,2.3,3.5l2.1,1.3V801.4z"/>
			<path fill="#FFFFFF" d="M774.3,884.6c3.3,1.3,7.9,1,11.3-0.8v-16.9h-11.3V884.6z"/>
			<path fill="#FFFFFF" d="M773.1,874l-120.9-69.8c-3.4-2-3-5.4,1-7.7l82.3-47.6c3.9-2.3,9.9-2.5,13.3-0.5l120.9,69.8
				c3.4,2,3,5.4-1,7.7l-82.3,47.6C782.5,875.8,776.5,876,773.1,874z"/>
			<path fill="#D4ECFF" d="M771,863.5l-100.5-58.1c-2.9-1.6-2.5-4.5,0.8-6.4l44.2-24.8c3.3-1.9,8.3-2.1,11-0.5L827,831.7
				c2.9,1.6,2.5,4.5-0.8,6.4L782,863C778.9,865,773.9,865.1,771,863.5z"/>
		</g>
		<path fill="#FFC2B0" d="M740.1,746.8l-1.3,8.4c-1,7.2-0.9,14.3,0.5,21.5l1.5,7.4c0.9,4.1,4.1,7.4,8.3,8.2l0,0
			c3.3,0.6,6.3-1.6,6.6-5l2-17.8c0,0,4.5,6,6.8,6c2.3,0-2.5-17.8-7.4-28C752.2,737,740.1,746.8,740.1,746.8z"/>
		<path fill="#FFC2B0" d="M781.2,614.2l-13,25.6c-3,6-4.9,12.7-5.3,19.4l-5.6,87.8l-17.1-0.4l-7.8-98.6c-0.3-3-0.1-6.1,0.5-9.2
			l8.9-50.1L781.2,614.2z"/>
		<g>
			<path fill="#173D7A" d="M769,880.8l-10.2-13.2l-106.6-61.7c-3.4-2-6.1-7.3-6.1-11.8l0.1-87.3l-6.1-8l5.8-3.4l0,0
				c1.1-0.8,2.5-0.8,4.1,0.3l120.8,70c3.4,2,6.1,7.3,6.1,11.8l-0.1,95.1c0,2.5-0.9,4.4-2.3,5l0,0L769,880.8z"/>
			<path fill="#396CAA" d="M695.2,830.7l-7.5-4.4l-41.5-72.3v-47.4l-6.1-8l5.8-3.4l0,0c1.1-0.8,2.5-0.8,4.1,0.3l120.8,70
				c1.8,1,3.4,3,4.5,5.3L695.2,830.7z"/>
			<path fill="#5793CE" d="M642.8,702.3l-2.8-3.5l5.8-3.4l0,0c1.1-0.8,2.5-0.8,4.1,0.3l2.1,1.3L642.8,702.3z"/>
			<path fill="#274F89" d="M771.9,766.4c2.6,2.3,4.8,6.4,5,10.2l-11.8,6.8l-5.6-9.8L771.9,766.4z"/>
			<path fill="#5793CE" d="M765.1,768.9l-120.8-70c-3.4-2-6.1,0.1-6.1,4.6l-0.1,95.1c0,4.5,2.8,9.9,6.1,11.8l120.8,70
				c3.4,2,6.1-0.1,6.1-4.6l0.1-95.1C771.2,776.2,768.5,770.9,765.1,768.9z"/>
		</g>
		<path fill="#FFC2B0" d="M824.4,787.3l-1.9,4c-2.3,4.6-5.8,8.5-10.2,11.2l-12,7.4c-3.8,2.3-8.4,2.5-12.3,0.3
			c-0.1-0.1-0.3-0.1-0.4-0.3c-3.8-2.4-4.1-7.9-1-11l12.5-12.9c0,0-7,5.4-9,3.3c-1.5-1.6,6.8-9.4,13.2-9.7c6.4-0.3,12.5-5.3,12.5-5.3
			L824.4,787.3z"/>
		<path fill="#5793CE" d="M792.7,496.5c0,0-45.9,50.1-64.5,96c0,0,15.7,28.4,54.2,39.4C820.8,642.9,792.7,496.5,792.7,496.5z"/>
		<path fill="#396CAA" d="M773.6,628.9l7.4-72l-17.6,67.5C766.7,626,770.1,627.5,773.6,628.9z"/>
		<path fill="#FFFFFF" d="M827.1,486.3l-12.3-3.4c0,0,5.9,9.3,14.6,11.7c8.7,2.4,9.9-4.9,9.9-4.9L827.1,486.3z"/>
	</g>
</g>
</svg>
