<?xml version="1.0" encoding="utf-8"?>
<!-- Generator: Adobe Illustrator 17.1.0, SVG Export Plug-In . SVG Version: 6.00 Build 0)  -->
<!DOCTYPE svg PUBLIC "-//W3C//DTD SVG 1.1//EN" "http://www.w3.org/Graphics/SVG/1.1/DTD/svg11.dtd">
<svg version="1.1" id="Layer_1" xmlns="http://www.w3.org/2000/svg" xmlns:xlink="http://www.w3.org/1999/xlink" x="0px" y="0px"
	 viewBox="0 0 2000 2000" enable-background="new 0 0 2000 2000" xml:space="preserve">
<g>
	<g>
		<path fill="#D4ECFF" d="M1048.1,1829.3l-770-444.5c-21.8-12.5-19.1-34.5,6.1-49.1l524.3-302.6c25.1-14.6,63.2-16.1,84.9-3.5
			l770,444.5c21.8,12.5,19.1,34.5-6.1,49.1l-524.3,302.6C1108,1840.3,1070,1842,1048.1,1829.3z"/>
		<g>
			<path fill="#173D7A" d="M1692,599.8L909.4,148.3c-10-5.8-19.3-6.6-26.8-3.6v-0.1l-1.3,0.6c-0.1,0-0.3,0.1-0.3,0.1l-25.5,12
				l27.6,13.8c0,0.5,0,1,0,1.5l0.3,642.8c0,32.1,19.9,69.8,44.4,83.9l761.8,439.4l4.4,35.9l27.9-13.3c9.2-5.4,14.9-17.6,14.9-34.9
				l-0.3-642.8C1736.4,651.4,1716.5,613.9,1692,599.8z"/>
			<path fill="#396CAA" d="M1692,599.8L909.4,148.3c-10-5.8-19.3-6.6-26.8-3.6v-0.1l-1.3,0.6c-0.1,0-0.3,0.1-0.3,0.1l-25.5,12
				l27.6,13.8c0,0.5,0,1,0,1.5l0.1,423.7l356.2,281.4L1723,634.4C1715,619.5,1704.1,606.8,1692,599.8z"/>
			<path fill="#274F89" d="M1705.1,609.9l-76.7,32.2l58,44.7l48.3-20.6C1730.4,645,1719.3,623.8,1705.1,609.9z"/>
			<path fill="#D4ECFF" d="M1666.4,1371.2L883.9,919.7c-24.6-14.2-44.4-51.7-44.4-83.9L839.2,193c0-32.1,19.8-46.8,44.4-32.6
				l782.5,451.5c24.6,14.2,44.4,51.7,44.4,83.9l0.3,642.8C1711,1370.7,1691,1385.4,1666.4,1371.2z"/>
			<path fill="#FFFFFF" d="M1640.5,1323.4L909.5,902c-22.5-12.9-40.7-47.3-40.7-76.8L868.6,237c0-29.5,18.2-42.8,40.7-29.9
				l731,421.4c22.5,12.9,40.7,47.3,40.7,76.8l0.3,588.2C1681.1,1322.9,1662.9,1336.4,1640.5,1323.4z"/>
			<path fill="#FFFFFF" d="M1640.5,1323.4L909.5,902c-22.5-12.9-40.7-47.3-40.7-76.8L868.6,237c0-29.5,18.2-42.8,40.7-29.9
				l731,421.4c22.5,12.9,40.7,47.3,40.7,76.8l0.3,588.2C1681.1,1322.9,1662.9,1336.4,1640.5,1323.4z"/>
		</g>
		<path fill="#173D7A" d="M1678.2,1391.2l-105.3-13.9L893.6,985.1c-21.8-12.5-59.8-11-84.9,3.5l-481.4,277.8l-63.6-8.4v36.1l0,0
			c-0.4,8.4,4.4,16.3,14.6,22.3l770,444.5c21.8,12.5,59.8,11,84.9-3.5l524.3-302.6c14.2-8.2,21.2-18.7,20.8-28.6l0,0L1678.2,1391.2
			L1678.2,1391.2z"/>
		<path fill="#396CAA" d="M1167.7,1143.3l-48.3-27.9H588.7l-261.6,150.9l-63.6-8.4v36.1l0,0c-0.4,8.4,4.4,16.3,14.6,22.3l770,444.5
			c11.5,6.6,27.6,9.3,43.9,8.3L1167.7,1143.3z"/>
		<path fill="#5793CE" d="M291.8,1261.7l-28.2-3.8v36.1l0,0c-0.4,8.4,4.4,16.3,14.6,22.3l13.6,7.8v-62.5H291.8z"/>
		<path fill="#274F89" d="M1055.9,1764.6c20.7,7.8,50.2,6.1,72.1-4.5v-80.5h-72.1V1764.6z"/>
		<path fill="#D4ECFF" d="M1048.1,1724.9l-770-444.5c-21.8-12.5-19.1-34.5,6.1-49.1l524.3-302.6c25.1-14.6,63.2-16.1,84.9-3.5
			l770,444.5c21.8,12.5,19.1,34.5-6.1,49.1l-524.3,302.6C1108,1735.8,1070,1737.5,1048.1,1724.9z"/>
		<path fill="#FFFFFF" d="M1657.4,1405.6l-524.3,302.6c-25.1,14.6-63.2,16.1-84.9,3.5l-770-444.5c-7.2-4.1-11.5-9.3-13.6-14.8
			c-3.4,10.3,0.9,20.7,13.6,28l770,444.5c21.8,12.5,59.8,11,84.9-3.5l524.3-302.6c16.9-9.8,23.6-22.8,19.7-34.3
			C1674.6,1392.1,1667.9,1399.5,1657.4,1405.6z"/>
		<g>
			<path fill="#173D7A" d="M605.6,1133.2l-34.9-20.1c-2.8-1.6-2.4-4.4,0.8-6.3l41.2-23.7c3.3-1.9,8.2-2,10.9-0.5l34.9,20.1
				c2.8,1.6,2.4,4.4-0.8,6.3l-41.2,23.7C613.4,1134.6,608.5,1134.9,605.6,1133.2z"/>
			<path fill="#173D7A" d="M659.5,1164.2l-34.9-20.1c-2.8-1.6-2.4-4.4,0.8-6.3l41.2-23.7c3.3-1.9,8.2-2,10.9-0.5l34.9,20.1
				c2.8,1.6,2.4,4.4-0.8,6.3l-41.2,23.7C667.1,1165.6,662.3,1165.8,659.5,1164.2z"/>
			<path fill="#173D7A" d="M713.3,1195.3l-34.9-20.1c-2.8-1.6-2.4-4.4,0.8-6.3l41.2-23.7c3.3-1.9,8.2-2,10.9-0.5l34.9,20.1
				c2.8,1.6,2.4,4.4-0.8,6.3l-41.2,23.7C720.9,1196.7,716,1197,713.3,1195.3z"/>
			<path fill="#173D7A" d="M787.7,1169.6l-34.9-20.1c-2.8-1.6-2.4-4.4,0.8-6.3l34.5-19.9c3.3-1.9,8.2-2,10.9-0.5l34.9,20.1
				c2.8,1.6,2.4,4.4-0.8,6.3l-34.5,19.9C795.3,1171.1,790.4,1171.2,787.7,1169.6z"/>
			<path fill="#173D7A" d="M841.5,1200.7l-34.9-20.1c-2.8-1.6-2.4-4.4,0.8-6.3l34.5-19.9c3.3-1.9,8.2-2,10.9-0.5l34.9,20.1
				c2.8,1.6,2.4,4.4-0.8,6.3l-34.5,19.9C849.2,1202.1,844.3,1202.4,841.5,1200.7z"/>
			<path fill="#173D7A" d="M895.3,1231.7l-34.9-20.1c-2.8-1.6-2.4-4.4,0.8-6.3l34.5-19.9c3.3-1.9,8.2-2,10.9-0.5l34.9,20.1
				c2.8,1.6,2.4,4.4-0.8,6.3l-34.5,19.9C903,1233.2,898.1,1233.3,895.3,1231.7z"/>
			<path fill="#173D7A" d="M949,1262.8l-34.9-20.1c-2.8-1.6-2.4-4.4,0.8-6.3l34.5-19.9c3.3-1.9,8.2-2,10.9-0.5l34.9,20.1
				c2.8,1.6,2.4,4.4-0.8,6.3l-34.5,19.9C956.8,1264.2,951.9,1264.5,949,1262.8z"/>
			<path fill="#173D7A" d="M1002.9,1293.9l-34.9-20.1c-2.8-1.6-2.4-4.4,0.8-6.3l34.5-19.9c3.3-1.9,8.2-2,10.9-0.5l34.9,20.1
				c2.8,1.6,2.4,4.4-0.8,6.3l-34.5,19.9C1010.5,1295.3,1005.6,1295.5,1002.9,1293.9z"/>
			<path fill="#173D7A" d="M1056.7,1324.9l-34.9-20.1c-2.8-1.6-2.4-4.4,0.8-6.3l34.5-19.9c3.3-1.9,8.2-2,10.9-0.5l34.9,20.1
				c2.8,1.6,2.4,4.4-0.8,6.3l-34.5,19.9C1064.3,1326.3,1059.4,1326.6,1056.7,1324.9z"/>
			<path fill="#173D7A" d="M1110.5,1356.1l-34.9-20.1c-2.8-1.6-2.4-4.4,0.8-6.3l34.5-19.9c3.3-1.9,8.2-2,10.9-0.5l34.9,20.1
				c2.8,1.6,2.4,4.4-0.8,6.3l-34.5,19.9C1118.2,1357.4,1113.3,1357.7,1110.5,1356.1z"/>
			<path fill="#173D7A" d="M1164.3,1387l-34.9-20.1c-2.8-1.6-2.4-4.4,0.8-6.3l34.5-19.9c3.3-1.9,8.2-2,10.9-0.5l34.9,20.1
				c2.8,1.6,2.4,4.4-0.8,6.3l-34.5,19.9C1172,1388.4,1167.1,1388.7,1164.3,1387z"/>
			<path fill="#173D7A" d="M1218,1418.2l-34.9-20.1c-2.8-1.6-2.4-4.4,0.8-6.3l34.5-19.9c3.3-1.9,8.2-2,10.9-0.5l34.9,20.1
				c2.8,1.6,2.4,4.4-0.8,6.3l-34.5,19.9C1225.8,1419.5,1220.9,1419.8,1218,1418.2z"/>
			<path fill="#173D7A" d="M1271.8,1449.1l-34.9-20.1c-2.8-1.6-2.4-4.4,0.8-6.3l34.5-19.9c3.3-1.9,8.2-2,10.9-0.5l34.9,20.1
				c2.8,1.6,2.4,4.4-0.8,6.3l-34.5,19.9C1279.5,1450.7,1274.6,1450.8,1271.8,1449.1z"/>
			<path fill="#396CAA" d="M867,1154.9l-34.9-20.1c-2.8-1.6-2.4-4.4,0.8-6.3l34.5-19.9c3.3-1.9,8.2-2,10.9-0.5l34.9,20.1
				c2.8,1.6,2.4,4.4-0.8,6.3l-34.5,19.9C874.6,1156.3,869.7,1156.6,867,1154.9z"/>
			<path fill="#396CAA" d="M812.4,1123.4l-34.9-20.1c-2.8-1.6-2.4-4.4,0.8-6.3l34.5-19.9c3.3-1.9,8.2-2,10.9-0.5l34.9,20.1
				c2.8,1.6,2.4,4.4-0.8,6.3l-34.5,19.9C820,1124.8,815.2,1125.1,812.4,1123.4z"/>
			<path fill="#173D7A" d="M757.7,1091.8l-75-43.3c-2.8-1.6-2.4-4.4,0.8-6.3l34.5-19.9c3.3-1.9,8.2-2,10.9-0.5l75,43.3
				c2.8,1.6,2.4,4.4-0.8,6.3l-34.5,19.9C765.3,1093.2,760.5,1093.5,757.7,1091.8z"/>
			<path fill="#173D7A" d="M795.8,1053.4l-60.9-35.1c-2.8-1.6-2.4-4.4,0.8-6.3l34.5-19.9c3.3-1.9,8.2-2,10.9-0.5l60.9,35.1
				c2.8,1.6,2.4,4.4-0.8,6.3l-34.5,19.9C803.6,1054.8,798.7,1055.1,795.8,1053.4z"/>
			<path fill="#396CAA" d="M920.8,1186l-34.9-20.1c-2.8-1.6-2.4-4.4,0.8-6.3l34.5-19.9c3.3-1.9,8.2-2,10.9-0.5l34.9,20.1
				c2.8,1.6,2.4,4.4-0.8,6.3l-34.5,19.9C928.5,1187.4,923.6,1187.7,920.8,1186z"/>
			<path fill="#173D7A" d="M974.5,1217l-34.9-20.1c-2.8-1.6-2.4-4.4,0.8-6.3l34.5-19.9c3.3-1.9,8.2-2,10.9-0.5l34.9,20.1
				c2.8,1.6,2.4,4.4-0.8,6.3l-34.5,19.9C982.3,1218.4,977.4,1218.7,974.5,1217z"/>
			<path fill="#173D7A" d="M1028.3,1248.2l-34.9-20.1c-2.8-1.6-2.4-4.4,0.8-6.3l34.5-19.9c3.3-1.9,8.2-2,10.9-0.5l34.9,20.1
				c2.8,1.6,2.4,4.4-0.8,6.3l-34.5,19.9C1036,1249.5,1031.1,1249.8,1028.3,1248.2z"/>
			<path fill="#173D7A" d="M1082.1,1279.1l-34.9-20.1c-2.8-1.6-2.4-4.4,0.8-6.3l34.5-19.9c3.3-1.9,8.2-2,10.9-0.5l34.9,20.1
				c2.8,1.6,2.4,4.4-0.8,6.3l-34.5,19.9C1089.8,1280.6,1084.9,1280.8,1082.1,1279.1z"/>
			<path fill="#173D7A" d="M1136,1310.3l-34.9-20.1c-2.8-1.6-2.4-4.4,0.8-6.3l34.5-19.9c3.3-1.9,8.2-2,10.9-0.5l34.9,20.1
				c2.8,1.6,2.4,4.4-0.8,6.3l-34.5,19.9C1143.6,1311.6,1138.7,1311.9,1136,1310.3z"/>
			<path fill="#173D7A" d="M1189.8,1341.2l-34.9-20.1c-2.8-1.6-2.4-4.4,0.8-6.3l34.5-19.9c3.3-1.9,8.2-2,10.9-0.5l34.9,20.1
				c2.8,1.6,2.4,4.4-0.8,6.3l-34.5,19.9C1197.4,1342.8,1192.6,1342.9,1189.8,1341.2z"/>
			<path fill="#173D7A" d="M1243.5,1372.4l-34.9-20.1c-2.8-1.6-2.4-4.4,0.8-6.3l34.5-19.9c3.3-1.9,8.2-2,10.9-0.5l34.9,20.1
				c2.8,1.6,2.4,4.4-0.8,6.3l-34.5,19.9C1251.3,1373.7,1246.4,1374,1243.5,1372.4z"/>
			<path fill="#173D7A" d="M1297.3,1403.5l-34.9-20.1c-2.8-1.6-2.4-4.4,0.8-6.3l34.5-19.9c3.3-1.9,8.2-2,10.9-0.5l34.9,20.1
				c2.8,1.6,2.4,4.4-0.8,6.3l-34.5,19.9C1305,1404.9,1300.1,1405,1297.3,1403.5z"/>
			<path fill="#173D7A" d="M1351.1,1434.5l-34.9-20.1c-2.8-1.6-2.4-4.4,0.8-6.3l34.5-19.9c3.3-1.9,8.2-2,10.9-0.5l34.9,20.1
				c2.8,1.6,2.4,4.4-0.8,6.3l-34.5,19.9C1358.8,1435.8,1353.9,1436.1,1351.1,1434.5z"/>
			<path fill="#173D7A" d="M1446.7,1489.7l-76-43.9c-2.8-1.6-2.4-4.4,0.8-6.3l34.5-19.9c3.3-1.9,8.2-2,10.9-0.5l76,43.9
				c2.8,1.6,2.4,4.4-0.8,6.3l-34.5,19.9C1454.4,1491.2,1449.5,1491.3,1446.7,1489.7z"/>
			<path fill="#173D7A" d="M1551.5,1429.2l-64.1-37c-2.8-1.6-2.4-4.4,0.8-6.3l34.5-19.9c3.3-1.9,8.2-2,10.9-0.5l64.1,37
				c2.8,1.6,2.4,4.4-0.8,6.3l-34.5,19.9C1559.2,1430.7,1554.3,1430.8,1551.5,1429.2z"/>
			<path fill="#173D7A" d="M1015,1179.9l-34.9-20.1c-2.8-1.6-2.4-4.4,0.8-6.3l34.5-19.9c3.3-1.9,8.2-2,10.9-0.5l34.9,20.1
				c2.8,1.6,2.4,4.4-0.8,6.3l-34.5,19.9C1022.7,1181.3,1017.8,1181.5,1015,1179.9z"/>
			<path fill="#173D7A" d="M959.8,1148.2l-34.9-20.1c-2.8-1.6-2.4-4.4,0.8-6.3l34.5-19.9c3.3-1.9,8.2-2,10.9-0.5l34.9,20.1
				c2.8,1.6,2.4,4.4-0.8,6.3l-34.5,19.9C967.5,1149.5,962.6,1149.7,959.8,1148.2z"/>
			<path fill="#396CAA" d="M904.7,1116.3l-34.9-20.1c-2.8-1.6-2.4-4.4,0.8-6.3l34.5-19.9c3.3-1.9,8.2-2,10.9-0.5l34.9,20.1
				c2.8,1.6,2.4,4.4-0.8,6.3l-34.5,19.9C912.4,1117.7,907.5,1117.9,904.7,1116.3z"/>
			<path fill="#173D7A" d="M849.5,1084.4l-34.9-20.1c-2.8-1.6-2.4-4.4,0.8-6.3l34.5-19.9c3.3-1.9,8.2-2,10.9-0.5l34.9,20.1
				c2.8,1.6,2.4,4.4-0.8,6.3l-34.5,19.9C857.2,1085.8,852.3,1086.1,849.5,1084.4z"/>
			<path fill="#173D7A" d="M1068.7,1211l-34.9-20.1c-2.8-1.6-2.4-4.4,0.8-6.3l34.5-19.9c3.3-1.9,8.2-2,10.9-0.5l34.9,20.1
				c2.8,1.6,2.4,4.4-0.8,6.3l-34.5,19.9C1076.5,1212.4,1071.6,1212.6,1068.7,1211z"/>
			<path fill="#173D7A" d="M1122.5,1242l-34.9-20.1c-2.8-1.6-2.4-4.4,0.8-6.3l34.5-19.9c3.3-1.9,8.2-2,10.9-0.5l34.9,20.1
				c2.8,1.6,2.4,4.4-0.8,6.3l-34.5,19.9C1130.2,1243.5,1125.3,1243.6,1122.5,1242z"/>
			<path fill="#173D7A" d="M1176.4,1273.1l-34.9-20.1c-2.8-1.6-2.4-4.4,0.8-6.3l34.5-19.9c3.3-1.9,8.2-2,10.9-0.5l34.9,20.1
				c2.8,1.6,2.4,4.4-0.8,6.3l-34.5,19.9C1184,1274.5,1179.1,1274.8,1176.4,1273.1z"/>
			<path fill="#173D7A" d="M1230.2,1304.1l-34.9-20.1c-2.8-1.6-2.4-4.4,0.8-6.3l34.5-19.9c3.3-1.9,8.2-2,10.9-0.5l34.9,20.1
				c2.8,1.6,2.4,4.4-0.8,6.3l-34.5,19.9C1237.8,1305.6,1233,1305.7,1230.2,1304.1z"/>
			<path fill="#173D7A" d="M1283.9,1335.2l-34.9-20.1c-2.8-1.6-2.4-4.4,0.8-6.3l34.5-19.9c3.3-1.9,8.2-2,10.9-0.5l34.9,20.1
				c2.8,1.6,2.4,4.4-0.8,6.3l-34.5,19.9C1291.7,1336.6,1286.8,1336.9,1283.9,1335.2z"/>
			<path fill="#173D7A" d="M1337.7,1366.3l-34.9-20.1c-2.8-1.6-2.4-4.4,0.8-6.3l34.5-19.9c3.3-1.9,8.2-2,10.9-0.5l34.9,20.1
				c2.8,1.6,2.4,4.4-0.8,6.3l-34.5,19.9C1345.4,1367.7,1340.6,1367.8,1337.7,1366.3z"/>
			<path fill="#173D7A" d="M1391.5,1397.3l-34.9-20.1c-2.8-1.6-2.4-4.4,0.8-6.3l34.5-19.9c3.3-1.9,8.2-2,10.9-0.5l34.9,20.1
				c2.8,1.6,2.4,4.4-0.8,6.3l-34.5,19.9C1399.2,1398.7,1394.3,1399,1391.5,1397.3z"/>
			<path fill="#173D7A" d="M1445.4,1428.4l-34.9-20.1c-2.8-1.6-2.4-4.4,0.8-6.3l34.5-19.9c3.3-1.9,8.2-2,10.9-0.5l34.9,20.1
				c2.8,1.6,2.4,4.4-0.8,6.3l-34.5,19.9C1453,1429.8,1448.1,1430.1,1445.4,1428.4z"/>
			<path fill="#173D7A" d="M1499.2,1459.4l-34.9-20.1c-2.8-1.6-2.4-4.4,0.8-6.3l34.5-19.9c3.3-1.9,8.2-2,10.9-0.5l34.9,20.1
				c2.8,1.6,2.4,4.4-0.8,6.3l-34.5,19.9C1506.8,1460.9,1501.9,1461.1,1499.2,1459.4z"/>
			<path fill="#173D7A" d="M986.7,1103.1l-34.9-20.1c-2.8-1.6-2.4-4.4,0.8-6.3l34.5-19.9c3.3-1.9,8.2-2,10.9-0.5l34.9,20.1
				c2.8,1.6,2.4,4.4-0.8,6.3l-34.5,19.9C994.3,1104.5,989.4,1104.7,986.7,1103.1z"/>
			<path fill="#173D7A" d="M933.1,1072.3l-34.9-20.1c-2.8-1.6-2.4-4.4,0.8-6.3l34.5-19.9c3.3-1.9,8.2-2,10.9-0.5l34.9,20.1
				c2.8,1.6,2.4,4.4-0.8,6.3l-34.5,19.9C940.7,1073.6,935.9,1073.8,933.1,1072.3z"/>
			<path fill="#173D7A" d="M879.5,1041.3l-34.9-20.1c-2.8-1.6-2.4-4.4,0.8-6.3l34.5-19.9c3.3-1.9,8.2-2,10.9-0.5l34.9,20.1
				c2.8,1.6,2.4,4.4-0.8,6.3l-34.5,19.9C887.3,1042.8,882.4,1042.9,879.5,1041.3z"/>
			<path fill="#173D7A" d="M826.1,1010.4l-34.9-20.1c-2.8-1.6-2.4-4.4,0.8-6.3l34.5-19.9c3.3-1.9,8.2-2,10.9-0.5l34.9,20.1
				c2.8,1.6,2.4,4.4-0.8,6.3l-34.5,19.9C833.7,1011.8,828.8,1012,826.1,1010.4z"/>
			<path fill="#173D7A" d="M881.2,978.7l-34.9-20.1c-2.8-1.6-2.4-4.4,0.8-6.3l11.4-6.6c3.3-1.9,8.2-2,10.9-0.5l34.9,20.1
				c2.8,1.6,2.4,4.4-0.8,6.3l-11.4,6.6C888.8,980,883.9,980.2,881.2,978.7z"/>
			<path fill="#173D7A" d="M950.9,1018.9L916,998.9c-2.8-1.6-2.4-4.4,0.8-6.3l11.4-6.6c3.3-1.9,8.2-2,10.9-0.5l34.9,20.1
				c2.8,1.6,2.4,4.4-0.8,6.3l-11.4,6.6C958.7,1020.3,953.8,1020.6,950.9,1018.9z"/>
			<path fill="#173D7A" d="M1004.2,1049.7l-34.9-20.1c-2.8-1.6-2.4-4.4,0.8-6.3l11.4-6.6c3.3-1.9,8.2-2,10.9-0.5l34.9,20.1
				c2.8,1.6,2.4,4.4-0.8,6.3l-11.4,6.6C1011.9,1051.2,1007,1051.3,1004.2,1049.7z"/>
			<path fill="#173D7A" d="M1057.6,1080.5l-34.9-20.1c-2.8-1.6-2.4-4.4,0.8-6.3l11.4-6.6c3.3-1.9,8.2-2,10.9-0.5l34.9,20.1
				c2.8,1.6,2.4,4.4-0.8,6.3l-11.4,6.6C1065.2,1081.9,1060.3,1082.2,1057.6,1080.5z"/>
			<path fill="#173D7A" d="M1110.9,1111.3l-34.9-20.1c-2.8-1.6-2.4-4.4,0.8-6.3l11.4-6.6c3.3-1.9,8.2-2,10.9-0.5l34.9,20.1
				c2.8,1.6,2.4,4.4-0.8,6.3l-11.4,6.6C1118.5,1112.7,1113.6,1112.9,1110.9,1111.3z"/>
			<path fill="#173D7A" d="M1408.5,1283l-34.9-20.1c-2.8-1.6-2.4-4.4,0.8-6.3l11.4-6.6c3.3-1.9,8.2-2,10.9-0.5l34.9,20.1
				c2.8,1.6,2.4,4.4-0.8,6.3l-11.4,6.6C1416.1,1284.5,1411.2,1284.7,1408.5,1283z"/>
			<path fill="#173D7A" d="M1461.8,1313.9l-34.9-20.1c-2.8-1.6-2.4-4.4,0.8-6.3l11.4-6.6c3.3-1.9,8.2-2,10.9-0.5l34.9,20.1
				c2.8,1.6,2.4,4.4-0.8,6.3l-11.4,6.6C1469.5,1315.3,1464.6,1315.5,1461.8,1313.9z"/>
			<path fill="#173D7A" d="M1515.1,1344.6l-34.9-20.1c-2.8-1.6-2.4-4.4,0.8-6.3l11.4-6.6c3.3-1.9,8.2-2,10.9-0.5l34.9,20.1
				c2.8,1.6,2.4,4.4-0.8,6.3l-11.4,6.6C1522.8,1346,1517.9,1346.3,1515.1,1344.6z"/>
			<path fill="#173D7A" d="M1568.4,1375.4l-34.9-20.1c-2.8-1.6-2.4-4.4,0.8-6.3l11.4-6.6c3.3-1.9,8.2-2,10.9-0.5l34.9,20.1
				c2.8,1.6,2.4,4.4-0.8,6.3l-11.4,6.6C1576.1,1376.9,1571.2,1377,1568.4,1375.4z"/>
			<path fill="#173D7A" d="M1040.5,1134.1l-34.9-20.1c-2.8-1.6-2.4-4.4,0.8-6.3l34.5-19.9c3.3-1.9,8.2-2,10.9-0.5l34.9,20.1
				c2.8,1.6,2.4,4.4-0.8,6.3l-34.5,19.9C1048.1,1135.6,1043.3,1135.7,1040.5,1134.1z"/>
			<path fill="#173D7A" d="M1094.2,1165.2l-34.9-20.1c-2.8-1.6-2.4-4.4,0.8-6.3l34.5-19.9c3.3-1.9,8.2-2,10.9-0.5l34.9,20.1
				c2.8,1.6,2.4,4.4-0.8,6.3l-34.5,19.9C1102,1166.6,1097.1,1166.9,1094.2,1165.2z"/>
			<path fill="#173D7A" d="M1148,1196.3l-34.9-20.1c-2.8-1.6-2.4-4.4,0.8-6.3l34.5-19.9c3.3-1.9,8.2-2,10.9-0.5l34.9,20.1
				c2.8,1.6,2.4,4.4-0.8,6.3l-34.5,19.9C1155.7,1197.7,1150.8,1197.8,1148,1196.3z"/>
			<path fill="#173D7A" d="M1201.8,1227.3l-34.9-20.1c-2.8-1.6-2.4-4.4,0.8-6.3l34.5-19.9c3.3-1.9,8.2-2,10.9-0.5l34.9,20.1
				c2.8,1.6,2.4,4.4-0.8,6.3l-34.5,19.9C1209.5,1228.7,1204.6,1229,1201.8,1227.3z"/>
			<path fill="#173D7A" d="M1255.7,1258.4l-34.9-20.1c-2.8-1.6-2.4-4.4,0.8-6.3l34.5-19.9c3.3-1.9,8.2-2,10.9-0.5l34.9,20.1
				c2.8,1.6,2.4,4.4-0.8,6.3l-34.5,19.9C1263.3,1259.8,1258.4,1260.1,1255.7,1258.4z"/>
			<path fill="#173D7A" d="M1309.4,1289.4l-34.9-20.1c-2.8-1.6-2.4-4.4,0.8-6.3l34.5-19.9c3.3-1.9,8.2-2,10.9-0.5l34.9,20.1
				c2.8,1.6,2.4,4.4-0.8,6.3l-34.5,19.9C1317.1,1290.9,1312.2,1291.1,1309.4,1289.4z"/>
			<path fill="#173D7A" d="M1363.2,1320.5l-34.9-20.1c-2.8-1.6-2.4-4.4,0.8-6.3l34.5-19.9c3.3-1.9,8.2-2,10.9-0.5l34.9,20.1
				c2.8,1.6,2.4,4.4-0.8,6.3l-34.5,19.9C1370.8,1321.9,1366.1,1322.2,1363.2,1320.5z"/>
			<path fill="#173D7A" d="M1417,1351.5l-34.9-20.1c-2.8-1.6-2.4-4.4,0.8-6.3l34.5-19.9c3.3-1.9,8.2-2,10.9-0.5l34.9,20.1
				c2.8,1.6,2.4,4.4-0.8,6.3l-34.5,19.9C1424.7,1353,1419.8,1353.2,1417,1351.5z"/>
			<path fill="#173D7A" d="M1470.8,1382.7l-34.9-20.1c-2.8-1.6-2.4-4.4,0.8-6.3l34.5-19.9c3.3-1.9,8.2-2,10.9-0.5l34.9,20.1
				c2.8,1.6,2.4,4.4-0.8,6.3l-34.5,19.9C1478.5,1384,1473.6,1384.3,1470.8,1382.7z"/>
			<path fill="#173D7A" d="M732.9,1138l-102.6-59.2c-2.8-1.6-2.4-4.4,0.8-6.3l34.5-19.9c3.3-1.9,8.2-2,10.9-0.5l102.6,59.2
				c2.8,1.6,2.4,4.4-0.8,6.3l-34.5,19.9C740.5,1139.4,735.6,1139.6,732.9,1138z"/>
			<path fill="#173D7A" d="M1393.8,1519.5l-102.6-59.2c-2.8-1.6-2.4-4.4,0.8-6.3l34.5-19.9c3.3-1.9,8.2-2,10.9-0.5l102.6,59.2
				c2.8,1.6,2.4,4.4-0.8,6.3l-34.5,19.9C1401.5,1521,1396.6,1521.2,1393.8,1519.5z"/>
			<path fill="#173D7A" d="M1178.6,1464l-34.9-20.1c-2.8-1.6-2.4-4.4,0.8-6.3l41.2-23.7c3.3-1.9,8.2-2,10.9-0.5l34.9,20.1
				c2.8,1.6,2.4,4.4-0.8,6.3l-41.2,23.7C1186.3,1465.3,1181.4,1465.6,1178.6,1464z"/>
			<path fill="#173D7A" d="M787.9,1238.4l-55.7-32.1c-2.8-1.6-2.4-4.4,0.8-6.3l41.2-23.7c3.3-1.9,8.2-2,10.9-0.5l55.7,32.1
				c2.8,1.6,2.4,4.4-0.8,6.3l-41.2,23.7C795.6,1239.9,790.7,1240,787.9,1238.4z"/>
			<path fill="#173D7A" d="M1126.8,1434.1l-55.7-32.1c-2.8-1.6-2.4-4.4,0.8-6.3l41.2-23.7c3.3-1.9,8.2-2,10.9-0.5l55.7,32.1
				c2.8,1.6,2.4,4.4-0.8,6.3l-41.2,23.7C1134.5,1435.5,1129.6,1435.7,1126.8,1434.1z"/>
			<path fill="#173D7A" d="M865.6,1283.3l-55.7-32.1c-2.8-1.6-2.4-4.4,0.8-6.3l41.2-23.7c3.3-1.9,8.2-2,10.9-0.5l55.7,32.1
				c2.8,1.6,2.4,4.4-0.8,6.3l-41.2,23.7C873.2,1284.7,868.4,1284.8,865.6,1283.3z"/>
			<path fill="#173D7A" d="M863.1,1220.8l242.3,139.9c3,1.8,3,4.5,0,6.3l-41.9,24.2c-3,1.8-7.9,1.8-10.9,0l-242.3-139.9
				L863.1,1220.8z"/>
			<path fill="#173D7A" d="M1328.9,1520.3l38.8,22.5c2.3,1.4,2,3.6-0.6,5.1l-16.8,9.7c-2.6,1.5-6.6,1.8-8.9,0.4l-38.8-22.5
				c-2.3-1.4-2-3.6,0.6-5.1l16.8-9.7C1322.7,1519.2,1326.7,1518.9,1328.9,1520.3z"/>
			<path fill="#173D7A" d="M1274.7,1488.9l38.8,22.5c2.3,1.4,2,3.6-0.6,5.1l-16.8,9.7c-2.6,1.5-6.6,1.8-8.9,0.4l-38.8-22.5
				c-2.3-1.4-2-3.6,0.6-5.1l16.8-9.7C1268.5,1487.8,1272.5,1487.7,1274.7,1488.9z"/>
			<path fill="#173D7A" d="M1220.9,1457.9l38.8,22.5c2.3,1.4,2,3.6-0.6,5.1l-16.8,9.7c-2.6,1.5-6.6,1.8-8.9,0.4l-38.8-22.5
				c-2.3-1.4-2-3.6,0.6-5.1l16.8-9.7C1214.6,1456.8,1218.6,1456.5,1220.9,1457.9z"/>
			<path fill="#173D7A" d="M1304.5,1471.9l38.8,22.5c2.3,1.4,2,3.6-0.6,5.1l-16.8,9.7c-2.6,1.5-6.6,1.8-8.9,0.4l-38.8-22.5
				c-2.3-1.4-2-3.6,0.6-5.1l16.8-9.7C1298.2,1470.6,1302.2,1470.5,1304.5,1471.9z"/>
		</g>
	</g>
</g>
<g>
	<path opacity="0.4" fill="#D4ECFF" enable-background="new    " d="M1225.2,743.8L969.7,596.4c-6.3-3.6-11.4-13.3-11.4-21.7v-201
		c0-8.4,5.1-12.2,11.4-8.5l255.4,147.4c6.3,3.6,11.4,13.3,11.4,21.7v201C1236.5,743.5,1231.4,747.4,1225.2,743.8z"/>
	<g>
		<path fill="#B2D3EA" d="M1047,608l-1.8-1c-6.6-3.9-12-14.2-12-23.1v-95.7c0-8.9,5.4-12.9,12-9.2l1.8,1c6.6,3.9,12,14.2,12,23.1
			v95.7C1059.1,607.8,1053.7,611.9,1047,608z"/>
		<path fill="#B2D3EA" d="M1098.3,637.8l-1.8-1c-6.6-3.9-12-14.2-12-23.1v-56.1c0-8.9,5.4-12.9,12-9.2l1.8,1
			c6.6,3.9,12,14.2,12,23.1v56.1C1110.4,637.5,1105,641.5,1098.3,637.8z"/>
		<path fill="#396CAA" d="M1149.8,667.4l-1.8-1c-6.6-3.9-12-14.2-12-23.1V509.9c0-8.9,5.4-12.9,12-9.2l1.8,1
			c6.6,3.9,12,14.2,12,23.1v133.4C1161.8,667.1,1156.4,671.3,1149.8,667.4z"/>
	</g>
</g>
<g>
	<path fill="#B2D3EA" d="M1468.7,689.7L1310,598.1c-5.9-3.4-10.7-12.5-10.7-20.3l0,0c0-7.9,4.8-11.4,10.7-8l158.7,91.6
		c5.9,3.4,10.7,12.5,10.7,20.3l0,0C1479.4,689.6,1474.5,693.1,1468.7,689.7z"/>
	<path fill="#B2D3EA" d="M1366.6,686.6L1310,654c-5.9-3.4-10.7-12.5-10.7-20.3l0,0c0-7.9,4.8-11.4,10.7-8l56.6,32.6
		c5.9,3.4,10.7,12.5,10.7,20.3l0,0C1377.2,686.5,1372.5,690,1366.6,686.6z"/>
	<path fill="#396CAA" d="M1461.5,741.4l-56.6-32.6c-5.9-3.4-10.7-12.5-10.7-20.3l0,0c0-7.9,4.8-11.4,10.7-8l56.6,32.6
		c5.9,3.4,10.7,12.5,10.7,20.3l0,0C1472.2,741.3,1467.4,744.9,1461.5,741.4z"/>
	<path fill="#B2D3EA" d="M1581,810.5l-80.9-46.9c-5.9-3.4-10.7-12.5-10.7-20.3l0,0c0-7.9,4.8-11.4,10.7-8l80.9,46.9
		c5.9,3.4,10.7,12.5,10.7,20.3l0,0C1591.5,810.4,1586.8,814,1581,810.5z"/>
	<path fill="#B2D3EA" d="M1508.2,824.2L1310,709.8c-5.9-3.4-10.7-12.5-10.7-20.3l0,0c0-7.9,4.8-11.4,10.7-8l198.2,114.4
		c5.9,3.4,10.7,12.5,10.7,20.3l0,0C1518.9,824,1514.1,827.6,1508.2,824.2z"/>
	<path fill="#396CAA" d="M1591.5,927.5l-281.7-162c-5.9-3.4-10.7-12.5-10.7-20.3l0,0c0-7.9,4.8-11.4,10.7-8l281.7,162
		c5.9,3.4,10.7,12.5,10.7,20.3l0,0C1602.2,927.3,1597.4,930.9,1591.5,927.5z"/>
	<path fill="#B2D3EA" d="M1615.4,774.3l-103-59.2c-5.9-3.4-10.7-12.5-10.7-20.3l0,0c0-7.9,4.8-11.4,10.7-8l103,59.2
		c5.9,3.4,10.7,12.5,10.7,20.3l0,0C1626,774,1621.3,777.7,1615.4,774.3z"/>
</g>
<g>
	<polygon fill="#396CAA" points="1007.9,778.5 957.7,749.6 957.7,807.4 1007.9,836.4 	"/>
	<polygon fill="#D4ECFF" points="1086.9,776.4 1036.9,747.4 1036.9,853.1 1086.9,882 	"/>
	<polygon fill="#D4ECFF" points="1166.1,852.3 1116,823.3 1116,898.9 1166.1,927.7 	"/>
	<polygon fill="#D4ECFF" points="1245.2,876.2 1195.2,847.3 1195.2,944.5 1245.2,973.4 	"/>
	<polygon fill="#396CAA" points="1324.4,927.7 1274.2,898.9 1274.2,990.2 1324.4,1019.1 	"/>
	<polygon fill="#173D7A" points="1403.5,950.4 1353.4,921.4 1353.4,1035.9 1403.5,1064.9 	"/>
	<polygon fill="#D4ECFF" points="1482.6,983.9 1432.6,954.9 1432.6,1081.5 1482.6,1110.5 	"/>
	<polygon fill="#396CAA" points="1561.8,998.7 1511.7,969.7 1511.7,1127.2 1561.8,1156.2 	"/>
</g>
</svg>
