<?xml version="1.0" encoding="utf-8"?>
<!-- Generator: Adobe Illustrator 17.1.0, SVG Export Plug-In . SVG Version: 6.00 Build 0)  -->
<!DOCTYPE svg PUBLIC "-//W3C//DTD SVG 1.1//EN" "http://www.w3.org/Graphics/SVG/1.1/DTD/svg11.dtd">
<svg version="1.1" id="Layer_1" xmlns="http://www.w3.org/2000/svg" xmlns:xlink="http://www.w3.org/1999/xlink" x="0px" y="0px"
	 viewBox="0 0 337.4 255.7" enable-background="new 0 0 337.4 255.7" xml:space="preserve">
<g>
	<linearGradient id="SVGID_1_" gradientUnits="userSpaceOnUse" x1="0" y1="135.9541" x2="340.5549" y2="135.9541">
		<stop  offset="0" style="stop-color:#1FC9FD"/>
		<stop  offset="1" style="stop-color:#FB0061"/>
	</linearGradient>
	<path fill="url(#SVGID_1_)" d="M118.6,166.8c0.7,0.3,1.7-0.1,2.5-0.2c-0.5-0.6-1-1.2-1.5-1.8c-0.2-0.2-0.5-0.2-0.7-0.3
		c-17.5-7.5-27.6-25.1-25.2-43.9c0.5-3.6,1.7-7,2.5-10.5c0.2,0.1,0.5,0.1,0.7,0.2c0.3,0.7,0.7,1.4,1.1,2.3c2.4-2.8,0.2-5-0.4-7.6
		c-2.2,1.3-5.5,0.8-5.8,4.6c0.8-0.2,1.5-0.4,2.6-0.6c-2.5,6.4-3.6,12.5-3.4,18.9C91.3,144.5,103.2,161.4,118.6,166.8z"/>
	<linearGradient id="SVGID_2_" gradientUnits="userSpaceOnUse" x1="0" y1="116.2551" x2="340.5549" y2="116.2551">
		<stop  offset="0" style="stop-color:#1FC9FD"/>
		<stop  offset="1" style="stop-color:#FB0061"/>
	</linearGradient>
	<path fill="url(#SVGID_2_)" d="M150.3,87.4c15.6,6.8,24.3,18.7,26.2,35.6c0.7,6-0.9,15.1-3.4,18.9c-0.4-0.8-0.7-1.5-1.1-2.4
		c-2.5,2.7-0.3,5,0.3,7.6c2.3-1.4,5.5-0.9,5.9-4.6c-0.8,0.2-1.5,0.4-2.4,0.5c0.8-3.2,1.9-6.1,2.3-9.1c0.5-3.1,0.7-6.2,0.7-9.4
		c-0.2-16.9-11.7-33.3-27.4-39.1c-0.8-0.3-1.8,0.1-2.7,0.1C149.2,86.2,149.6,87.1,150.3,87.4z"/>
	<linearGradient id="SVGID_3_" gradientUnits="userSpaceOnUse" x1="0" y1="178.1659" x2="340.5549" y2="178.1659">
		<stop  offset="0" style="stop-color:#1FC9FD"/>
		<stop  offset="1" style="stop-color:#FB0061"/>
	</linearGradient>
	<path fill="url(#SVGID_3_)" d="M67.8,158.3c-1-0.4-2.1-0.9-3.2-1.4c0.9-0.7,1.5-1.2,2.1-1.8c-3.2-1.8-4.9,0.7-7.1,1.9
		c2.5,4.7,2.5,4.7,5.4,4.8c-0.3-0.7-0.7-1.4-1.1-2.4c0.7,0.2,1,0.2,1.3,0.3c15.5,5.7,24.1,22.6,19.6,38.8c-0.3,1-0.3,2-0.4,3
		c0.3,0.1,0.7,0.2,1,0.4c0.5-0.9,1.2-1.7,1.5-2.7C91.8,182.8,83.5,165.1,67.8,158.3z"/>
	<linearGradient id="SVGID_4_" gradientUnits="userSpaceOnUse" x1="6.366463e-012" y1="84.8838" x2="340.5549" y2="84.8838">
		<stop  offset="0" style="stop-color:#1FC9FD"/>
		<stop  offset="1" style="stop-color:#FB0061"/>
	</linearGradient>
	<path fill="url(#SVGID_4_)" d="M221.1,116.1c3.3,3,6.9,5.6,10.4,8.4c-0.7,0.3-1.3,0.6-2.1,0.9c2.5,2.6,4.9,0.5,7.5,0.2
		c-1.1-2.4-0.6-5.5-4.1-6.3c0.1,1,0.3,1.8,0.4,3c-9.8-5.7-17.1-13.3-21.8-23.2c-8.4-18-7.4-35.6,2.8-52.7c0.5-0.8,0.7-1.8,1-2.7
		c-0.3-0.2-0.6-0.4-0.9-0.5c-0.7,0.6-1.5,1.2-1.9,1.9C198,66.9,201.8,98.4,221.1,116.1z"/>
	<linearGradient id="SVGID_5_" gradientUnits="userSpaceOnUse" x1="0" y1="127.8611" x2="340.5549" y2="127.8611">
		<stop  offset="0" style="stop-color:#1FC9FD"/>
		<stop  offset="1" style="stop-color:#FB0061"/>
	</linearGradient>
	<path fill="url(#SVGID_5_)" d="M107.7,227.1H85.4c15.6-16.9,18.1-24.4,16.1-48.7c21.7,12.4,43.8,13.6,65.4,0.5
		c21.6-13.1,30.9-33.3,29.8-58.4c21.5,27.4,49.3,39.3,83.3,30.3c34-9.1,52.2-33.2,57.4-67.7v0.7c0,0,0,0,0-0.1l0-17.4
		c0,1.4,0,2.9,0,4.3C333.5,29.2,297.8-2.2,256,0.1c-22.4,1.3-41,10.8-55.2,28.2c-14.3,17.4-19.4,37.6-16.6,60.1
		c-20.7-25.9-53.4-29.5-75.1-18.3c-31.4,16.1-41,42.5-33.3,76C49,133.5,24.4,146.5,13.9,162c-7,10.4-9.8,21.7-8.3,34.1
		c1.5,12.3,7.3,22.5,17.1,31.2H0v28.5h107.7V227.1z M260.2,8.6c37.5,0,68.3,30.8,68.2,68.2c-0.1,37.6-30.7,68-68.3,68
		c-37.7,0-68-30.6-68-68.8C192.2,39.3,223.1,8.6,260.2,8.6z M135.1,72.9c29.2,0.1,53.1,24.2,53,53.3c-0.1,29.3-24.1,53.1-53.5,53
		c-29.1-0.1-52.9-24.1-52.8-53.4C81.9,96.7,106,72.8,135.1,72.9z M53.8,229.7C31.6,229.6,14,211.6,14,189.3
		c0-21.6,18.1-39.5,39.9-39.5c22,0,39.9,18.1,39.9,40.1C93.8,211.8,75.7,229.9,53.8,229.7z"/>
	<linearGradient id="SVGID_6_" gradientUnits="userSpaceOnUse" x1="-1.546141e-011" y1="65.5184" x2="340.5549" y2="65.5184">
		<stop  offset="0" style="stop-color:#1FC9FD"/>
		<stop  offset="1" style="stop-color:#FB0061"/>
	</linearGradient>
	<path fill="url(#SVGID_6_)" d="M284.2,27.8c0.5,1.8,1.4,2.5,3.3,3c-0.1-0.6-0.2-1.3-0.3-2.1c0-0.3-0.1-0.6-0.1-0.9
		c17.4,10.9,26.7,26.1,27.5,46.2c0.4,10.8-2.5,20.8-8.2,30c-0.5,0.9-0.6,2.1-0.9,3.1c0.4,0.1,0.8,0.2,1.2,0.4
		c5.8-7.7,9.1-16.6,9.9-26.2c2-23.9-7.7-42.2-27.9-55.3c0.9-0.4,1.5-0.7,2.2-1c-2.4-2.8-4.7-0.4-7.1-0.3c0.1,0.8,0.1,1.5,0.2,2.1
		C284,27.2,284.1,27.5,284.2,27.8z"/>
</g>
</svg>
