<?xml version="1.0" encoding="utf-8"?>
<!-- Generator: Adobe Illustrator 17.1.0, SVG Export Plug-In . SVG Version: 6.00 Build 0)  -->
<!DOCTYPE svg PUBLIC "-//W3C//DTD SVG 1.1//EN" "http://www.w3.org/Graphics/SVG/1.1/DTD/svg11.dtd">
<svg version="1.1" id="Capa_1" xmlns="http://www.w3.org/2000/svg" xmlns:xlink="http://www.w3.org/1999/xlink" x="0px" y="0px"
	 viewBox="680 0 560 560" enable-background="new 680 0 560 560" xml:space="preserve">
<g>
	
		<linearGradient id="SVGID_1_" gradientUnits="userSpaceOnUse" x1="-1.439030e-007" y1="254" x2="612" y2="254" gradientTransform="matrix(0.915 0 0 -0.915 680 512.4183)">
		<stop  offset="0" style="stop-color:#1FC9FD"/>
		<stop  offset="1" style="stop-color:#FB0061"/>
	</linearGradient>
	<path fill="url(#SVGID_1_)" d="M960,0C805.4,0,680,125.4,680,280s125.4,280,280,280s280-125.4,280-280S1114.6,0,960,0z M960,534.6
		c-140.5,0-254.6-114-254.6-254.6S819.5,25.4,960,25.4s254.6,114,254.6,254.6S1100.5,534.6,960,534.6z"/>
	
		<linearGradient id="SVGID_2_" gradientUnits="userSpaceOnUse" x1="-1.439021e-007" y1="254" x2="612" y2="254" gradientTransform="matrix(0.915 0 0 -0.915 680 512.4183)">
		<stop  offset="0" style="stop-color:#1FC9FD"/>
		<stop  offset="1" style="stop-color:#FB0061"/>
	</linearGradient>
	<path fill="url(#SVGID_2_)" d="M1039.6,106.4H880.4c-51.8,0-94,42.2-94,94v159.2c0,51.8,42.2,94,94,94h159.2c51.8,0,94-42.2,94-94
		V200.4C1133.6,148.6,1091.4,106.4,1039.6,106.4z M1113.3,359.6c0,40.6-33,73.7-73.7,73.7H880.4c-40.6,0-73.7-33-73.7-73.7V200.4
		c0-40.6,33-73.7,73.7-73.7h159.2c40.6,0,73.7,33,73.7,73.7V359.6z"/>
	
		<linearGradient id="SVGID_3_" gradientUnits="userSpaceOnUse" x1="-1.439021e-007" y1="254" x2="612" y2="254" gradientTransform="matrix(0.915 0 0 -0.915 680 512.4183)">
		<stop  offset="0" style="stop-color:#1FC9FD"/>
		<stop  offset="1" style="stop-color:#FB0061"/>
	</linearGradient>
	<path fill="url(#SVGID_3_)" d="M960,185.1c-52.3,0-94.9,42.5-94.9,94.9s42.5,94.9,94.9,94.9c52.3,0,94.9-42.5,94.9-94.9
		S1012.3,185.1,960,185.1z M960,354.6c-41.1,0-74.6-33.5-74.6-74.6s33.5-74.6,74.6-74.6s74.6,33.5,74.6,74.6S1001.1,354.6,960,354.6
		z"/>
	
		<linearGradient id="SVGID_4_" gradientUnits="userSpaceOnUse" x1="-1.439021e-007" y1="363.9" x2="612" y2="363.9" gradientTransform="matrix(0.915 0 0 -0.915 680 512.4183)">
		<stop  offset="0" style="stop-color:#1FC9FD"/>
		<stop  offset="1" style="stop-color:#FB0061"/>
	</linearGradient>
	<path fill="url(#SVGID_4_)" d="M1057.2,151.3c-15.5,0-28.1,12.6-28.1,28.1s12.6,28.1,28.1,28.1c15.5,0,28.1-12.6,28.1-28.1
		S1072.6,151.3,1057.2,151.3z M1057.2,187.1c-4.2,0-7.7-3.5-7.7-7.7c0-4.2,3.5-7.7,7.7-7.7c4.2,0,7.7,3.5,7.7,7.7
		S1061.5,187.1,1057.2,187.1z"/>
</g>
</svg>
