<?xml version="1.0" encoding="utf-8"?>
<!-- Generator: Adobe Illustrator 17.1.0, SVG Export Plug-In . SVG Version: 6.00 Build 0)  -->
<!DOCTYPE svg PUBLIC "-//W3C//DTD SVG 1.1//EN" "http://www.w3.org/Graphics/SVG/1.1/DTD/svg11.dtd">
<svg version="1.1" id="Capa_1" xmlns="http://www.w3.org/2000/svg" xmlns:xlink="http://www.w3.org/1999/xlink" x="0px" y="0px"
	 viewBox="680 0 559.9 560" enable-background="new 680 0 559.9 560" xml:space="preserve">
<g>
	
		<linearGradient id="SVGID_1_" gradientUnits="userSpaceOnUse" x1="4.996019e-002" y1="254" x2="611.95" y2="254" gradientTransform="matrix(0.915 0 0 -0.915 680 512.4183)">
		<stop  offset="0" style="stop-color:#1FC9FD"/>
		<stop  offset="1" style="stop-color:#FB0061"/>
	</linearGradient>
	<path fill="url(#SVGID_1_)" d="M960,0C805.4,0,680,125.4,680,280c0,153.5,123.4,278,276.3,280h7.2c153-1.9,276.3-126.5,276.3-280
		C1240,125.4,1114.7,0,960,0z M960,534.6c-140.5,0-254.6-114-254.6-254.6S819.5,25.4,960,25.4s254.6,114,254.6,254.6
		S1100.6,534.6,960,534.6z"/>
	
		<linearGradient id="SVGID_2_" gradientUnits="userSpaceOnUse" x1="4.996019e-002" y1="258.3887" x2="612.05" y2="258.3887" gradientTransform="matrix(0.915 0 0 -0.915 680 512.4183)">
		<stop  offset="0" style="stop-color:#1FC9FD"/>
		<stop  offset="1" style="stop-color:#FB0061"/>
	</linearGradient>
	<path fill="url(#SVGID_2_)" d="M1021.1,262.2l-87.6-47.9c-5-2.7-11-2.7-15.9,0.3s-7.9,8.1-7.9,13.8v95c0,5.7,2.9,10.9,7.9,13.8
		c2.6,1.6,5.4,2.3,8.2,2.3c2.6,0,5.2-0.6,7.6-1.9l87.6-47c5.2-2.8,8.4-8.2,8.5-14.1C1029.4,270.6,1026.2,265.1,1021.1,262.2z
		 M932.9,311.5v-71l65.4,35.8L932.9,311.5z"/>
	
		<linearGradient id="SVGID_3_" gradientUnits="userSpaceOnUse" x1="4.996019e-002" y1="254.05" x2="612.05" y2="254.05" gradientTransform="matrix(0.915 0 0 -0.915 680 512.4183)">
		<stop  offset="0" style="stop-color:#1FC9FD"/>
		<stop  offset="1" style="stop-color:#FB0061"/>
	</linearGradient>
	<path fill="url(#SVGID_3_)" d="M1137.8,154.5c-15.9-16.9-34-19-42.7-20c-0.7-0.1-1.4-0.2-2-0.3l-0.7-0.1
		c-52.4-3.8-131.5-4.3-132.3-4.3H960h-0.1c-0.8,0-79.9,0.5-132.8,4.3l-0.7,0.1c-0.5,0.1-1.2,0.2-1.8,0.2c-8.6,1-26.4,3-42.5,20.7
		c-13.2,14.3-16.9,42-17.3,45.2v0.4c-0.1,1.4-2.9,32.9-2.9,64.7V295c0,31.8,2.8,63.3,2.9,64.7v0.2c0.4,3.1,3.7,31,17.4,45.4
		c15,16.4,33.9,18.6,44.1,19.8c1.6,0.2,3,0.4,3.9,0.5l0.9,0.1c30.3,2.8,125.1,4.3,129.1,4.4h0.1h0.1c0.8,0,79.9-0.5,132.3-4.3
		l0.7-0.1c0.6-0.1,1.4-0.2,2.2-0.3c8.5-0.9,26.4-2.7,42.1-20.1c13.2-14.3,16.9-42,17.3-45.2v-0.4c0.1-1.4,2.9-32.9,2.9-64.7v-29.6
		c0.2-31.7-2.6-63.2-2.7-64.6v-0.2C1154.9,197.4,1151.7,169,1137.8,154.5z M1135,295.1L1135,295.1c0,29.4-2.6,59.6-2.8,62.4
		c-1,7.7-5,25.3-11.4,32.2c-9.9,10.9-20,11.9-27.5,12.7c-0.9,0.1-1.7,0.2-2.5,0.3c-50.7,3.7-126.8,4.2-130.3,4.2
		c-3.9-0.1-97.4-1.5-126.7-4.2c-1.5-0.3-3.1-0.5-4.8-0.6c-8.7-1-20.6-2.4-29.7-12.4l-0.2-0.3c-6.3-6.6-10.2-23-11.2-31.8
		c-0.2-2.1-2.8-32.7-2.8-62.5v-29.6c0-29.4,2.6-59.6,2.8-62.4c1.2-9,5.2-25.5,11.4-32.2c10.2-11.2,20.9-12.4,28-13.3
		c0.6-0.1,1.3-0.2,1.9-0.2c51.4-3.7,128.1-4.2,130.8-4.2s79.4,0.5,130.4,4.2c0.6,0.1,1.3,0.2,2,0.3c7.3,0.8,18.3,2.1,28.5,12.9
		l0.1,0.1c6.3,6.6,10.2,23.2,11.2,32.3c0.2,2,2.8,32.7,2.8,62.5V295.1L1135,295.1z"/>
</g>
</svg>
