<?xml version="1.0" encoding="utf-8"?>
<!-- Generator: Adobe Illustrator 17.1.0, SVG Export Plug-In . SVG Version: 6.00 Build 0)  -->
<!DOCTYPE svg PUBLIC "-//W3C//DTD SVG 1.1//EN" "http://www.w3.org/Graphics/SVG/1.1/DTD/svg11.dtd">
<svg version="1.1" id="Layer_1" xmlns="http://www.w3.org/2000/svg" xmlns:xlink="http://www.w3.org/1999/xlink" x="0px" y="0px"
	 viewBox="0 0 480 480" enable-background="new 0 0 480 480" xml:space="preserve">
<linearGradient id="SVGID_1_" gradientUnits="userSpaceOnUse" x1="0" y1="421.8555" x2="480" y2="421.8555">
	<stop  offset="0" style="stop-color:#1FC9FD"/>
	<stop  offset="1" style="stop-color:#FB0061"/>
</linearGradient>
<polygon fill="url(#SVGID_1_)" points="343,411.7 331.7,423 360,451.3 407.6,403.7 396.3,392.4 360,428.7 "/>
<linearGradient id="SVGID_2_" gradientUnits="userSpaceOnUse" x1="0" y1="312" x2="480" y2="312">
	<stop  offset="0" style="stop-color:#1FC9FD"/>
	<stop  offset="1" style="stop-color:#FB0061"/>
</linearGradient>
<rect x="160" y="304" fill="url(#SVGID_2_)" width="160" height="16"/>
<linearGradient id="SVGID_3_" gradientUnits="userSpaceOnUse" x1="0" y1="344" x2="480" y2="344">
	<stop  offset="0" style="stop-color:#1FC9FD"/>
	<stop  offset="1" style="stop-color:#FB0061"/>
</linearGradient>
<rect x="160" y="336" fill="url(#SVGID_3_)" width="160" height="16"/>
<linearGradient id="SVGID_4_" gradientUnits="userSpaceOnUse" x1="0" y1="376" x2="480" y2="376">
	<stop  offset="0" style="stop-color:#1FC9FD"/>
	<stop  offset="1" style="stop-color:#FB0061"/>
</linearGradient>
<rect x="160" y="368" fill="url(#SVGID_4_)" width="136" height="16"/>
<linearGradient id="SVGID_5_" gradientUnits="userSpaceOnUse" x1="0" y1="408" x2="480" y2="408">
	<stop  offset="0" style="stop-color:#1FC9FD"/>
	<stop  offset="1" style="stop-color:#FB0061"/>
</linearGradient>
<rect x="160" y="400" fill="url(#SVGID_5_)" width="136" height="16"/>
<linearGradient id="SVGID_6_" gradientUnits="userSpaceOnUse" x1="0" y1="192" x2="480" y2="192">
	<stop  offset="0" style="stop-color:#1FC9FD"/>
	<stop  offset="1" style="stop-color:#FB0061"/>
</linearGradient>
<path fill="url(#SVGID_6_)" d="M352,168H128c-13.3,0-24,10.7-24,24s10.7,24,24,24h224c13.3,0,24-10.7,24-24S365.3,168,352,168z
	 M352,200H128c-4.4,0-8-3.6-8-8s3.6-8,8-8h224c4.4,0,8,3.6,8,8S356.4,200,352,200z"/>
<linearGradient id="SVGID_7_" gradientUnits="userSpaceOnUse" x1="0" y1="239.9905" x2="480" y2="239.9905">
	<stop  offset="0" style="stop-color:#1FC9FD"/>
	<stop  offset="1" style="stop-color:#FB0061"/>
</linearGradient>
<path fill="url(#SVGID_7_)" d="M440,136h-40V96c0-13.3-10.7-24-24-24V0H104v72c-13.3,0-24,10.7-24,24v40H40c-22.1,0-40,17.9-40,40
	v112c0,22.1,17.9,40,40,40h64v120h208.7c15,26,46.1,38.1,74.8,29s47.1-36.9,44.3-66.8s-25.9-53.9-55.7-57.6V328h64
	c22.1,0,40-17.9,40-40V176C480,153.9,462.1,136,440,136z M376,88c4.4,0,8,3.6,8,8v40h-8V88z M120,16h240v120H120V16z M96,96
	c0-4.4,3.6-8,8-8v48h-8V96z M306.1,432H120V272h240v80.6c-18.3,2.2-34.7,12.2-45,27.5S301.4,414.2,306.1,432z M416,416
	c0,26.5-21.5,48-48,48s-48-21.5-48-48s21.5-48,48-48C394.5,368,416,389.5,416,416z M384,312h-8v-56H104v56h-7.8L96,256
	c0-4.4,3.6-8,8-8h272c4.4,0,8,3.6,8,8V312z M464,288c0,13.3-10.7,24-24,24h-40v-56c0-13.3-10.7-24-24-24H104c-6.4,0-12.5,2.5-17,7
	c-4.5,4.5-7,10.6-7,17l0.2,56H40c-13.3,0-24-10.7-24-24V176c0-13.3,10.7-24,24-24h400c13.3,0,24,10.7,24,24V288z"/>
<linearGradient id="SVGID_8_" gradientUnits="userSpaceOnUse" x1="0" y1="239.9905" x2="480" y2="239.9905">
	<stop  offset="0" style="stop-color:#1FC9FD"/>
	<stop  offset="1" style="stop-color:#FB0061"/>
</linearGradient>
<path fill="url(#SVGID_8_)" d="M440,136h-40V96c0-13.3-10.7-24-24-24V0H104v72c-13.3,0-24,10.7-24,24v40H40c-22.1,0-40,17.9-40,40
	v112c0,22.1,17.9,40,40,40h64v120h208.7c15,26,46.1,38.1,74.8,29s47.1-36.9,44.3-66.8s-25.9-53.9-55.7-57.6V328h64
	c22.1,0,40-17.9,40-40V176C480,153.9,462.1,136,440,136z M376,88c4.4,0,8,3.6,8,8v40h-8V88z M120,16h240v120H120V16z M96,96
	c0-4.4,3.6-8,8-8v48h-8V96z M306.1,432H120V272h240v80.6c-18.3,2.2-34.7,12.2-45,27.5S301.4,414.2,306.1,432z M416,416
	c0,26.5-21.5,48-48,48s-48-21.5-48-48s21.5-48,48-48C394.5,368,416,389.5,416,416z M384,312h-8v-56H104v56h-7.8L96,256
	c0-4.4,3.6-8,8-8h272c4.4,0,8,3.6,8,8V312z M464,288c0,13.3-10.7,24-24,24h-40v-56c0-13.3-10.7-24-24-24H104c-6.4,0-12.5,2.5-17,7
	c-4.5,4.5-7,10.6-7,17l0.2,56H40c-13.3,0-24-10.7-24-24V176c0-13.3,10.7-24,24-24h400c13.3,0,24,10.7,24,24V288z"/>
<rect x="400" y="184" width="16" height="16"/>
<linearGradient id="SVGID_9_" gradientUnits="userSpaceOnUse" x1="0" y1="192" x2="480" y2="192">
	<stop  offset="0" style="stop-color:#1FC9FD"/>
	<stop  offset="1" style="stop-color:#FB0061"/>
</linearGradient>
<rect x="400" y="184" fill="url(#SVGID_9_)" width="16" height="16"/>
<rect x="432" y="184" width="16" height="16"/>
<linearGradient id="SVGID_10_" gradientUnits="userSpaceOnUse" x1="0" y1="192" x2="480" y2="192">
	<stop  offset="0" style="stop-color:#1FC9FD"/>
	<stop  offset="1" style="stop-color:#FB0061"/>
</linearGradient>
<rect x="432" y="184" fill="url(#SVGID_10_)" width="16" height="16"/>
</svg>
