<?xml version="1.0" encoding="utf-8"?>
<!-- Generator: Adobe Illustrator 17.1.0, SVG Export Plug-In . SVG Version: 6.00 Build 0)  -->
<!DOCTYPE svg PUBLIC "-//W3C//DTD SVG 1.1//EN" "http://www.w3.org/Graphics/SVG/1.1/DTD/svg11.dtd">
<svg version="1.1" id="Layer_1" xmlns="http://www.w3.org/2000/svg" xmlns:xlink="http://www.w3.org/1999/xlink" x="0px" y="0px"
	 viewBox="680 30.4 560 499.2" enable-background="new 680 30.4 560 499.2" xml:space="preserve">
<g>
	<linearGradient id="SVGID_1_" gradientUnits="userSpaceOnUse" x1="679.9994" y1="142.1324" x2="1240.0004" y2="142.1324">
		<stop  offset="0" style="stop-color:#1FC9FD"/>
		<stop  offset="1" style="stop-color:#FB0061"/>
	</linearGradient>
	<path fill="url(#SVGID_1_)" d="M686,227.6c-6.5,4.7-7.9,13.9-3.1,20.3c4.7,6.5,13.9,7.9,20.3,3.1L960,63L1216.9,251
		c2.6,1.9,5.6,2.8,8.6,2.8c4.5,0,8.9-2.1,11.8-6c4.7-6.5,3.3-15.6-3.1-20.3L968.6,33.2c-2.6-1.9-5.6-2.8-8.6-2.8c-3,0-6,0.9-8.6,2.8
		L686,227.6z"/>
	<linearGradient id="SVGID_2_" gradientUnits="userSpaceOnUse" x1="679.9994" y1="391.9705" x2="1240.0004" y2="391.9705">
		<stop  offset="0" style="stop-color:#1FC9FD"/>
		<stop  offset="1" style="stop-color:#FB0061"/>
	</linearGradient>
	<path fill="url(#SVGID_2_)" d="M1178.3,515V268.9c0-8-6.5-14.6-14.6-14.6c-8,0-14.6,6.5-14.6,14.6v231.6h-116.4V374.1
		c0-40.1-32.6-72.8-72.8-72.8s-72.8,32.6-72.8,72.8v126.4H770.8V268.9c0-8-6.5-14.6-14.6-14.6c-8,0-14.6,6.5-14.6,14.6V515
		c0,8,6.5,14.6,14.6,14.6h145.5c7.7,0,13.9-5.9,14.5-13.4c0-0.3,0.1-0.7,0.1-1.1v-141c0-24.1,19.6-43.7,43.7-43.7
		s43.7,19.6,43.7,43.7v141c0,0.4,0,0.8,0.1,1.1c0.6,7.5,6.8,13.4,14.5,13.4h145.5C1171.7,529.6,1178.3,523.1,1178.3,515z"/>
</g>
</svg>
