<?xml version="1.0" encoding="utf-8"?>
<!-- Generator: Adobe Illustrator 17.1.0, SVG Export Plug-In . SVG Version: 6.00 Build 0)  -->
<!DOCTYPE svg PUBLIC "-//W3C//DTD SVG 1.1//EN" "http://www.w3.org/Graphics/SVG/1.1/DTD/svg11.dtd">
<svg version="1.1" id="Capa_1" xmlns="http://www.w3.org/2000/svg" xmlns:xlink="http://www.w3.org/1999/xlink" x="0px" y="0px"
	 viewBox="239.9 27.7 800 743.1" enable-background="new 239.9 27.7 800 743.1" xml:space="preserve">
<g>
	<path fill="#E8E8E8" d="M363.5,512.9c-54.7-50.1-92.2-112.6-108.5-180.7c-10.1-46.1-7.8-74.7-6.2-81.1l0.1-0.6l0.1-0.6
		c5.1-60,29.1-114.7,67.7-154c38.3-39.1,88.7-60.6,141.8-60.6c70.4,0,134.7,38.3,172,102.4l6.3,10.8l6.6-10.6
		c19.2-31,45.6-56.8,76.4-74.8c31.3-18.2,66.5-27.8,101.8-27.8c53.1,0,103.4,21.5,141.8,60.6c38.6,39.4,62.6,94.1,67.7,154l0.1,0.6
		l0.1,0.6c1.4,5.5,4.1,35.3-7.7,80.9l0,0.1c-16.3,68.1-53.8,130.7-108.5,180.8L637,760.7L363.5,512.9z"/>
	<path fill="#B7B7B7" d="M821.5,42.7c25.9,0,50.9,5.2,74.4,15.4c22.9,10,43.8,24.4,62,43c37.4,38.1,60.7,91.2,65.6,149.4l0.1,1.2
		l0.3,1.2c0.1,0.2,5.1,27.6-7.7,77.2l0,0.1l0,0.1c-8,33.5-21.2,65.7-39.2,95.6c-17.8,29.6-40.4,57-67,81.4L637,750.6L368.6,507.4
		c-26.7-24.4-49.2-51.9-67.1-81.5c-18-29.9-31.2-62-39.2-95.4c-9.9-45.4-7.4-72.8-6.2-77.6l0.3-1.2l0.1-1.2
		c4.9-58.2,28.2-111.3,65.6-149.4c18.2-18.5,39-33,62-43c23.5-10.2,48.6-15.4,74.4-15.4c33.4,0,66.2,9,94.8,26.1
		c28.6,17.1,53,42.2,70.7,72.5l12.6,21.6l13.2-21.3c18.5-29.9,44.1-54.9,73.8-72.2C753.7,52,787.6,42.7,821.5,42.7 M821.5,27.7
		c-75.4,0-144.6,41.5-184.6,106.2C598.5,67.7,532.3,27.7,458.5,27.7c-113.8,0-206.2,93.8-216.9,221.5c-1.5,6.2-4.6,35.4,6.2,84.6
		c16.9,70.8,55.4,133.8,110.8,184.6l278.5,252.3L920,518.5c55.4-50.8,93.8-113.8,110.8-184.6c12.3-47.7,9.2-78.5,7.7-84.6
		C1027.7,121.5,935.4,27.7,821.5,27.7L821.5,27.7z"/>
</g>
</svg>
