<?xml version="1.0" encoding="utf-8"?>
<!-- Generator: Adobe Illustrator 17.1.0, SVG Export Plug-In . SVG Version: 6.00 Build 0)  -->
<!DOCTYPE svg PUBLIC "-//W3C//DTD SVG 1.1//EN" "http://www.w3.org/Graphics/SVG/1.1/DTD/svg11.dtd">
<svg version="1.1" id="Capa_1" xmlns="http://www.w3.org/2000/svg" xmlns:xlink="http://www.w3.org/1999/xlink" x="0px" y="0px"
	 viewBox="769.8 0 380.4 560" enable-background="new 769.8 0 380.4 560" xml:space="preserve">
<g>
	<linearGradient id="SVGID_1_" gradientUnits="userSpaceOnUse" x1="769.806" y1="280" x2="1150.1938" y2="280">
		<stop  offset="0" style="stop-color:#1FC9FD"/>
		<stop  offset="1" style="stop-color:#FB0061"/>
	</linearGradient>
	<path fill="url(#SVGID_1_)" d="M960,0C855,0,769.8,84.6,769.8,189c0,53.4,52.4,149.1,52.4,149.1L953,560l136.5-219.4
		c0,0,60.6-91.3,60.6-151.6C1150.2,84.6,1065,0,960,0z M959.1,293.1c-60.2,0-108.9-48.7-108.9-109c0-60.2,48.7-108.9,108.9-108.9
		c60.1,0,108.9,48.7,108.9,108.9C1068.1,244.3,1019.3,293.1,959.1,293.1z"/>
</g>
</svg>
