<?xml version="1.0" encoding="utf-8"?>
<!-- Generator: Adobe Illustrator 17.1.0, SVG Export Plug-In . SVG Version: 6.00 Build 0)  -->
<!DOCTYPE svg PUBLIC "-//W3C//DTD SVG 1.1//EN" "http://www.w3.org/Graphics/SVG/1.1/DTD/svg11.dtd">
<svg version="1.1" id="Capa_1" xmlns="http://www.w3.org/2000/svg" xmlns:xlink="http://www.w3.org/1999/xlink" x="0px" y="0px"
	 viewBox="250 0 1000 1000" enable-background="new 250 0 1000 1000" xml:space="preserve">
<path fill="#FFFFFF" d="M297.4,549.1h612.3L779.8,682.5c-8.8,8.8-14,21.1-14,35.1c0,12.3,5.3,24.6,14,35.1c8.8,8.8,21.1,14,33.3,14
	c12.3,0,24.6-5.3,33.3-14L1057,535.1c8.8-8.8,14-22.8,14-36.8s-3.5-26.3-14-36.8l-210.5-214c-17.5-19.3-49.1-19.3-66.7,0
	c-8.8,8.8-14,21.1-14,35.1c0,12.3,5.3,24.6,14,35.1l129.8,133.3H297.4c-26.3,0-47.4,21.1-47.4,49.1S271.1,549.1,297.4,549.1z"/>
<linearGradient id="SVGID_1_" gradientUnits="userSpaceOnUse" x1="243.6157" y1="499.7807" x2="1250" y2="499.7807">
	<stop  offset="0" style="stop-color:#1FC9FD"/>
	<stop  offset="1" style="stop-color:#FB0061"/>
</linearGradient>
<path fill="url(#SVGID_1_)" d="M297.4,549.1h612.3L779.8,682.5c-8.8,8.8-14,21.1-14,35.1c0,12.3,5.3,24.6,14,35.1
	c8.8,8.8,21.1,14,33.3,14c12.3,0,24.6-5.3,33.3-14L1057,535.1c8.8-8.8,14-22.8,14-36.8s-3.5-26.3-14-36.8l-210.5-214
	c-17.5-19.3-49.1-19.3-66.7,0c-8.8,8.8-14,21.1-14,35.1c0,12.3,5.3,24.6,14,35.1l129.8,133.3H297.4c-26.3,0-47.4,21.1-47.4,49.1
	S271.1,549.1,297.4,549.1z"/>
<path fill="#FFFFFF" d="M1093.9,0h-686c-86,0-156.1,70.2-156.1,156.1v156.1h107V156.1c0-28.1,22.8-49.1,49.1-49.1h684.2
	c26.3,0,49.1,22.8,49.1,49.1v686c0,28.1-22.8,49.1-49.1,49.1H407.9c-26.3,0-49.1-22.8-49.1-49.1V686h-107v156.1
	c0,87.7,70.2,157.9,156.1,157.9h684.2c87.7,0,157.9-70.2,157.9-157.9v-686C1250,70.2,1179.8,0,1093.9,0z"/>
<linearGradient id="SVGID_2_" gradientUnits="userSpaceOnUse" x1="243.6157" y1="500" x2="1250" y2="500">
	<stop  offset="0" style="stop-color:#1FC9FD"/>
	<stop  offset="1" style="stop-color:#FB0061"/>
</linearGradient>
<path fill="url(#SVGID_2_)" d="M1093.9,0h-686c-86,0-156.1,70.2-156.1,156.1v156.1h107V156.1c0-28.1,22.8-49.1,49.1-49.1h684.2
	c26.3,0,49.1,22.8,49.1,49.1v686c0,28.1-22.8,49.1-49.1,49.1H407.9c-26.3,0-49.1-22.8-49.1-49.1V686h-107v156.1
	c0,87.7,70.2,157.9,156.1,157.9h684.2c87.7,0,157.9-70.2,157.9-157.9v-686C1250,70.2,1179.8,0,1093.9,0z"/>
</svg>
