<?xml version="1.0" encoding="utf-8"?>
<!-- Generator: Adobe Illustrator 21.0.0, SVG Export Plug-In . SVG Version: 6.00 Build 0)  -->
<svg version="1.1" id="Capa_1" xmlns="http://www.w3.org/2000/svg" xmlns:xlink="http://www.w3.org/1999/xlink" x="0px" y="0px"
	 viewBox="0 0 57 57" style="enable-background:new 0 0 57 57;" xml:space="preserve">
<style type="text/css">
	.st0{fill:#FFFFFF;}
</style>
<g>
	<path class="st0" d="M30.2,38.9c-0.5,0.5-0.8,1.2-0.8,2c0,0.7,0.3,1.4,0.8,2c0.5,0.5,1.2,0.8,1.9,0.8l0,0c0.7,0,1.4-0.3,1.9-0.8
		l12-12.4c0.5-0.5,0.8-1.3,0.8-2.1c0-0.8-0.2-1.5-0.8-2.1L34,14.1c-1-1.1-2.8-1.1-3.8,0c-0.5,0.5-0.8,1.2-0.8,2c0,0.7,0.3,1.4,0.8,2
		l7.4,7.6H2.7c-1.5,0-2.7,1.2-2.7,2.8s1.2,2.8,2.7,2.8h34.9L30.2,38.9z"/>
</g>
<path class="st0" d="M48.1,0H9C4.1,0,0.1,4,0.1,8.9v8.9h6.1V8.9c0-1.6,1.3-2.8,2.8-2.8h39c1.5,0,2.8,1.3,2.8,2.8V48
	c0,1.6-1.3,2.8-2.8,2.8H9c-1.5,0-2.8-1.3-2.8-2.8v-8.9H0.1V48c0,5,4,9,8.9,9h39c5,0,9-4,9-9V8.9C57,4,53,0,48.1,0z"/>
</svg>
