<?xml version="1.0" encoding="utf-8"?>
<!-- Generator: Adobe Illustrator 17.1.0, SVG Export Plug-In . SVG Version: 6.00 Build 0)  -->
<!DOCTYPE svg PUBLIC "-//W3C//DTD SVG 1.1//EN" "http://www.w3.org/Graphics/SVG/1.1/DTD/svg11.dtd">
<svg version="1.1" id="Layer_1" xmlns="http://www.w3.org/2000/svg" xmlns:xlink="http://www.w3.org/1999/xlink" x="0px" y="0px"
	 viewBox="0 0 1500 1000" enable-background="new 0 0 1500 1000" xml:space="preserve">
<g>
	<path fill="#FFFFFF" d="M1394.3,375.2h-58.5v249.5h32.4v-61.8h26.1c40.7,0,60.9-47,60.9-93.9
		C1455.1,422.2,1434.3,375.2,1394.3,375.2z M1393.6,528.9h-25.5V409.6h24.1c20.2,0,30.8,29.7,30.8,59.5
		C1423,499.2,1413.1,528.9,1393.6,528.9z"/>
	<path fill="#FFFFFF" d="M594.8,375.2h-55.9v249.5h55.9c46,0,69.1-62.1,69.1-125.1C663.9,437.6,640.1,375.2,594.8,375.2z
		 M595.8,590.7h-24.5V409.6h24.5c23.2,0,35.7,45.2,35.7,90C631.5,545.5,618.9,590.7,595.8,590.7z"/>
	<path fill="#FFFFFF" d="M430.7,375.2l-58.2,249.5h32.7l6.3-27.4h69.1l6.3,27.4h33.4l-58.1-249.5H430.7z M420.2,563l26.1-123.6
		L472.8,563H420.2z"/>
	<polygon fill="#FFFFFF" points="1002,482.3 942.1,482.3 942.1,375.2 909.7,375.2 909.7,624.7 942.1,624.7 942.1,516.3 1002,516.3 
		1002,624.7 1034.7,624.7 1034.7,375.2 1002,375.2 	"/>
	<polygon fill="#FFFFFF" points="1071.8,624.7 1177.3,624.7 1177.3,590.7 1104.2,590.7 1104.2,516.3 1154.8,516.3 1154.8,482.3 
		1104.2,482.3 1104.2,409.6 1177.3,409.6 1177.3,375.2 1071.8,375.2 	"/>
	<path fill="#FFFFFF" d="M709.6,438c0-17.2,7.9-31.9,24.1-31.9c8.9,0,21.8,5.6,36.1,18.9l21.5-25.6c-20.8-18.9-40.4-27.4-57.6-27.4
		c-33.1,0-56.6,29.1-56.6,66c0,77.9,87,68.1,87,122.5c0,16.1-8.6,33-25.5,33c-10.9,0-24.1-6-40.7-23.2l-21.8,24.9
		c22.8,23.5,44.7,32.6,62.5,32.6c34.7,0,57.6-33,57.6-67.4C796.2,480.5,709.6,491,709.6,438z"/>
	<polygon fill="#FFFFFF" points="1237.8,375.2 1205.4,375.2 1205.4,624.7 1311.6,624.7 1311.6,590.7 1237.8,590.7 	"/>
	<circle fill="#FFFFFF" cx="235.5" cy="427.9" r="48.1"/>
	<circle fill="#FFFFFF" cx="91.6" cy="571.1" r="48.1"/>
	<circle fill="#FFFFFF" cx="100.4" cy="427.3" r="32.3"/>
	<circle fill="#FFFFFF" cx="241.4" cy="556.8" r="32.2"/>
</g>
</svg>
