<?xml version="1.0" encoding="utf-8"?>
<!-- Generator: Adobe Illustrator 17.1.0, SVG Export Plug-In . SVG Version: 6.00 Build 0)  -->
<!DOCTYPE svg PUBLIC "-//W3C//DTD SVG 1.1//EN" "http://www.w3.org/Graphics/SVG/1.1/DTD/svg11.dtd">
<svg version="1.1" id="Layer_1" xmlns="http://www.w3.org/2000/svg" xmlns:xlink="http://www.w3.org/1999/xlink" x="0px" y="0px"
	 viewBox="0 0 1500 285" enable-background="new 0 0 1500 285" xml:space="preserve">
<g>
	<linearGradient id="SVGID_1_" gradientUnits="userSpaceOnUse" x1="26.493" y1="142.4757" x2="1468.7755" y2="142.4757">
		<stop  offset="0" style="stop-color:#1FC9FD"/>
		<stop  offset="1" style="stop-color:#FB0061"/>
	</linearGradient>
	<path fill="url(#SVGID_1_)" d="M1394.3,17.7h-58.5v249.5h32.4v-61.8h26.1c40.7,0,60.9-47,60.9-93.9
		C1455.1,64.7,1434.3,17.7,1394.3,17.7z M1393.6,171.4h-25.5V52.1h24.1c20.2,0,30.8,29.7,30.8,59.5
		C1423,141.7,1413.1,171.4,1393.6,171.4z"/>
	<linearGradient id="SVGID_2_" gradientUnits="userSpaceOnUse" x1="26.493" y1="142.4757" x2="1468.7755" y2="142.4757">
		<stop  offset="0" style="stop-color:#1FC9FD"/>
		<stop  offset="1" style="stop-color:#FB0061"/>
	</linearGradient>
	<path fill="url(#SVGID_2_)" d="M594.8,17.7h-55.9v249.5h55.9c46,0,69.1-62.1,69.1-125.1C663.9,80.1,640.1,17.7,594.8,17.7z
		 M595.8,233.2h-24.5V52.1h24.5c23.2,0,35.7,45.2,35.7,90C631.5,188,618.9,233.2,595.8,233.2z"/>
	<linearGradient id="SVGID_3_" gradientUnits="userSpaceOnUse" x1="26.493" y1="142.4757" x2="1468.7755" y2="142.4757">
		<stop  offset="0" style="stop-color:#1FC9FD"/>
		<stop  offset="1" style="stop-color:#FB0061"/>
	</linearGradient>
	<path fill="url(#SVGID_3_)" d="M430.7,17.7l-58.2,249.5h32.7l6.3-27.4h69.1l6.3,27.4h33.4L462.2,17.7H430.7z M420.2,205.5
		l26.1-123.6l26.5,123.6H420.2z"/>
	<linearGradient id="SVGID_4_" gradientUnits="userSpaceOnUse" x1="26.493" y1="142.4757" x2="1468.7755" y2="142.4757">
		<stop  offset="0" style="stop-color:#1FC9FD"/>
		<stop  offset="1" style="stop-color:#FB0061"/>
	</linearGradient>
	<polygon fill="url(#SVGID_4_)" points="1002,124.8 942.1,124.8 942.1,17.7 909.7,17.7 909.7,267.2 942.1,267.2 942.1,158.8 
		1002,158.8 1002,267.2 1034.7,267.2 1034.7,17.7 1002,17.7 	"/>
	<linearGradient id="SVGID_5_" gradientUnits="userSpaceOnUse" x1="26.493" y1="142.4757" x2="1468.7755" y2="142.4757">
		<stop  offset="0" style="stop-color:#1FC9FD"/>
		<stop  offset="1" style="stop-color:#FB0061"/>
	</linearGradient>
	<polygon fill="url(#SVGID_5_)" points="1071.8,267.2 1177.3,267.2 1177.3,233.2 1104.2,233.2 1104.2,158.8 1154.8,158.8 
		1154.8,124.8 1104.2,124.8 1104.2,52.1 1177.3,52.1 1177.3,17.7 1071.8,17.7 	"/>
	<linearGradient id="SVGID_6_" gradientUnits="userSpaceOnUse" x1="26.493" y1="142.4767" x2="1468.7755" y2="142.4767">
		<stop  offset="0" style="stop-color:#1FC9FD"/>
		<stop  offset="1" style="stop-color:#FB0061"/>
	</linearGradient>
	<path fill="url(#SVGID_6_)" d="M709.6,80.5c0-17.2,7.9-31.9,24.1-31.9c8.9,0,21.8,5.6,36.1,18.9l21.5-25.6
		c-20.8-18.9-40.4-27.4-57.6-27.4c-33.1,0-56.6,29.1-56.6,66c0,77.9,87,68.1,87,122.5c0,16.1-8.6,33-25.5,33
		c-10.9,0-24.1-6-40.7-23.2l-21.8,24.9c22.8,23.5,44.7,32.6,62.5,32.6c34.7,0,57.6-33,57.6-67.4C796.2,123,709.6,133.5,709.6,80.5z"
		/>
	<linearGradient id="SVGID_7_" gradientUnits="userSpaceOnUse" x1="26.493" y1="142.4757" x2="1468.7755" y2="142.4757">
		<stop  offset="0" style="stop-color:#1FC9FD"/>
		<stop  offset="1" style="stop-color:#FB0061"/>
	</linearGradient>
	<polygon fill="url(#SVGID_7_)" points="1237.8,17.7 1205.4,17.7 1205.4,267.2 1311.6,267.2 1311.6,233.2 1237.8,233.2 	"/>
	<linearGradient id="SVGID_8_" gradientUnits="userSpaceOnUse" x1="26.493" y1="70.4097" x2="1468.7755" y2="70.4097">
		<stop  offset="0" style="stop-color:#1FC9FD"/>
		<stop  offset="1" style="stop-color:#FB0061"/>
	</linearGradient>
	<circle fill="url(#SVGID_8_)" cx="235.5" cy="70.4" r="48.1"/>
	<linearGradient id="SVGID_9_" gradientUnits="userSpaceOnUse" x1="26.493" y1="213.5704" x2="1468.7755" y2="213.5704">
		<stop  offset="0" style="stop-color:#1FC9FD"/>
		<stop  offset="1" style="stop-color:#FB0061"/>
	</linearGradient>
	<circle fill="url(#SVGID_9_)" cx="91.6" cy="213.6" r="48.1"/>
	<linearGradient id="SVGID_10_" gradientUnits="userSpaceOnUse" x1="26.493" y1="69.8228" x2="1468.7755" y2="69.8228">
		<stop  offset="0" style="stop-color:#1FC9FD"/>
		<stop  offset="1" style="stop-color:#FB0061"/>
	</linearGradient>
	<circle fill="url(#SVGID_10_)" cx="100.4" cy="69.8" r="32.3"/>
	<linearGradient id="SVGID_11_" gradientUnits="userSpaceOnUse" x1="26.493" y1="199.3026" x2="1468.7755" y2="199.3026">
		<stop  offset="0" style="stop-color:#1FC9FD"/>
		<stop  offset="1" style="stop-color:#FB0061"/>
	</linearGradient>
	<circle fill="url(#SVGID_11_)" cx="241.4" cy="199.3" r="32.2"/>
</g>
</svg>
