<?xml version="1.0" encoding="utf-8"?>
<!-- Generator: Adobe Illustrator 17.1.0, SVG Export Plug-In . SVG Version: 6.00 Build 0)  -->
<!DOCTYPE svg PUBLIC "-//W3C//DTD SVG 1.1//EN" "http://www.w3.org/Graphics/SVG/1.1/DTD/svg11.dtd">
<svg version="1.1" id="Capa_1" xmlns="http://www.w3.org/2000/svg" xmlns:xlink="http://www.w3.org/1999/xlink" x="0px" y="0px"
	 viewBox="680 49.7 560 460.5" enable-background="new 680 49.7 560 460.5" xml:space="preserve">
<g>
	<linearGradient id="SVGID_1_" gradientUnits="userSpaceOnUse" x1="680" y1="279.9997" x2="1240" y2="279.9997">
		<stop  offset="0" style="stop-color:#1FC9FD"/>
		<stop  offset="1" style="stop-color:#FB0061"/>
	</linearGradient>
	<path fill="url(#SVGID_1_)" d="M878.7,496.2c7-8.9,9.5-20.3,6.8-31.3l-26-106.8H872c0.6,0.1,1.1,0.1,1.7,0.1
		c0.4,0,39.6-2,87.1,11.5c62.8,17.9,109.8,52.9,139.6,104.3c3.5,6,9.6,9.4,16.2,9.4c1.7,0,3.4-0.2,5-0.7c8.3-2.2,14-9.6,14-18.2
		V323.2c27.3-3.3,48.5-26.5,48.5-54.7v-4l0,0c0-28.1-21.2-51.4-48.5-54.7V68.6c0-8.6-5.6-16-14-18.2c-8.3-2.2-16.9,1.3-21.2,8.7
		c-29.8,51.3-76.8,86.4-139.6,104.3c-47.5,13.5-86.7,11.5-87.1,11.5c-0.6,0-1.1,0-1.7,0.1H771.5c-50.5,0-91.5,41.1-91.5,91.5
		c0,47.5,36.4,86.7,82.8,91.1l30.3,124.6c4,16.5,18.7,28,35.7,28h21C861.1,510.3,871.7,505.1,878.7,496.2z M1135.6,232
		c15.2,3.1,26.6,16.5,26.6,32.5v4c0,16-11.4,29.5-26.6,32.5V232z M884,300.7V196.9c15.9-0.3,46.5-2.3,82-12.3
		c64.1-18.1,114.9-54.4,147.7-105.3v141.1v92.3v141.1c-32.8-51-83.6-87.3-147.7-105.3c-35.5-10-66.1-12-82-12.3V300.7z M771.2,336.2
		c-38.3-0.2-69.3-31.3-69.3-69.6c0-38.4,31.2-69.7,69.7-69.7h90.6v92.9h-68c-6,0-10.9,4.9-10.9,10.9c0,6,4.9,10.9,10.9,10.9h68v24.5
		h-16c-0.2,0-0.4,0-0.6,0h-74C771.4,336.2,771.3,336.2,771.2,336.2z M861.5,482.7c-2.8,3.6-7.1,5.7-11.6,5.7h-21
		c-6.9,0-12.8-4.7-14.4-11.3l-28.9-119H837l7.7,31.8h-5.2c-6,0-10.9,4.9-10.9,10.9c0,6,4.9,10.9,10.9,10.9H850l5.4,22.3H852
		c-6,0-10.9,4.9-10.9,10.9s4.9,10.9,10.9,10.9h8.7l3.5,14.2C865.3,474.5,864.3,479.1,861.5,482.7z"/>
	<linearGradient id="SVGID_2_" gradientUnits="userSpaceOnUse" x1="680" y1="177.4099" x2="1240" y2="177.4099">
		<stop  offset="0" style="stop-color:#1FC9FD"/>
		<stop  offset="1" style="stop-color:#FB0061"/>
	</linearGradient>
	<path fill="url(#SVGID_2_)" d="M1211.6,155l-31.5,28.7c-4.5,4.1-4.8,11-0.7,15.5c2.2,2.4,5.1,3.6,8.1,3.6c2.6,0,5.3-0.9,7.4-2.9
		l31.5-28.7c4.5-4.1,4.8-11,0.7-15.5C1222.9,151.2,1216,150.9,1211.6,155z"/>
	<linearGradient id="SVGID_3_" gradientUnits="userSpaceOnUse" x1="680" y1="355.6408" x2="1240" y2="355.6408">
		<stop  offset="0" style="stop-color:#1FC9FD"/>
		<stop  offset="1" style="stop-color:#FB0061"/>
	</linearGradient>
	<path fill="url(#SVGID_3_)" d="M1179.3,333.9c-4.1,4.5-3.7,11.4,0.7,15.5l31.5,28.7c2.1,1.9,4.7,2.9,7.4,2.9c3,0,5.9-1.2,8.1-3.6
		c4.1-4.5,3.7-11.4-0.7-15.5l-31.5-28.7C1190.3,329.1,1183.4,329.4,1179.3,333.9z"/>
	<linearGradient id="SVGID_4_" gradientUnits="userSpaceOnUse" x1="680" y1="266.525" x2="1240" y2="266.525">
		<stop  offset="0" style="stop-color:#1FC9FD"/>
		<stop  offset="1" style="stop-color:#FB0061"/>
	</linearGradient>
	<path fill="url(#SVGID_4_)" d="M1229.1,255.6h-24.2c-6,0-10.9,4.9-10.9,10.9c0,6,4.9,10.9,10.9,10.9h24.2c6,0,10.9-4.9,10.9-10.9
		C1240,260.5,1235.1,255.6,1229.1,255.6z"/>
	<linearGradient id="SVGID_5_" gradientUnits="userSpaceOnUse" x1="680" y1="300.7008" x2="1240" y2="300.7008">
		<stop  offset="0" style="stop-color:#1FC9FD"/>
		<stop  offset="1" style="stop-color:#FB0061"/>
	</linearGradient>
	<path fill="url(#SVGID_5_)" d="M759.2,296.5c-0.3-0.7-0.6-1.3-1-1.9c-0.4-0.6-0.9-1.2-1.4-1.7c-0.5-0.5-1.1-1-1.7-1.4
		c-0.6-0.4-1.2-0.7-1.9-1c-0.7-0.3-1.4-0.5-2-0.6c-1.4-0.3-2.9-0.3-4.3,0c-0.7,0.1-1.4,0.3-2,0.6s-1.3,0.6-1.9,1
		c-0.6,0.4-1.2,0.9-1.7,1.4s-1,1.1-1.4,1.7c-0.4,0.6-0.7,1.2-1,1.9c-0.3,0.7-0.5,1.3-0.6,2c-0.1,0.7-0.2,1.4-0.2,2.1
		c0,0.7,0.1,1.4,0.2,2.1c0.1,0.7,0.3,1.4,0.6,2c0.3,0.7,0.6,1.3,1,1.9c0.4,0.6,0.9,1.2,1.4,1.7s1.1,1,1.7,1.4c0.6,0.4,1.2,0.7,1.9,1
		s1.3,0.5,2,0.6c0.7,0.1,1.4,0.2,2.1,0.2c0.7,0,1.4-0.1,2.1-0.2c0.7-0.1,1.4-0.3,2-0.6c0.7-0.3,1.3-0.6,1.9-1
		c0.6-0.4,1.2-0.9,1.7-1.4c0.5-0.5,1-1.1,1.4-1.7c0.4-0.6,0.7-1.2,1-1.9c0.3-0.7,0.5-1.4,0.6-2c0.1-0.7,0.2-1.4,0.2-2.1
		s-0.1-1.4-0.2-2.1C759.7,297.9,759.5,297.2,759.2,296.5z"/>
</g>
</svg>
