<?xml version="1.0" encoding="utf-8"?>
<!-- Generator: Adobe Illustrator 21.0.0, SVG Export Plug-In . SVG Version: 6.00 Build 0)  -->
<svg version="1.1" id="Capa_1" xmlns="http://www.w3.org/2000/svg" xmlns:xlink="http://www.w3.org/1999/xlink" x="0px" y="0px"
	 viewBox="0 0 57 57" style="enable-background:new 0 0 57 57;" xml:space="preserve">
<style type="text/css">
	.st0{fill:#FFFFFF;}
</style>
<path class="st0" d="M54.4,49.9L54.4,49.9c-1.3-0.6-2.5-2-3.6-4c8.9-11.3,7.9-27.4-2.3-37.6C43.2,3,36,0,28.5,0
	C20.9,0,13.7,3,8.4,8.4C3,13.7,0,20.9,0,28.5s3,14.7,8.3,20.1s12.5,8.3,20.1,8.3c4.5,0,8.9-1.1,12.9-3.1c3,2,6.5,3,9.9,3
	c0.7,0,1.4-0.1,2.1-0.2c1.5-0.2,2.8-1.4,3-3C56.6,52.1,55.8,50.6,54.4,49.9z M45.9,43.9c-0.7,0.8-0.8,1.8-0.4,2.7
	c0.8,1.8,1.7,3.4,2.7,4.6c-1.5-0.4-3.3-1.1-5-2.5l0,0c-0.8-0.6-1.9-0.7-2.9-0.2c-3.6,2.1-7.6,3.2-11.8,3.2c-6.2,0-12.1-2.4-16.5-6.8
	S5.2,34.7,5.2,28.4S7.6,16.4,12,12s10.2-6.8,16.5-6.8s12,2.4,16.4,6.8C53.6,20.7,54,34.7,45.9,43.9z"/>
<g>
	<circle class="st0" cx="13" cy="28.5" r="2.5"/>
	<circle class="st0" cx="28.5" cy="28.5" r="2.5"/>
	<circle class="st0" cx="44" cy="28.5" r="2.5"/>
</g>
</svg>
