<?xml version="1.0" encoding="utf-8"?>
<!-- Generator: Adobe Illustrator 17.1.0, SVG Export Plug-In . SVG Version: 6.00 Build 0)  -->
<!DOCTYPE svg PUBLIC "-//W3C//DTD SVG 1.1//EN" "http://www.w3.org/Graphics/SVG/1.1/DTD/svg11.dtd">
<svg version="1.1" id="Capa_1" xmlns="http://www.w3.org/2000/svg" xmlns:xlink="http://www.w3.org/1999/xlink" x="0px" y="0px"
	 viewBox="250 0 1000 1000" enable-background="new 250 0 1000 1000" xml:space="preserve">
<circle fill="#FFFFFF" cx="750" cy="739.3" r="48.8"/>
<linearGradient id="SVGID_1_" gradientUnits="userSpaceOnUse" x1="250" y1="739.2578" x2="1250" y2="739.2578">
	<stop  offset="0" style="stop-color:#1FC9FD"/>
	<stop  offset="1" style="stop-color:#FB0061"/>
</linearGradient>
<circle fill="url(#SVGID_1_)" cx="750" cy="739.3" r="48.8"/>
<path fill="#FFFFFF" d="M750,0C473.6,0,250,223.6,250,500s223.6,500,500,500s500-223.6,500-500S1026.4,0,750,0z M750,921.9
	c-233.2,0-421.9-188.7-421.9-421.9S516.8,78.1,750,78.1s421.9,188.7,421.9,421.9S983.2,921.9,750,921.9z"/>
<linearGradient id="SVGID_2_" gradientUnits="userSpaceOnUse" x1="250" y1="500" x2="1250" y2="500">
	<stop  offset="0" style="stop-color:#1FC9FD"/>
	<stop  offset="1" style="stop-color:#FB0061"/>
</linearGradient>
<path fill="url(#SVGID_2_)" d="M750,0C473.6,0,250,223.6,250,500s223.6,500,500,500s500-223.6,500-500S1026.4,0,750,0z M750,921.9
	c-233.2,0-421.9-188.7-421.9-421.9S516.8,78.1,750,78.1s421.9,188.7,421.9,421.9S983.2,921.9,750,921.9z"/>
<path fill="#FFFFFF" d="M750,251c-86.1,0-156.3,70.1-156.3,156.3c0,21.5,17.6,39.1,39.1,39.1s39.1-17.6,39.1-39.1
	c0-43.2,35-78.1,78.1-78.1s78.1,35,78.1,78.1s-35,78.1-78.1,78.1c-21.5,0-39.1,17.6-39.1,39.1v97.7c0,21.5,17.6,39.1,39.1,39.1
	s39.1-17.6,39.1-39.1v-63.5c67.4-17.4,117.2-78.7,117.2-151.4C906.3,321.1,836.1,251,750,251z"/>
<linearGradient id="SVGID_3_" gradientUnits="userSpaceOnUse" x1="250" y1="456.0547" x2="1250" y2="456.0547">
	<stop  offset="0" style="stop-color:#1FC9FD"/>
	<stop  offset="1" style="stop-color:#FB0061"/>
</linearGradient>
<path fill="url(#SVGID_3_)" d="M750,251c-86.1,0-156.3,70.1-156.3,156.3c0,21.5,17.6,39.1,39.1,39.1s39.1-17.6,39.1-39.1
	c0-43.2,35-78.1,78.1-78.1s78.1,35,78.1,78.1s-35,78.1-78.1,78.1c-21.5,0-39.1,17.6-39.1,39.1v97.7c0,21.5,17.6,39.1,39.1,39.1
	s39.1-17.6,39.1-39.1v-63.5c67.4-17.4,117.2-78.7,117.2-151.4C906.3,321.1,836.1,251,750,251z"/>
</svg>
