<?xml version="1.0" encoding="utf-8"?>
<!-- Generator: Adobe Illustrator 17.1.0, SVG Export Plug-In . SVG Version: 6.00 Build 0)  -->
<!DOCTYPE svg PUBLIC "-//W3C//DTD SVG 1.1//EN" "http://www.w3.org/Graphics/SVG/1.1/DTD/svg11.dtd">
<svg version="1.1" id="Layer_1" xmlns="http://www.w3.org/2000/svg" xmlns:xlink="http://www.w3.org/1999/xlink" x="0px" y="0px"
	 viewBox="0 0 242.1 327.1" enable-background="new 0 0 242.1 327.1" xml:space="preserve">
<g>
	<linearGradient id="SVGID_1_" gradientUnits="userSpaceOnUse" x1="-0.6966" y1="159.225" x2="242.1281" y2="159.225">
		<stop  offset="0" style="stop-color:#1FC9FD"/>
		<stop  offset="1" style="stop-color:#FB0061"/>
	</linearGradient>
	<path fill="url(#SVGID_1_)" d="M208.6,114.9c-20.3,0-41,0-62.2,0c0-14,0-27.5,0-41.3c-20.7,0-40.9,0-61.8,0c0,13.9,0,27.5,0,41.4
		c-22.1,0-43.5,0-65.6,0c0,10.6-0.2,20.4,0,30.2c0.6,31.1,11.8,57.1,36.4,77.2c51.6,42.3,118.5,20.1,142.4-30
		c11.6-24.2,12.5-50,11.7-76.1C209.6,116.1,209.2,115.8,208.6,114.9z M99.8,116.3c10.5,0,20.8,0,31.5,0c0,4.1,0,8.1,0,12.6
		c-10.4,0-20.7,0-31.5,0C99.8,124.4,99.8,120.5,99.8,116.3z M193.3,156.7c-52.9,0-105.3,0-158.5,0c-0.3-4.4-0.6-8.5-0.9-13.1
		c53.6,0,106.8,0,160.5,0C194.1,148,193.7,152.2,193.3,156.7z"/>
	<linearGradient id="SVGID_2_" gradientUnits="userSpaceOnUse" x1="-0.6966" y1="294.0736" x2="242.1281" y2="294.0736">
		<stop  offset="0" style="stop-color:#1FC9FD"/>
		<stop  offset="1" style="stop-color:#FB0061"/>
	</linearGradient>
	<path fill="url(#SVGID_2_)" d="M138.7,274.8c-16.4-7.8-33.7-12.4-51.9-13.4c-21.3-1.2-42.3,0.1-62.2,8.8
		c-11,4.8-21.5,11.8-24.1,23.7C-1.9,304.5,0,316,0,327.1c81,0,161.5,0,242.1,0c0-11,0-21.6,0-32.2c-11.2-1-22.2-1.6-33-2.9
		C184.9,289.1,160.9,285.4,138.7,274.8z"/>
	<linearGradient id="SVGID_3_" gradientUnits="userSpaceOnUse" x1="-0.6966" y1="28.7255" x2="242.1281" y2="28.7255">
		<stop  offset="0" style="stop-color:#1FC9FD"/>
		<stop  offset="1" style="stop-color:#FB0061"/>
	</linearGradient>
	<path fill="url(#SVGID_3_)" d="M112.8,55.3c1.8,3,3.8,2.9,5.6-0.1c4.4-7.3,8.8-14.5,13.1-21.8c2-3.4,0.6-5-3.1-5
		c-2.4-0.1-4.8-0.2-7.6-0.3c0-7.6,0.1-14.5,0-21.5c-0.1-3.4-1-6.5-5.2-6.4c-4.3,0-4.9,3-4.9,6.5c0.1,7,0,13.9,0,21.8
		c-3.2,0-5.7,0-8.2,0c-3.8,0.1-4.8,1.9-2.8,5.1C104,40.7,108.4,48,112.8,55.3z"/>
</g>
</svg>
