<?xml version="1.0" encoding="utf-8"?>
<!-- Generator: Adobe Illustrator 17.1.0, SVG Export Plug-In . SVG Version: 6.00 Build 0)  -->
<!DOCTYPE svg PUBLIC "-//W3C//DTD SVG 1.1//EN" "http://www.w3.org/Graphics/SVG/1.1/DTD/svg11.dtd">
<svg version="1.1" id="Capa_1" xmlns="http://www.w3.org/2000/svg" xmlns:xlink="http://www.w3.org/1999/xlink" x="0px" y="0px"
	 viewBox="743.6 66.7 432 429.7" enable-background="new 743.6 66.7 432 429.7" xml:space="preserve">
<path fill="#B93D90" d="M1000.5,316.1c-0.2-2.1-0.3-4.3-0.3-6.5c0-14.1,4.2-27.2,11.4-38.3l-52.3-127.7h-28.4l-76.5,199.1h28
	l21.8-60.3h83.3L1000.5,316.1z M911.9,261l21.8-58.4c4.6-12.6,8.2-25.2,10.7-38c3.1,10.7,7.8,24.5,14.1,41.3l20.8,55.2H911.9z"/>
<linearGradient id="SVGID_1_" gradientUnits="userSpaceOnUse" x1="0" y1="216" x2="612" y2="216" gradientTransform="matrix(0.7071 0 0 -0.7071 743.6364 395.9596)">
	<stop  offset="0" style="stop-color:#1FC9FD"/>
	<stop  offset="1" style="stop-color:#FB0061"/>
</linearGradient>
<path fill="url(#SVGID_1_)" d="M1000.5,316.1c-0.2-2.1-0.3-4.3-0.3-6.5c0-14.1,4.2-27.2,11.4-38.3l-52.3-127.7h-28.4l-76.5,199.1h28
	l21.8-60.3h83.3L1000.5,316.1z M911.9,261l21.8-58.4c4.6-12.6,8.2-25.2,10.7-38c3.1,10.7,7.8,24.5,14.1,41.3l20.8,55.2H911.9z"/>
<path fill="#B93D90" d="M1010.8,342.8l-10.3-26.7c3.3,36.4,34.6,64.8,72.5,64.8c40.2,0,72.9-31.9,72.9-71.3s-32.7-71.3-72.9-71.3
	c-25.9,0-48.6,13.2-61.5,33.1l29.3,71.5L1010.8,342.8L1010.8,342.8z"/>
<linearGradient id="SVGID_2_" gradientUnits="userSpaceOnUse" x1="0" y1="122.1" x2="612" y2="122.1" gradientTransform="matrix(0.7071 0 0 -0.7071 743.6364 395.9596)">
	<stop  offset="0" style="stop-color:#1FC9FD"/>
	<stop  offset="1" style="stop-color:#FB0061"/>
</linearGradient>
<path fill="url(#SVGID_2_)" d="M1010.8,342.8l-10.3-26.7c3.3,36.4,34.6,64.8,72.5,64.8c40.2,0,72.9-31.9,72.9-71.3
	s-32.7-71.3-72.9-71.3c-25.9,0-48.6,13.2-61.5,33.1l29.3,71.5L1010.8,342.8L1010.8,342.8z"/>
<linearGradient id="SVGID_3_" gradientUnits="userSpaceOnUse" x1="0" y1="122.1" x2="612" y2="122.1" gradientTransform="matrix(0.7071 0 0 -0.7071 743.6364 395.9596)">
	<stop  offset="0" style="stop-color:#1FC9FD"/>
	<stop  offset="1" style="stop-color:#FB0061"/>
</linearGradient>
<path fill="url(#SVGID_3_)" d="M1010.8,342.8l-10.3-26.7c3.3,36.4,34.6,64.8,72.5,64.8c40.2,0,72.9-31.9,72.9-71.3
	s-32.7-71.3-72.9-71.3c-25.9,0-48.6,13.2-61.5,33.1l29.3,71.5L1010.8,342.8L1010.8,342.8z"/>
<path fill="#B93D90" d="M1000.5,316.1l10.3,26.7h30.1l-29.2-71.5c-7.2,11-11.4,24.2-11.4,38.3
	C1000.2,311.8,1000.4,313.9,1000.5,316.1z"/>
<linearGradient id="SVGID_4_" gradientUnits="userSpaceOnUse" x1="0" y1="125.75" x2="612" y2="125.75" gradientTransform="matrix(0.7071 0 0 -0.7071 743.6364 395.9596)">
	<stop  offset="0" style="stop-color:#1FC9FD"/>
	<stop  offset="1" style="stop-color:#FB0061"/>
</linearGradient>
<path fill="url(#SVGID_4_)" d="M1000.5,316.1l10.3,26.7h30.1l-29.2-71.5c-7.2,11-11.4,24.2-11.4,38.3
	C1000.2,311.8,1000.4,313.9,1000.5,316.1z"/>
<linearGradient id="SVGID_5_" gradientUnits="userSpaceOnUse" x1="0" y1="125.75" x2="612" y2="125.75" gradientTransform="matrix(0.7071 0 0 -0.7071 743.6364 395.9596)">
	<stop  offset="0" style="stop-color:#1FC9FD"/>
	<stop  offset="1" style="stop-color:#FB0061"/>
</linearGradient>
<path fill="url(#SVGID_5_)" d="M1000.5,316.1l10.3,26.7h30.1l-29.2-71.5c-7.2,11-11.4,24.2-11.4,38.3
	C1000.2,311.8,1000.4,313.9,1000.5,316.1z"/>
<path fill="#B93D90" d="M1144.5,381c-18.2,17.5-43.3,28.8-71.3,28.8c-27.4,0-52.4-10.6-71.3-28.8c-18.9,18.2-31.1,43.3-31.1,71.3
	v29.6c0,7.6,6.9,14.4,14.4,14.4h176.1c8.3,0,14.4-6.1,14.4-14.4v-29.6C1176.4,424.2,1163.4,399.2,1144.5,381z"/>
<linearGradient id="SVGID_6_" gradientUnits="userSpaceOnUse" x1="0" y1="-60.4" x2="612" y2="-60.4" gradientTransform="matrix(0.7071 0 0 -0.7071 743.6364 395.9596)">
	<stop  offset="0" style="stop-color:#1FC9FD"/>
	<stop  offset="1" style="stop-color:#FB0061"/>
</linearGradient>
<path fill="url(#SVGID_6_)" d="M1144.5,381c-18.2,17.5-43.3,28.8-71.3,28.8c-27.4,0-52.4-10.6-71.3-28.8
	c-18.9,18.2-31.1,43.3-31.1,71.3v29.6c0,7.6,6.9,14.4,14.4,14.4h176.1c8.3,0,14.4-6.1,14.4-14.4v-29.6
	C1176.4,424.2,1163.4,399.2,1144.5,381z"/>
<linearGradient id="SVGID_7_" gradientUnits="userSpaceOnUse" x1="0" y1="-60.4" x2="612" y2="-60.4" gradientTransform="matrix(0.7071 0 0 -0.7071 743.6364 395.9596)">
	<stop  offset="0" style="stop-color:#1FC9FD"/>
	<stop  offset="1" style="stop-color:#FB0061"/>
</linearGradient>
<path fill="url(#SVGID_7_)" d="M1144.5,381c-18.2,17.5-43.3,28.8-71.3,28.8c-27.4,0-52.4-10.6-71.3-28.8
	c-18.9,18.2-31.1,43.3-31.1,71.3v29.6c0,7.6,6.9,14.4,14.4,14.4h176.1c8.3,0,14.4-6.1,14.4-14.4v-29.6
	C1176.4,424.2,1163.4,399.2,1144.5,381z"/>
<path fill="#B93D90" d="M927.3,94.7c73.6,0,135.1,48.6,154.1,115.4c11.4,0.8,22,3,31.9,7.6c-16-85.8-93.4-151-186-151
	c-15.2,0-30.3,2.3-44.8,5.3c0,3,0.8,6.1,0.8,8.3c0,6.9-0.8,14.4-2.3,21.3C896.2,97,911.4,94.7,927.3,94.7z"/>
<linearGradient id="SVGID_8_" gradientUnits="userSpaceOnUse" x1="0" y1="358.9" x2="612" y2="358.9" gradientTransform="matrix(0.7071 0 0 -0.7071 743.6364 395.9596)">
	<stop  offset="0" style="stop-color:#1FC9FD"/>
	<stop  offset="1" style="stop-color:#FB0061"/>
</linearGradient>
<path fill="url(#SVGID_8_)" d="M927.3,94.7c73.6,0,135.1,48.6,154.1,115.4c11.4,0.8,22,3,31.9,7.6c-16-85.8-93.4-151-186-151
	c-15.2,0-30.3,2.3-44.8,5.3c0,3,0.8,6.1,0.8,8.3c0,6.9-0.8,14.4-2.3,21.3C896.2,97,911.4,94.7,927.3,94.7z"/>
<linearGradient id="SVGID_9_" gradientUnits="userSpaceOnUse" x1="0" y1="358.9" x2="612" y2="358.9" gradientTransform="matrix(0.7071 0 0 -0.7071 743.6364 395.9596)">
	<stop  offset="0" style="stop-color:#1FC9FD"/>
	<stop  offset="1" style="stop-color:#FB0061"/>
</linearGradient>
<path fill="url(#SVGID_9_)" d="M927.3,94.7c73.6,0,135.1,48.6,154.1,115.4c11.4,0.8,22,3,31.9,7.6c-16-85.8-93.4-151-186-151
	c-15.2,0-30.3,2.3-44.8,5.3c0,3,0.8,6.1,0.8,8.3c0,6.9-0.8,14.4-2.3,21.3C896.2,97,911.4,94.7,927.3,94.7z"/>
<path fill="#B93D90" d="M927.3,437.9c5.3,0,10.6,0,15.9-0.8c1.5-9.9,3.8-19.7,6.9-29.6c-6.9,1.5-14.4,2.3-22.8,2.3
	c-72.9,0-135.1-48.6-154.1-114.6h-29.6C763.4,377.2,838.5,437.9,927.3,437.9z"/>
<linearGradient id="SVGID_10_" gradientUnits="userSpaceOnUse" x1="-9.094947e-013" y1="41.65" x2="612" y2="41.65" gradientTransform="matrix(0.7071 0 0 -0.7071 743.6364 395.9596)">
	<stop  offset="0" style="stop-color:#1FC9FD"/>
	<stop  offset="1" style="stop-color:#FB0061"/>
</linearGradient>
<path fill="url(#SVGID_10_)" d="M927.3,437.9c5.3,0,10.6,0,15.9-0.8c1.5-9.9,3.8-19.7,6.9-29.6c-6.9,1.5-14.4,2.3-22.8,2.3
	c-72.9,0-135.1-48.6-154.1-114.6h-29.6C763.4,377.2,838.5,437.9,927.3,437.9z"/>
<linearGradient id="SVGID_11_" gradientUnits="userSpaceOnUse" x1="-9.094947e-013" y1="41.65" x2="612" y2="41.65" gradientTransform="matrix(0.7071 0 0 -0.7071 743.6364 395.9596)">
	<stop  offset="0" style="stop-color:#1FC9FD"/>
	<stop  offset="1" style="stop-color:#FB0061"/>
</linearGradient>
<path fill="url(#SVGID_11_)" d="M927.3,437.9c5.3,0,10.6,0,15.9-0.8c1.5-9.9,3.8-19.7,6.9-29.6c-6.9,1.5-14.4,2.3-22.8,2.3
	c-72.9,0-135.1-48.6-154.1-114.6h-29.6C763.4,377.2,838.5,437.9,927.3,437.9z"/>
</svg>
