<?xml version="1.0" encoding="utf-8"?>
<!-- Generator: Adobe Illustrator 17.1.0, SVG Export Plug-In . SVG Version: 6.00 Build 0)  -->
<!DOCTYPE svg PUBLIC "-//W3C//DTD SVG 1.1//EN" "http://www.w3.org/Graphics/SVG/1.1/DTD/svg11.dtd">
<svg version="1.1" id="Capa_1" xmlns="http://www.w3.org/2000/svg" xmlns:xlink="http://www.w3.org/1999/xlink" x="0px" y="0px"
	 viewBox="671.1 0 582 560" enable-background="new 671.1 0 582 560" xml:space="preserve">
<g>
	<linearGradient id="rect22454_1_" gradientUnits="userSpaceOnUse" x1="680" y1="280" x2="1239.9969" y2="280">
		<stop  offset="0" style="stop-color:#1FC9FD"/>
		<stop  offset="1" style="stop-color:#FB0061"/>
	</linearGradient>
	<path id="rect22454" fill="url(#rect22454_1_)" d="M1056.6,19.3c-1.8,0-3.7,0.5-5.2,1.5l-139.7,87.3V67.7
		c0-26.6-21.7-48.3-48.3-48.3H728.3c-26.6,0-48.3,21.7-48.3,48.3v144.8c0,5.3,4.3,9.7,9.7,9.7h366.8c5.3,0,9.7-4.3,9.7-9.7v-86.9
		c0-5.3-4.3-9.7-9.7-9.7H935.7l125.9-78.7C1070,32.2,1066.3,19.3,1056.6,19.3z M728.3,38.7h135.1c16.2,0,29,12.7,29,29v57.9
		c0,5.3,4.3,9.7,9.7,9.7h144.8v67.6H699.3V67.7C699.3,51.5,712.1,38.7,728.3,38.7z M718.6,53.2c-2.7,0-4.8,2.2-4.8,4.8v77.2
		c0,2.7,2.1,4.9,4.8,4.9c2.7,0,4.9-2.1,4.9-4.8c0,0,0-0.1,0-0.1V62.8h53.1c2.7,0,4.9-2.1,4.9-4.8s-2.1-4.9-4.8-4.9c0,0-0.1,0-0.1,0
		L718.6,53.2L718.6,53.2z M1230.3,183.4c-1.5,0-3,0.4-4.4,1.1l-115.8,57.9c-4.8,2.3-6.8,8.1-4.5,12.9c2.3,4.8,8.1,6.8,12.9,4.5
		c0.1-0.1,0.2-0.1,0.3-0.2l115.8-57.9c4.8-2.3,6.8-8.1,4.5-12.9C1237.4,185.5,1234,183.4,1230.3,183.4z M1230.3,241.4
		c-1.5,0-3,0.4-4.4,1.1l-115.8,57.9c-4.8,2.3-6.8,8.1-4.5,12.9c2.3,4.8,8.1,6.8,12.9,4.5c0.1-0.1,0.2-0.1,0.3-0.2l115.8-57.9
		c4.8-2.3,6.8-8.1,4.5-12.9C1237.4,243.5,1234,241.3,1230.3,241.4z M689.7,241.4c-5.3,0-9.7,4.3-9.7,9.7v115.8
		c0,5.3,4.3,9.7,9.7,9.7h366.8c5.3,0,9.7-4.3,9.7-9.7V251.1c0-5.3-4.3-9.7-9.7-9.7H689.7z M699.3,260.7h347.5v96.5H699.3V260.7z
		 M1230.3,299.2c-1.5,0-3,0.4-4.4,1.1l-115.8,57.9c-4.8,2.3-6.8,8.1-4.5,12.9c2.3,4.8,8.1,6.8,12.9,4.5c0.1-0.1,0.2-0.1,0.3-0.2
		l115.8-57.9c4.8-2.3,6.8-8.1,4.5-12.9C1237.4,301.3,1234,299.2,1230.3,299.2z M689.7,395.9c-5.3,0-9.7,4.3-9.7,9.7v86.9
		c0,26.6,21.7,48.3,48.3,48.3h289.6c26.6,0,48.3-21.7,48.3-48.3v-86.9c0-5.3-4.3-9.7-9.7-9.7h-96.5c-2.1,0-4.1,0.7-5.8,1.9l-36,27
		H808.7l-36-27c-1.7-1.3-3.7-1.9-5.8-1.9H689.7z M699.3,415.2h64.4l36,27c1.7,1.3,3.7,1.9,5.8,1.9h115.8c2.1,0,4.1-0.7,5.8-1.9
		l36-27h83.7v77.2c0,16.2-12.7,29-29,29H728.3c-16.2,0-29-12.7-29-29V415.2z M1027.4,458.6c-2.7,0-4.8,2.2-4.8,4.9v33.8h-24.1
		c-2.7,0-4.9,2.1-4.9,4.8c0,2.7,2.1,4.9,4.8,4.9c0,0,0.1,0,0.1,0h29c2.7,0,4.8-2.2,4.8-4.8v-38.6c0-2.7-2.1-4.9-4.8-4.9
		C1027.5,458.5,1027.5,458.5,1027.4,458.6z"/>
</g>
</svg>
