<?xml version="1.0" encoding="utf-8"?>
<!-- Generator: Adobe Illustrator 17.1.0, SVG Export Plug-In . SVG Version: 6.00 Build 0)  -->
<!DOCTYPE svg PUBLIC "-//W3C//DTD SVG 1.1//EN" "http://www.w3.org/Graphics/SVG/1.1/DTD/svg11.dtd">
<svg version="1.1" id="Layer_1" xmlns="http://www.w3.org/2000/svg" xmlns:xlink="http://www.w3.org/1999/xlink" x="0px" y="0px"
	 viewBox="0 0 471.3 511" enable-background="new 0 0 471.3 511" xml:space="preserve">
<g>
	<linearGradient id="SVGID_1_" gradientUnits="userSpaceOnUse" x1="-0.4793" y1="255.5" x2="470.8137" y2="255.5">
		<stop  offset="0" style="stop-color:#1FC9FD"/>
		<stop  offset="1" style="stop-color:#FB0061"/>
	</linearGradient>
	<path fill="url(#SVGID_1_)" d="M382.9,490.9v-42.5c0-4.1-3.3-7.5-7.5-7.5c-4.1,0-7.5,3.3-7.5,7.5v42.5c0,2.8-2.3,5.1-5.1,5.1H20.6
		c-2.8,0-5.1-2.3-5.1-5.1V20.1c0-2.8,2.3-5.1,5.1-5.1h342.2c2.8,0,5.1,2.3,5.1,5.1V253c0,4.1,3.4,7.5,7.5,7.5c4.1,0,7.5-3.4,7.5-7.5
		V20.1c0-11.1-9-20.1-20.1-20.1H20.6C9.5,0,0.5,9,0.5,20.1v470.8c0,11.1,9,20.1,20,20.1h342.4C373.9,511,382.9,502,382.9,490.9z"/>
	<linearGradient id="SVGID_2_" gradientUnits="userSpaceOnUse" x1="-0.4793" y1="255.5015" x2="470.8137" y2="255.5015">
		<stop  offset="0" style="stop-color:#1FC9FD"/>
		<stop  offset="1" style="stop-color:#FB0061"/>
	</linearGradient>
	<path fill="url(#SVGID_2_)" d="M452.9,275.4H137.7c-9.9,0-17.9,8.1-17.9,17.9v77.5c0,7.7,4.8,14.2,11.6,16.8l0,20.6
		c0,4.6,1.8,9,5.1,12.3c3.3,3.3,7.6,5.1,12.2,5.1l28.5,0v27.5c0,2.8,0.5,5.5,1.4,7.9H50.4V49.9H333v203c0,4.1,3.4,7.5,7.5,7.5
		c4.1,0,7.5-3.3,7.5-7.5V49.6c0-8.1-6.5-14.6-14.6-14.6H50c-8.1,0-14.6,6.5-14.6,14.6v411.9c0,8.1,6.5,14.6,14.6,14.6h283.3
		c8.1,0,14.6-6.5,14.6-14.6v-13c0-4.1-3.4-7.5-7.5-7.5c-4.1,0-7.5,3.3-7.5,7.5v12.7H221.5c0.9-2.5,1.4-5.2,1.4-7.9v-20.3
		c0-4.4,3.6-7.9,7.9-7.9c4.4,0,7.9,3.6,7.9,7.9v0.6c0,12.6,10.3,22.9,22.9,22.9c12.6,0,22.9-10.3,22.9-22.9v-7.6l157.1,0.2h0
		c4.6,0,9-1.8,12.2-5.1c3.3-3.3,5.1-7.6,5.1-12.2l0-21c6.8-2.6,11.6-9.1,11.6-16.8v-77.5C470.8,283.5,462.8,275.4,452.9,275.4z
		 M177.1,410.7l-28.5,0c-0.8,0-1.4-0.4-1.7-0.7c-0.3-0.3-0.7-0.8-0.7-1.7l0-19.5h30.8V410.7z M269.7,433.4c0,4.4-3.6,7.9-7.9,7.9
		c-4.4,0-7.9-3.6-7.9-7.9v-0.6c0-12.6-10.3-22.9-22.9-22.9S208,420.2,208,432.8v20.3c0,4.4-3.6,7.9-7.9,7.9c-4.4,0-7.9-3.6-7.9-7.9
		v-64.3h77.6V433.4z M444.2,408.6c0,0.8-0.4,1.4-0.7,1.7c-0.3,0.3-0.8,0.7-1.7,0.7h0l-157.2-0.2v-22h159.5L444.2,408.6z
		 M455.8,370.9c0,1.6-1.3,3-3,3H137.7c-1.6,0-3-1.3-3-3v-77.5c0-1.6,1.3-3,3-3h315.2c1.6,0,3,1.3,3,3V370.9z"/>
	<linearGradient id="SVGID_3_" gradientUnits="userSpaceOnUse" x1="-0.4793" y1="176.716" x2="470.8137" y2="176.716">
		<stop  offset="0" style="stop-color:#1FC9FD"/>
		<stop  offset="1" style="stop-color:#FB0061"/>
	</linearGradient>
	<path fill="url(#SVGID_3_)" d="M252.7,136.3c-3.1-4.6-8.2-7.3-13.8-7.3c-5.5,0-10.7,2.7-13.8,7.3l-17.4,25.6l-33.5-49.4
		c-3.1-4.6-8.2-7.3-13.8-7.3s-10.7,2.7-13.8,7.3L72.4,222.3c-3.5,5.1-3.8,11.7-0.9,17.1c2.9,5.5,8.5,8.8,14.7,8.8h211.1
		c6.2,0,11.8-3.4,14.7-8.8c2.9-5.5,2.5-12-0.9-17.1L252.7,136.3z M86.1,233.3c-0.8,0-1.3-0.5-1.5-0.9c-0.2-0.4-0.4-1,0.1-1.7
		l74.4-109.8c0.4-0.6,1-0.7,1.4-0.7c0.4,0,1,0.1,1.4,0.7l39.6,58.4c0,0.1,0.1,0.1,0.1,0.2l36.5,53.8H86.1z M298.8,232.4
		c-0.2,0.4-0.6,0.9-1.5,0.9h-41l-39.4-58.1l20.7-30.5c0.4-0.6,1-0.7,1.4-0.7c0.4,0,1,0.1,1.4,0.7l58.3,86
		C299.1,231.3,299,232,298.8,232.4z"/>
	<linearGradient id="SVGID_4_" gradientUnits="userSpaceOnUse" x1="-0.4793" y1="91.4901" x2="470.8137" y2="91.4901">
		<stop  offset="0" style="stop-color:#1FC9FD"/>
		<stop  offset="1" style="stop-color:#FB0061"/>
	</linearGradient>
	<path fill="url(#SVGID_4_)" d="M73,99h5.5v5.5c0,4.1,3.3,7.5,7.5,7.5c4.1,0,7.5-3.4,7.5-7.5V99h5.5c4.1,0,7.5-3.4,7.5-7.5
		c0-4.1-3.4-7.5-7.5-7.5h-5.5v-5.5c0-4.1-3.4-7.5-7.5-7.5c-4.1,0-7.5,3.3-7.5,7.5V84H73c-4.1,0-7.5,3.3-7.5,7.5
		C65.5,95.6,68.8,99,73,99z"/>
	<linearGradient id="SVGID_5_" gradientUnits="userSpaceOnUse" x1="-0.4793" y1="91.4901" x2="470.8137" y2="91.4901">
		<stop  offset="0" style="stop-color:#1FC9FD"/>
		<stop  offset="1" style="stop-color:#FB0061"/>
	</linearGradient>
	<path fill="url(#SVGID_5_)" d="M310.6,84h-5.5v-5.5c0-4.1-3.3-7.5-7.5-7.5c-4.1,0-7.5,3.3-7.5,7.5V84h-5.5c-4.1,0-7.5,3.3-7.5,7.5
		c0,4.1,3.4,7.5,7.5,7.5h5.5v5.5c0,4.1,3.4,7.5,7.5,7.5c4.1,0,7.5-3.4,7.5-7.5V99h5.5c4.1,0,7.5-3.4,7.5-7.5
		C318.1,87.4,314.8,84,310.6,84z"/>
	<linearGradient id="SVGID_6_" gradientUnits="userSpaceOnUse" x1="-0.4793" y1="418.2029" x2="470.8137" y2="418.2029">
		<stop  offset="0" style="stop-color:#1FC9FD"/>
		<stop  offset="1" style="stop-color:#FB0061"/>
	</linearGradient>
	<path fill="url(#SVGID_6_)" d="M98.9,410.7h-5.5v-5.5c0-4.1-3.4-7.5-7.5-7.5c-4.1,0-7.5,3.4-7.5,7.5v5.5H73c-4.1,0-7.5,3.4-7.5,7.5
		c0,4.1,3.3,7.5,7.5,7.5h5.5v5.5c0,4.1,3.3,7.5,7.5,7.5c4.1,0,7.5-3.4,7.5-7.5v-5.5h5.5c4.1,0,7.5-3.4,7.5-7.5
		C106.4,414.1,103,410.7,98.9,410.7z"/>
</g>
</svg>
