<?xml version="1.0" encoding="utf-8"?>
<!-- Generator: Adobe Illustrator 17.1.0, SVG Export Plug-In . SVG Version: 6.00 Build 0)  -->
<!DOCTYPE svg PUBLIC "-//W3C//DTD SVG 1.1//EN" "http://www.w3.org/Graphics/SVG/1.1/DTD/svg11.dtd">
<svg version="1.1" id="Capa_1" xmlns="http://www.w3.org/2000/svg" xmlns:xlink="http://www.w3.org/1999/xlink" x="0px" y="0px"
	 viewBox="267.5 0 964.9 1000" enable-background="new 267.5 0 964.9 1000" xml:space="preserve">
<path fill="#FFFFFF" d="M979.8,663.2c61.4-73.7,94.7-164.9,94.7-259.6C1074.6,180.7,893.9,0,671.1,0S267.5,180.7,267.5,403.5
	S448.2,807,671.1,807c84.2,0,163.2-24.6,231.6-73.7l238.6,249.1c10.5,10.5,22.8,15.8,38.6,15.8c14,0,26.3-5.3,36.8-14
	c10.5-9.6,15.8-22.8,15.8-36.2s-5.3-27-15.8-37.5L979.8,663.2z M671.1,701.8c-164.9,0-298.2-133.3-298.2-298.2
	s133.3-298.2,298.2-298.2s298.2,133.3,298.2,298.2S836,701.8,671.1,701.8z"/>
<linearGradient id="SVGID_1_" gradientUnits="userSpaceOnUse" x1="267.5439" y1="499.1228" x2="1232.4561" y2="499.1228">
	<stop  offset="0" style="stop-color:#1FC9FD"/>
	<stop  offset="1" style="stop-color:#FB0061"/>
</linearGradient>
<path fill="url(#SVGID_1_)" d="M979.8,663.2c61.4-73.7,94.7-164.9,94.7-259.6C1074.6,180.7,893.9,0,671.1,0S267.5,180.7,267.5,403.5
	S448.2,807,671.1,807c84.2,0,163.2-24.6,231.6-73.7l238.6,249.1c10.5,10.5,22.8,15.8,38.6,15.8c14,0,26.3-5.3,36.8-14
	c10.5-9.6,15.8-22.8,15.8-36.2s-5.3-27-15.8-37.5L979.8,663.2z M671.1,701.8c-164.9,0-298.2-133.3-298.2-298.2
	s133.3-298.2,298.2-298.2s298.2,133.3,298.2,298.2S836,701.8,671.1,701.8z"/>
</svg>
