<?xml version="1.0" encoding="utf-8"?>
<!-- Generator: Adobe Illustrator 23.0.2, SVG Export Plug-In . SVG Version: 6.00 Build 0)  -->
<svg version="1.1" id="Layer_1" xmlns="http://www.w3.org/2000/svg" xmlns:xlink="http://www.w3.org/1999/xlink" x="0px" y="0px"
	 viewBox="0 0 511 511" style="enable-background:new 0 0 511 511;" xml:space="preserve">
<style type="text/css">
	.st0{fill:#FFFFFF;}
	.st1{fill:url(#SVGID_1_);}
	.st2{fill:url(#SVGID_2_);}
	.st3{fill:url(#SVGID_3_);}
	.st4{fill:url(#SVGID_4_);}
</style>
<path class="st0" d="M49.9,256.5c0-5.5-4.5-10-10-10H10c-5.5,0-10,4.5-10,10c0,5.5,4.5,10,10,10h29.9
	C45.4,266.5,49.9,262,49.9,256.5z"/>
<linearGradient id="SVGID_1_" gradientUnits="userSpaceOnUse" x1="-0.4998" y1="256.5059" x2="511.4998" y2="256.5059">
	<stop  offset="0" style="stop-color:#1FC9FD"/>
	<stop  offset="1" style="stop-color:#FB0061"/>
</linearGradient>
<path class="st1" d="M49.9,256.5c0-5.5-4.5-10-10-10H10c-5.5,0-10,4.5-10,10c0,5.5,4.5,10,10,10h29.9
	C45.4,266.5,49.9,262,49.9,256.5z"/>
<path class="st0" d="M99.8,306.4H39.9c-5.5,0-10,4.5-10,10c0,5.5,4.5,10,10,10h59.9c5.5,0,10-4.5,10-10
	C109.8,310.9,105.3,306.4,99.8,306.4z"/>
<linearGradient id="SVGID_2_" gradientUnits="userSpaceOnUse" x1="-0.4998" y1="316.3906" x2="511.4998" y2="316.3906">
	<stop  offset="0" style="stop-color:#1FC9FD"/>
	<stop  offset="1" style="stop-color:#FB0061"/>
</linearGradient>
<path class="st2" d="M99.8,306.4H39.9c-5.5,0-10,4.5-10,10c0,5.5,4.5,10,10,10h59.9c5.5,0,10-4.5,10-10
	C109.8,310.9,105.3,306.4,99.8,306.4z"/>
<path class="st0" d="M39.9,206.6h59.9c5.5,0,10-4.5,10-10c0-5.5-4.5-10-10-10H39.9c-5.5,0-10,4.5-10,10
	C29.9,202.1,34.4,206.6,39.9,206.6z"/>
<linearGradient id="SVGID_3_" gradientUnits="userSpaceOnUse" x1="-0.4998" y1="196.6191" x2="511.4998" y2="196.6191">
	<stop  offset="0" style="stop-color:#1FC9FD"/>
	<stop  offset="1" style="stop-color:#FB0061"/>
</linearGradient>
<path class="st3" d="M39.9,206.6h59.9c5.5,0,10-4.5,10-10c0-5.5-4.5-10-10-10H39.9c-5.5,0-10,4.5-10,10
	C29.9,202.1,34.4,206.6,39.9,206.6z"/>
<path class="st0" d="M505.4,247.5L134.1,67.9c-3.6-1.8-7.9-1.2-10.9,1.5c-3,2.7-4.1,6.8-2.9,10.7l41.1,123.4l-67.1,44.8
	c-2.8,1.9-4.4,5-4.4,8.3s1.7,6.5,4.4,8.3l67.1,44.8L120.3,433c-1.3,3.8-0.1,8,2.9,10.7c3,2.7,7.3,3.2,10.9,1.5l371.3-179.7
	C512.8,261.9,513,251.2,505.4,247.5z M117.8,256.5l50.2-33.4l11.1,33.4L168,289.9L117.8,256.5z M146.7,416.9l50.1-150.4h65h8.7h89.8
	h4.8h92.4L146.7,416.9z M365.1,246.5L365.1,246.5l-103.3,0v0h-65L146.7,96.1l310.8,150.4H365.1z"/>
<linearGradient id="SVGID_4_" gradientUnits="userSpaceOnUse" x1="-0.4998" y1="256.5052" x2="511.4998" y2="256.5052">
	<stop  offset="0" style="stop-color:#1FC9FD"/>
	<stop  offset="1" style="stop-color:#FB0061"/>
</linearGradient>
<path class="st4" d="M505.4,247.5L134.1,67.9c-3.6-1.8-7.9-1.2-10.9,1.5c-3,2.7-4.1,6.8-2.9,10.7l41.1,123.4l-67.1,44.8
	c-2.8,1.9-4.4,5-4.4,8.3s1.7,6.5,4.4,8.3l67.1,44.8L120.3,433c-1.3,3.8-0.1,8,2.9,10.7c3,2.7,7.3,3.2,10.9,1.5l371.3-179.7
	C512.8,261.9,513,251.2,505.4,247.5z M117.8,256.5l50.2-33.4l11.1,33.4L168,289.9L117.8,256.5z M146.7,416.9l50.1-150.4h65h8.7h89.8
	h4.8h92.4L146.7,416.9z M365.1,246.5L365.1,246.5l-103.3,0v0h-65L146.7,96.1l310.8,150.4H365.1z"/>
</svg>
