<?xml version="1.0" encoding="utf-8"?>
<!-- Generator: Adobe Illustrator 21.0.0, SVG Export Plug-In . SVG Version: 6.00 Build 0)  -->
<svg version="1.1" id="Capa_1" xmlns="http://www.w3.org/2000/svg" xmlns:xlink="http://www.w3.org/1999/xlink" x="0px" y="0px"
	 viewBox="0 0 57 57" style="enable-background:new 0 0 57 57;" xml:space="preserve">
<style type="text/css">
	.st0{fill:#FFFFFF;}
	.st1{font-family:'BebasNeueBold';}
	.st2{font-size:36.6455px;}
</style>
<g>
	<g>
		<path class="st0" d="M43.4,23c-5.3,0-9.6,4.2-9.6,9.4s4.3,9.4,9.6,9.4s9.6-4.2,9.6-9.4S48.7,23,43.4,23z"/>
	</g>
</g>
<g>
	<g>
		<path class="st0" d="M52.8,41.8c-2.4,2.3-5.7,3.8-9.4,3.8c-3.6,0-6.9-1.4-9.4-3.8c-2.5,2.4-4.1,5.7-4.1,9.4v3.9
			c0,1,0.9,1.9,1.9,1.9H55c1.1,0,1.9-0.8,1.9-1.9v-3.9C57,47.5,55.3,44.2,52.8,41.8z"/>
	</g>
</g>
<g>
	<g>
		<path class="st0" d="M24.2,0.4c-2,0-4,0.3-5.9,0.7c0,0.4,0.1,0.8,0.1,1.1c0,0.9-0.1,1.9-0.3,2.8c2-0.6,4-0.9,6.1-0.9
			c9.7,0,17.8,6.4,20.3,15.2c1.5,0.1,2.9,0.4,4.2,1C46.6,9,36.4,0.4,24.2,0.4z"/>
	</g>
</g>
<g>
	<g>
		<path class="st0" d="M24.2,45.6c-9.6,0-17.8-6.4-20.3-15.1H0c2.6,10.8,12.5,18.8,24.2,18.8c0.7,0,1.4,0,2.1-0.1
			c0.2-1.3,0.5-2.6,0.9-3.9C26.3,45.5,25.3,45.6,24.2,45.6z"/>
	</g>
</g>
<text transform="matrix(1 0 0 1 14.6516 36.7695)" class="st0 st1 st2">A</text>
</svg>
