<?xml version="1.0" encoding="utf-8"?>
<!-- Generator: Adobe Illustrator 17.1.0, SVG Export Plug-In . SVG Version: 6.00 Build 0)  -->
<!DOCTYPE svg PUBLIC "-//W3C//DTD SVG 1.1//EN" "http://www.w3.org/Graphics/SVG/1.1/DTD/svg11.dtd">
<svg version="1.1" id="Capa_1" xmlns="http://www.w3.org/2000/svg" xmlns:xlink="http://www.w3.org/1999/xlink" x="0px" y="0px"
	 viewBox="680 0 560 560" enable-background="new 680 0 560 560" xml:space="preserve">
<g>
	<linearGradient id="SVGID_1_" gradientUnits="userSpaceOnUse" x1="680.0001" y1="280" x2="1240" y2="280">
		<stop  offset="0" style="stop-color:#1FC9FD"/>
		<stop  offset="1" style="stop-color:#FB0061"/>
	</linearGradient>
	<path fill="url(#SVGID_1_)" d="M1018.8,531.1l6.7-39.3c13.2-4.1,26-9.4,38.1-15.8l32.4,23.2c5.8,4.2,12.9,6.4,20.1,6.4
		c9.2,0,17.9-3.6,24.4-10.2l34.9-34.9c11.9-11.9,13.6-30.8,3.7-44.6l-23.2-32.5c6.4-12.3,11.8-25,15.8-38.1l39.3-6.6
		c16.7-2.8,28.9-17.2,28.9-34.2v-49.2c0.2-17-11.9-31.4-28.7-34.2l-39.3-6.7c-4.1-13.2-9.4-26-15.8-38.1l23.2-32.4
		c9.8-13.8,8.3-32.6-3.7-44.6l-34.9-34.9c-6.6-6.6-15.2-10.2-24.4-10.2c-7.3,0-14.2,2.2-20,6.4L1063.8,84
		c-12.6-6.7-25.9-12.2-39.5-16.3l-6.6-38.8C1014.9,12.2,1000.5,0,983.6,0h-49.2c-17,0-31.4,12.2-34.2,28.9l-6.8,39.8
		c-13.1,4.1-25.9,9.5-38,16l-32.2-23.2c-5.8-4.2-12.9-6.4-20.1-6.4c-9.2,0-18,3.6-24.4,10.2l-35,34.9c-11.9,11.9-13.6,30.8-3.7,44.6
		l23.4,32.9c-6.4,12.3-11.6,25-15.6,38.3l-38.8,6.6c-16.7,2.8-28.9,17.2-28.9,34.2v49.2c0,17,12.2,31.4,28.9,34.2l39.8,6.8
		c4.1,13.1,9.5,25.9,16,38l-23,32.1c-9.8,13.8-8.3,32.6,3.7,44.6l34.9,34.9c6.6,6.6,15.2,10.2,24.4,10.2c7.3,0,14.2-2.2,20-6.4
		l32.9-23.4c11.8,6.2,24.2,11.2,37,15.2l6.6,39.3c2.8,16.7,17.2,28.9,34.2,28.9h49.4C1001.6,560,1016,547.8,1018.8,531.1z
		 M996,476.9l-8.3,49.1c-0.2,1.5-1.5,2.6-3,2.6h-49.2c-1.5,0-2.8-1.1-3-2.6l-8.2-49.1c-1.1-6.2-5.6-11.1-11.6-12.6
		c-16.7-4.3-32.9-11-48-19.7c-2.5-1.4-5.3-2.1-8-2.1c-3.2,0-6.4,0.9-9.1,2.9l-40.9,29.1c-0.6,0.4-1.2,0.6-1.8,0.6
		c-0.5,0-1.4-0.1-2.2-0.9l-34.9-34.9c-1.1-1.1-1.2-2.7-0.4-4l28.8-40.4c3.6-5.1,3.9-11.9,0.7-17.3c-9.1-15.2-16.1-31.7-20.6-48.9
		c-1.6-6-6.6-10.5-12.6-11.6l-49.5-8.4c-1.5-0.2-2.6-1.5-2.6-3v-49.2c0-1.5,1.1-2.8,2.6-3l48.8-8.2c6.2-1.1,11.2-5.6,12.8-11.7
		c4.3-17.2,11-33.8,20-49.1c3.2-5.4,2.8-12-0.8-17.1l-29.1-40.9c-0.8-1.2-0.7-2.9,0.4-4L801,87.6c0.8-0.8,1.6-0.9,2.2-0.9
		c0.7,0,1.3,0.2,1.8,0.6l40.4,28.8c5.1,3.6,11.9,3.9,17.3,0.7c15.2-9.1,31.7-16.1,48.9-20.6c6-1.6,10.5-6.6,11.6-12.6l8.4-49.5
		c0.2-1.5,1.5-2.6,3-2.6h49.2c1.5,0,2.8,1.1,3,2.6l8.2,48.8c1.1,6.2,5.6,11.2,11.7,12.8c17.7,4.4,34.5,11.3,50.2,20.6
		c5.4,3.2,12,2.9,17.2-0.7l40.4-29c0.6-0.4,1.2-0.6,1.8-0.6c0.5,0,1.4,0.1,2.2,0.9l34.9,34.9c1.1,1.1,1.2,2.7,0.4,4l-28.9,40.6
		c-3.6,5-3.9,11.8-0.7,17.2c9.1,15.3,15.9,31.8,20.4,49c1.5,6.1,6.6,10.6,12.6,11.6l49.1,8.3c1.5,0.2,2.6,1.5,2.6,3v49.2h-0.1
		c0,1.5-1.1,2.8-2.6,3l-49.1,8.2c-6.2,1.1-11.1,5.6-12.6,11.6c-4.4,17.2-11.2,33.7-20.4,49c-3.2,5.4-2.9,12,0.7,17.2l28.9,40.7
		c0.8,1.2,0.7,2.9-0.4,4l-34.9,34.9c-0.8,0.8-1.6,0.9-2.2,0.9c-0.7,0-1.3-0.2-1.8-0.6l-40.6-28.9c-5-3.6-11.8-3.9-17.2-0.7
		c-15.3,9.1-31.8,15.9-49,20.4C1001.5,465.8,996.9,470.9,996,476.9z"/>
	<linearGradient id="SVGID_2_" gradientUnits="userSpaceOnUse" x1="680.0001" y1="279.9415" x2="1240" y2="279.9415">
		<stop  offset="0" style="stop-color:#1FC9FD"/>
		<stop  offset="1" style="stop-color:#FB0061"/>
	</linearGradient>
	<path fill="url(#SVGID_2_)" d="M960.1,159.1c-66.7,0-120.8,54.2-120.8,120.8s54.2,120.8,120.8,120.8c66.7,0,120.8-54.2,120.8-120.8
		S1026.7,159.1,960.1,159.1z M960.1,369.2c-49.2,0-89.3-40-89.3-89.3s40-89.3,89.3-89.3s89.3,40,89.3,89.3S1009.3,369.2,960.1,369.2
		z"/>
</g>
</svg>
