<?xml version="1.0" encoding="utf-8"?>
<!-- Generator: Adobe Illustrator 23.0.2, SVG Export Plug-In . SVG Version: 6.00 Build 0)  -->
<svg version="1.1" id="Capa_1" xmlns="http://www.w3.org/2000/svg" xmlns:xlink="http://www.w3.org/1999/xlink" x="0px" y="0px"
	 viewBox="0 0 512 512" style="enable-background:new 0 0 512 512;" xml:space="preserve">
<style type="text/css">
	.st0{fill:#FFFFFF;}
	.st1{fill:url(#SVGID_1_);}
	.st2{fill:url(#SVGID_2_);}
</style>
<path class="st0" d="M366.2,200.3H337l12-42.7c2.1-7.6-2.3-15.5-9.9-17.6c-7.6-2.1-15.5,2.3-17.6,9.9l-14.1,50.4h-75l11.9-42.5
	c2.1-7.6-2.3-15.5-9.9-17.6c-7.6-2.1-15.5,2.3-17.6,9.9l-14.1,50.2h-40.5c-7.9,0-14.3,6.4-14.3,14.3c0,7.9,6.4,14.3,14.3,14.3h32.5
	l-14.8,53H145c-7.9,0-14.3,6.4-14.3,14.3c0,7.9,6.4,14.3,14.3,14.3h26.8l-12.2,43.6c-2.1,7.6,2.3,15.5,9.9,17.6
	c8.6,2.1,15.8-3.6,17.6-9.9l14.4-51.3h75l-12.2,43.4c-2.1,7.6,2.3,15.5,9.9,17.6c9.3,2.3,15.8-3.6,17.6-9.9l14.3-51.2H349
	c7.9,0,14.3-6.4,14.3-14.3c0-7.9-6.4-14.3-14.3-14.3h-34.9l14.8-53h37.2c7.9,0,14.3-6.4,14.3-14.3
	C380.5,206.7,374.1,200.3,366.2,200.3z M284.5,281.9h-75l14.8-53h75L284.5,281.9z"/>
<linearGradient id="SVGID_1_" gradientUnits="userSpaceOnUse" x1="0" y1="255.7631" x2="512" y2="255.7631">
	<stop  offset="0" style="stop-color:#1FC9FD"/>
	<stop  offset="1" style="stop-color:#FB0061"/>
</linearGradient>
<path class="st1" d="M366.2,200.3H337l12-42.7c2.1-7.6-2.3-15.5-9.9-17.6c-7.6-2.1-15.5,2.3-17.6,9.9l-14.1,50.4h-75l11.9-42.5
	c2.1-7.6-2.3-15.5-9.9-17.6c-7.6-2.1-15.5,2.3-17.6,9.9l-14.1,50.2h-40.5c-7.9,0-14.3,6.4-14.3,14.3c0,7.9,6.4,14.3,14.3,14.3h32.5
	l-14.8,53H145c-7.9,0-14.3,6.4-14.3,14.3c0,7.9,6.4,14.3,14.3,14.3h26.8l-12.2,43.6c-2.1,7.6,2.3,15.5,9.9,17.6
	c8.6,2.1,15.8-3.6,17.6-9.9l14.4-51.3h75l-12.2,43.4c-2.1,7.6,2.3,15.5,9.9,17.6c9.3,2.3,15.8-3.6,17.6-9.9l14.3-51.2H349
	c7.9,0,14.3-6.4,14.3-14.3c0-7.9-6.4-14.3-14.3-14.3h-34.9l14.8-53h37.2c7.9,0,14.3-6.4,14.3-14.3
	C380.5,206.7,374.1,200.3,366.2,200.3z M284.5,281.9h-75l14.8-53h75L284.5,281.9z"/>
<path class="st0" d="M349.4,30.9c-29.6-12.3-60.9-18.6-93.1-18.6c-0.1,0-0.2,0-0.4,0c-65.1,0-135.6,28.6-182.5,82.2
	C34,139,12.3,196.3,12.3,256c0,42.8,11.1,84.6,32.2,121.3l-17.9,71.5c-2.5,10.1,0.3,20.7,7.5,28.3c9.7,10.1,21,10.1,28.9,8.2
	l76.3-15.3c35.5,19.4,75.8,29.6,116.7,29.6c59.7,0,117-21.7,161.5-61.2c60.1-58.4,82.2-117.4,82.2-182.5
	c0-65.1-25.4-126.3-71.4-172.3C405.6,60.9,379.1,43.2,349.4,30.9z M398.6,417.2c-39.2,34.8-89.9,54-142.6,54
	c-37.3,0-74-9.6-106-27.8c-2.8-1.6-5.9-2.4-9.1-2.4c-1.2,0-2.4,0.1-3.6,0.4l-80.2,16.1l-0.6,0.1c-0.8,0.2-1.2,0.2-1.4,0.2
	c-0.1-0.1-0.2-0.2-0.4-0.4c-0.4-0.5-0.6-1.1-0.5-1.7l18.9-75.5c1.2-4.7,0.5-9.7-2.1-13.9C51.3,333.2,40.8,295.1,40.8,256
	c0-52.7,19.2-103.3,54-142.6C139.3,63.6,198.5,40.8,256,40.8h0.3c57.3,0.1,111.3,22.5,151.8,63c40.6,40.6,63,94.7,63,152.1
	C471.2,313.5,451.9,368.5,398.6,417.2z"/>
<linearGradient id="SVGID_2_" gradientUnits="userSpaceOnUse" x1="0" y1="256" x2="512" y2="256">
	<stop  offset="0" style="stop-color:#1FC9FD"/>
	<stop  offset="1" style="stop-color:#FB0061"/>
</linearGradient>
<path class="st2" d="M349.4,30.9c-29.6-12.3-60.9-18.6-93.1-18.6c-0.1,0-0.2,0-0.4,0c-65.1,0-135.6,28.6-182.5,82.2
	C34,139,12.3,196.3,12.3,256c0,42.8,11.1,84.6,32.2,121.3l-17.9,71.5c-2.5,10.1,0.3,20.7,7.5,28.3c9.7,10.1,21,10.1,28.9,8.2
	l76.3-15.3c35.5,19.4,75.8,29.6,116.7,29.6c59.7,0,117-21.7,161.5-61.2c60.1-58.4,82.2-117.4,82.2-182.5
	c0-65.1-25.4-126.3-71.4-172.3C405.6,60.9,379.1,43.2,349.4,30.9z M398.6,417.2c-39.2,34.8-89.9,54-142.6,54
	c-37.3,0-74-9.6-106-27.8c-2.8-1.6-5.9-2.4-9.1-2.4c-1.2,0-2.4,0.1-3.6,0.4l-80.2,16.1l-0.6,0.1c-0.8,0.2-1.2,0.2-1.4,0.2
	c-0.1-0.1-0.2-0.2-0.4-0.4c-0.4-0.5-0.6-1.1-0.5-1.7l18.9-75.5c1.2-4.7,0.5-9.7-2.1-13.9C51.3,333.2,40.8,295.1,40.8,256
	c0-52.7,19.2-103.3,54-142.6C139.3,63.6,198.5,40.8,256,40.8h0.3c57.3,0.1,111.3,22.5,151.8,63c40.6,40.6,63,94.7,63,152.1
	C471.2,313.5,451.9,368.5,398.6,417.2z"/>
</svg>
