<?xml version="1.0" encoding="utf-8"?>
<!-- Generator: Adobe Illustrator 23.0.2, SVG Export Plug-In . SVG Version: 6.00 Build 0)  -->
<svg version="1.1" id="Capa_1" xmlns="http://www.w3.org/2000/svg" xmlns:xlink="http://www.w3.org/1999/xlink" x="0px" y="0px"
	 viewBox="0 0 512 512" style="enable-background:new 0 0 512 512;" xml:space="preserve">
<style type="text/css">
	.st0{fill:#FFFFFF;}
	.st1{fill:url(#SVGID_1_);}
	.st2{fill:url(#SVGID_2_);}
	.st3{fill:url(#SVGID_3_);}
	.st4{fill:url(#SVGID_4_);}
	.st5{fill:url(#SVGID_5_);}
	.st6{fill:url(#SVGID_6_);}
	.st7{fill:url(#SVGID_7_);}
	.st8{fill:url(#SVGID_8_);}
	.st9{fill:url(#SVGID_9_);}
	.st10{fill:url(#SVGID_10_);}
	.st11{fill:url(#SVGID_11_);}
	.st12{fill:url(#SVGID_12_);}
	.st13{fill:url(#SVGID_13_);}
	.st14{fill:url(#SVGID_14_);}
	.st15{fill:url(#SVGID_15_);}
	.st16{fill:url(#SVGID_16_);}
	.st17{fill:url(#SVGID_17_);}
</style>
<path class="st0" d="M208.8,443.4H166c-3.9,0-7,3.1-7,7c0,3.9,3.1,7,7,7h42.8c3.9,0,7-3.1,7-7C215.8,446.5,212.7,443.4,208.8,443.4z
	"/>
<linearGradient id="SVGID_1_" gradientUnits="userSpaceOnUse" x1="1.831400e-04" y1="450.3463" x2="511.9998" y2="450.3463">
	<stop  offset="0" style="stop-color:#1FC9FD"/>
	<stop  offset="1" style="stop-color:#FB0061"/>
</linearGradient>
<path class="st1" d="M208.8,443.4H166c-3.9,0-7,3.1-7,7c0,3.9,3.1,7,7,7h42.8c3.9,0,7-3.1,7-7C215.8,446.5,212.7,443.4,208.8,443.4z
	"/>
<path class="st0" d="M238.7,19.8H62.1c-3.9,0-7,3.1-7,7v176.6c0,3.9,3.1,7,7,7h176.6c3.9,0,7-3.1,7-7V26.8
	C245.6,23,242.5,19.8,238.7,19.8z M107.8,196.4l44.9-77.8l44.9,77.8H107.8z M127.3,134.8c-14.7-5.3-24.6-19.3-24.6-35.2
	c0-20.7,16.8-37.5,37.5-37.5s37.5,16.8,37.5,37.5c0,8-2.5,15.7-7.1,22l-11.8-20.4c-1.2-2.2-3.5-3.5-6-3.5c-2.5,0-4.8,1.3-6,3.5
	L127.3,134.8z M231.7,196.4h-17.9l-35.8-62c8.8-9.5,13.7-21.9,13.7-34.9c0-28.4-23.1-51.5-51.5-51.5c-28.4,0-51.5,23.1-51.5,51.5
	c0,21.1,12.6,39.6,31.5,47.5l-28.5,49.4H69.1V33.8h162.6V196.4z"/>
<linearGradient id="SVGID_2_" gradientUnits="userSpaceOnUse" x1="1.831400e-04" y1="115.1036" x2="511.9998" y2="115.1036">
	<stop  offset="0" style="stop-color:#1FC9FD"/>
	<stop  offset="1" style="stop-color:#FB0061"/>
</linearGradient>
<path class="st2" d="M238.7,19.8H62.1c-3.9,0-7,3.1-7,7v176.6c0,3.9,3.1,7,7,7h176.6c3.9,0,7-3.1,7-7V26.8
	C245.6,23,242.5,19.8,238.7,19.8z M107.8,196.4l44.9-77.8l44.9,77.8H107.8z M127.3,134.8c-14.7-5.3-24.6-19.3-24.6-35.2
	c0-20.7,16.8-37.5,37.5-37.5s37.5,16.8,37.5,37.5c0,8-2.5,15.7-7.1,22l-11.8-20.4c-1.2-2.2-3.5-3.5-6-3.5c-2.5,0-4.8,1.3-6,3.5
	L127.3,134.8z M231.7,196.4h-17.9l-35.8-62c8.8-9.5,13.7-21.9,13.7-34.9c0-28.4-23.1-51.5-51.5-51.5c-28.4,0-51.5,23.1-51.5,51.5
	c0,21.1,12.6,39.6,31.5,47.5l-28.5,49.4H69.1V33.8h162.6V196.4z"/>
<path class="st0" d="M238.7,237.1H62.1c-3.9,0-7,3.1-7,7v185.2c0,3.9,3.1,7,7,7s7-3.1,7-7V251.1h162.6v229.2H69.1v-22.7
	c0-3.9-3.1-7-7-7s-7,3.1-7,7v29.7c0,3.9,3.1,7,7,7h176.6c3.9,0,7-3.1,7-7V244.1C245.6,240.3,242.5,237.1,238.7,237.1z"/>
<linearGradient id="SVGID_3_" gradientUnits="userSpaceOnUse" x1="1.831400e-04" y1="365.6678" x2="511.9998" y2="365.6678">
	<stop  offset="0" style="stop-color:#1FC9FD"/>
	<stop  offset="1" style="stop-color:#FB0061"/>
</linearGradient>
<path class="st3" d="M238.7,237.1H62.1c-3.9,0-7,3.1-7,7v185.2c0,3.9,3.1,7,7,7s7-3.1,7-7V251.1h162.6v229.2H69.1v-22.7
	c0-3.9-3.1-7-7-7s-7,3.1-7,7v29.7c0,3.9,3.1,7,7,7h176.6c3.9,0,7-3.1,7-7V244.1C245.6,240.3,242.5,237.1,238.7,237.1z"/>
<path class="st0" d="M92,288h42.8c3.9,0,7-3.1,7-7c0-3.9-3.1-7-7-7H92c-3.9,0-7,3.1-7,7C85,284.8,88.1,288,92,288z"/>
<linearGradient id="SVGID_4_" gradientUnits="userSpaceOnUse" x1="1.831400e-04" y1="280.993" x2="511.9998" y2="280.993">
	<stop  offset="0" style="stop-color:#1FC9FD"/>
	<stop  offset="1" style="stop-color:#FB0061"/>
</linearGradient>
<path class="st4" d="M92,288h42.8c3.9,0,7-3.1,7-7c0-3.9-3.1-7-7-7H92c-3.9,0-7,3.1-7,7C85,284.8,88.1,288,92,288z"/>
<path class="st0" d="M92,318.7h116.8c3.9,0,7-3.1,7-7c0-3.9-3.1-7-7-7H92c-3.9,0-7,3.1-7,7C85,315.6,88.1,318.7,92,318.7z"/>
<linearGradient id="SVGID_5_" gradientUnits="userSpaceOnUse" x1="1.831400e-04" y1="311.6999" x2="511.9998" y2="311.6999">
	<stop  offset="0" style="stop-color:#1FC9FD"/>
	<stop  offset="1" style="stop-color:#FB0061"/>
</linearGradient>
<path class="st5" d="M92,318.7h116.8c3.9,0,7-3.1,7-7c0-3.9-3.1-7-7-7H92c-3.9,0-7,3.1-7,7C85,315.6,88.1,318.7,92,318.7z"/>
<path class="st0" d="M92,353.6h116.8c3.9,0,7-3.1,7-7c0-3.9-3.1-7-7-7H92c-3.9,0-7,3.1-7,7C85,350.4,88.1,353.6,92,353.6z"/>
<linearGradient id="SVGID_6_" gradientUnits="userSpaceOnUse" x1="1.831400e-04" y1="346.5941" x2="511.9998" y2="346.5941">
	<stop  offset="0" style="stop-color:#1FC9FD"/>
	<stop  offset="1" style="stop-color:#FB0061"/>
</linearGradient>
<path class="st6" d="M92,353.6h116.8c3.9,0,7-3.1,7-7c0-3.9-3.1-7-7-7H92c-3.9,0-7,3.1-7,7C85,350.4,88.1,353.6,92,353.6z"/>
<path class="st0" d="M92,388.5h116.8c3.9,0,7-3.1,7-7c0-3.9-3.1-7-7-7H92c-3.9,0-7,3.1-7,7C85,385.3,88.1,388.5,92,388.5z"/>
<linearGradient id="SVGID_7_" gradientUnits="userSpaceOnUse" x1="1.831400e-04" y1="381.4884" x2="511.9998" y2="381.4884">
	<stop  offset="0" style="stop-color:#1FC9FD"/>
	<stop  offset="1" style="stop-color:#FB0061"/>
</linearGradient>
<path class="st7" d="M92,388.5h116.8c3.9,0,7-3.1,7-7c0-3.9-3.1-7-7-7H92c-3.9,0-7,3.1-7,7C85,385.3,88.1,388.5,92,388.5z"/>
<path class="st0" d="M92,423.4h116.8c3.9,0,7-3.1,7-7c0-3.9-3.1-7-7-7H92c-3.9,0-7,3.1-7,7C85,420.2,88.1,423.4,92,423.4z"/>
<linearGradient id="SVGID_8_" gradientUnits="userSpaceOnUse" x1="1.831400e-04" y1="416.3826" x2="511.9998" y2="416.3826">
	<stop  offset="0" style="stop-color:#1FC9FD"/>
	<stop  offset="1" style="stop-color:#FB0061"/>
</linearGradient>
<path class="st8" d="M92,423.4h116.8c3.9,0,7-3.1,7-7c0-3.9-3.1-7-7-7H92c-3.9,0-7,3.1-7,7C85,420.2,88.1,423.4,92,423.4z"/>
<path class="st0" d="M449.9,17.8H273.3c-3.9,0-7,3.1-7,7v243.1c0,3.9,3.1,7,7,7h45.8c3.9,0,7-3.1,7-7s-3.1-7-7-7h-38.8V31.7h162.6
	v229.2h-94.2c-3.9,0-7,3.1-7,7s3.1,7,7,7h101.2c3.9,0,7-3.1,7-7V24.8C456.9,20.9,453.7,17.8,449.9,17.8z"/>
<linearGradient id="SVGID_9_" gradientUnits="userSpaceOnUse" x1="1.831400e-04" y1="146.3322" x2="511.9998" y2="146.3322">
	<stop  offset="0" style="stop-color:#1FC9FD"/>
	<stop  offset="1" style="stop-color:#FB0061"/>
</linearGradient>
<path class="st9" d="M449.9,17.8H273.3c-3.9,0-7,3.1-7,7v243.1c0,3.9,3.1,7,7,7h45.8c3.9,0,7-3.1,7-7s-3.1-7-7-7h-38.8V31.7h162.6
	v229.2h-94.2c-3.9,0-7,3.1-7,7s3.1,7,7,7h101.2c3.9,0,7-3.1,7-7V24.8C456.9,20.9,453.7,17.8,449.9,17.8z"/>
<path class="st0" d="M303.2,68.6H346c3.9,0,7-3.1,7-7c0-3.9-3.1-7-7-7h-42.8c-3.9,0-7,3.1-7,7C296.2,65.5,299.3,68.6,303.2,68.6z"/>
<linearGradient id="SVGID_10_" gradientUnits="userSpaceOnUse" x1="1.831400e-04" y1="61.6537" x2="511.9998" y2="61.6537">
	<stop  offset="0" style="stop-color:#1FC9FD"/>
	<stop  offset="1" style="stop-color:#FB0061"/>
</linearGradient>
<path class="st10" d="M303.2,68.6H346c3.9,0,7-3.1,7-7c0-3.9-3.1-7-7-7h-42.8c-3.9,0-7,3.1-7,7C296.2,65.5,299.3,68.6,303.2,68.6z"
	/>
<path class="st0" d="M420,224h-42.8c-3.9,0-7,3.1-7,7c0,3.9,3.1,7,7,7H420c3.9,0,7-3.1,7-7C427,227.2,423.9,224,420,224z"/>
<linearGradient id="SVGID_11_" gradientUnits="userSpaceOnUse" x1="1.831400e-04" y1="231.007" x2="511.9998" y2="231.007">
	<stop  offset="0" style="stop-color:#1FC9FD"/>
	<stop  offset="1" style="stop-color:#FB0061"/>
</linearGradient>
<path class="st11" d="M420,224h-42.8c-3.9,0-7,3.1-7,7c0,3.9,3.1,7,7,7H420c3.9,0,7-3.1,7-7C427,227.2,423.9,224,420,224z"/>
<path class="st0" d="M303.2,99.3H420c3.9,0,7-3.1,7-7c0-3.9-3.1-7-7-7H303.2c-3.9,0-7,3.1-7,7C296.2,96.2,299.3,99.3,303.2,99.3z"/>
<linearGradient id="SVGID_12_" gradientUnits="userSpaceOnUse" x1="1.831400e-04" y1="92.3606" x2="511.9998" y2="92.3606">
	<stop  offset="0" style="stop-color:#1FC9FD"/>
	<stop  offset="1" style="stop-color:#FB0061"/>
</linearGradient>
<path class="st12" d="M303.2,99.3H420c3.9,0,7-3.1,7-7c0-3.9-3.1-7-7-7H303.2c-3.9,0-7,3.1-7,7C296.2,96.2,299.3,99.3,303.2,99.3z"
	/>
<path class="st0" d="M303.2,134.2H420c3.9,0,7-3.1,7-7c0-3.9-3.1-7-7-7H303.2c-3.9,0-7,3.1-7,7C296.2,131.1,299.3,134.2,303.2,134.2
	z"/>
<linearGradient id="SVGID_13_" gradientUnits="userSpaceOnUse" x1="1.831400e-04" y1="127.2548" x2="511.9998" y2="127.2548">
	<stop  offset="0" style="stop-color:#1FC9FD"/>
	<stop  offset="1" style="stop-color:#FB0061"/>
</linearGradient>
<path class="st13" d="M303.2,134.2H420c3.9,0,7-3.1,7-7c0-3.9-3.1-7-7-7H303.2c-3.9,0-7,3.1-7,7
	C296.2,131.1,299.3,134.2,303.2,134.2z"/>
<path class="st0" d="M303.2,169.1H420c3.9,0,7-3.1,7-7c0-3.9-3.1-7-7-7H303.2c-3.9,0-7,3.1-7,7C296.2,166,299.3,169.1,303.2,169.1z"
	/>
<linearGradient id="SVGID_14_" gradientUnits="userSpaceOnUse" x1="1.831400e-04" y1="162.1491" x2="511.9998" y2="162.1491">
	<stop  offset="0" style="stop-color:#1FC9FD"/>
	<stop  offset="1" style="stop-color:#FB0061"/>
</linearGradient>
<path class="st14" d="M303.2,169.1H420c3.9,0,7-3.1,7-7c0-3.9-3.1-7-7-7H303.2c-3.9,0-7,3.1-7,7C296.2,166,299.3,169.1,303.2,169.1z
	"/>
<path class="st0" d="M303.2,204H420c3.9,0,7-3.1,7-7c0-3.9-3.1-7-7-7H303.2c-3.9,0-7,3.1-7,7C296.2,200.9,299.3,204,303.2,204z"/>
<linearGradient id="SVGID_15_" gradientUnits="userSpaceOnUse" x1="1.831400e-04" y1="197.0433" x2="511.9998" y2="197.0433">
	<stop  offset="0" style="stop-color:#1FC9FD"/>
	<stop  offset="1" style="stop-color:#FB0061"/>
</linearGradient>
<path class="st15" d="M303.2,204H420c3.9,0,7-3.1,7-7c0-3.9-3.1-7-7-7H303.2c-3.9,0-7,3.1-7,7C296.2,200.9,299.3,204,303.2,204z"/>
<path class="st0" d="M449.9,303.7H273.3c-3.9,0-7,3.1-7,7v176.6c0,3.9,3.1,7,7,7h176.6c3.9,0,7-3.1,7-7V310.7
	C456.9,306.8,453.7,303.7,449.9,303.7z M442.9,480.3H280.3V317.7h162.6V480.3z"/>
<linearGradient id="SVGID_16_" gradientUnits="userSpaceOnUse" x1="1.831400e-04" y1="398.9573" x2="511.9998" y2="398.9573">
	<stop  offset="0" style="stop-color:#1FC9FD"/>
	<stop  offset="1" style="stop-color:#FB0061"/>
</linearGradient>
<path class="st16" d="M449.9,303.7H273.3c-3.9,0-7,3.1-7,7v176.6c0,3.9,3.1,7,7,7h176.6c3.9,0,7-3.1,7-7V310.7
	C456.9,306.8,453.7,303.7,449.9,303.7z M442.9,480.3H280.3V317.7h162.6V480.3z"/>
<path class="st0" d="M296.4,394.9c0,3.9,3.1,7,7,7h19.8c3.9,0,7-3.1,7-7v-10.5h10.5v37.2h-4.6c-3.9,0-7,3.1-7,7v19.8
	c0,3.9,3.1,7,7,7h50.9c3.9,0,7-3.1,7-7v-19.8c0-3.9-3.1-7-7-7h-4.6v-37.2H393v10.5c0,3.9,3.1,7,7,7h19.8c3.9,0,7-3.1,7-7v-45.3
	c0-3.9-3.1-7-7-7H303.4c-3.9,0-7,3.1-7,7v27.8c0,0.1,0,0.1,0,0.2V394.9z M310.4,356.5h102.4v31.3h-5.9v-10.5c0-3.9-3.1-7-7-7h-24.4
	c-3.9,0-7,3.1-7,7v51.1c0,3.9,3.1,7,7,7h4.6v5.9h-37v-5.9h4.6c3.9,0,7-3.1,7-7v-51.1c0-3.9-3.1-7-7-7h-24.4c-3.9,0-7,3.1-7,7v10.5
	h-5.9v-10.5c0-0.1,0-0.1,0-0.2V356.5z"/>
<linearGradient id="SVGID_17_" gradientUnits="userSpaceOnUse" x1="1.831400e-04" y1="398.9573" x2="511.9998" y2="398.9573">
	<stop  offset="0" style="stop-color:#1FC9FD"/>
	<stop  offset="1" style="stop-color:#FB0061"/>
</linearGradient>
<path class="st17" d="M296.4,394.9c0,3.9,3.1,7,7,7h19.8c3.9,0,7-3.1,7-7v-10.5h10.5v37.2h-4.6c-3.9,0-7,3.1-7,7v19.8
	c0,3.9,3.1,7,7,7h50.9c3.9,0,7-3.1,7-7v-19.8c0-3.9-3.1-7-7-7h-4.6v-37.2H393v10.5c0,3.9,3.1,7,7,7h19.8c3.9,0,7-3.1,7-7v-45.3
	c0-3.9-3.1-7-7-7H303.4c-3.9,0-7,3.1-7,7v27.8c0,0.1,0,0.1,0,0.2V394.9z M310.4,356.5h102.4v31.3h-5.9v-10.5c0-3.9-3.1-7-7-7h-24.4
	c-3.9,0-7,3.1-7,7v51.1c0,3.9,3.1,7,7,7h4.6v5.9h-37v-5.9h4.6c3.9,0,7-3.1,7-7v-51.1c0-3.9-3.1-7-7-7h-24.4c-3.9,0-7,3.1-7,7v10.5
	h-5.9v-10.5c0-0.1,0-0.1,0-0.2V356.5z"/>
</svg>
