<?xml version="1.0" encoding="utf-8"?>
<!-- Generator: Adobe Illustrator 23.0.2, SVG Export Plug-In . SVG Version: 6.00 Build 0)  -->
<svg version="1.1" id="Capa_1" xmlns="http://www.w3.org/2000/svg" xmlns:xlink="http://www.w3.org/1999/xlink" x="0px" y="0px"
	 viewBox="0 0 512 512" style="enable-background:new 0 0 512 512;" xml:space="preserve">
<style type="text/css">
	.st0{fill:#FFFFFF;}
	.st1{fill:url(#SVGID_1_);}
	.st2{fill:url(#SVGID_2_);}
	.st3{fill:url(#SVGID_3_);}
	.st4{fill:url(#SVGID_4_);}
	.st5{fill:url(#SVGID_5_);}
</style>
<polygon class="st0" points="352.5,0 352.5,0 352.5,0 "/>
<path class="st0" d="M218.5,61.9C175,82.1,127.7,92.6,79.8,92.7c-18.1,0-32.7,14.7-32.7,32.7v52.9c0,18.1,14.7,32.7,32.7,32.7
	c1,0,2,0,3,0v66.6c-62.6,23.2-94.5,92.8-71.3,155.4s92.8,94.5,155.4,71.3c62.6-23.2,94.5-92.8,71.3-155.4
	c-14.6-39.4-48.7-68.4-89.9-76.6v-54c24.2,5.2,47.7,13,70.1,23.5l131.4,61.3c3.1,1.5,6.9,0.1,8.3-3c0.4-0.8,0.6-1.7,0.6-2.7v-86.9
	c29.5-3.8,51.6-29,51.6-58.7c0-29.7-22.1-54.9-51.6-58.7V6.3c0-3.5-2.8-6.3-6.3-6.3h0c-0.9,0-1.8,0.2-2.6,0.6L218.5,61.9z
	 M79.8,198.5c-11.1,0-20.2-9-20.2-20.2v-52.9c0-11.1,9-20.2,20.2-20.2c9.8,0,19.6-0.4,29.5-1.3v95.9C99.5,199,89.7,198.5,79.8,198.5
	z M135.8,215.9l0,54.7c-3.6-0.3-7.2-0.5-10.9-0.5c-9.9,0-19.8,1.2-29.5,3.6v-62.3C108.9,212.1,122.4,213.6,135.8,215.9z
	 M233.2,391.1c0,59.9-48.5,108.4-108.4,108.4c-59.9,0-108.4-48.5-108.4-108.4c0-59.9,48.5-108.4,108.4-108.4h0
	C184.7,282.8,233.2,331.2,233.2,391.1z M346.2,287.6l-122.4-57.1c-32.3-15-66.6-24.9-101.9-29.3v-98.6
	c35.3-4.4,69.7-14.3,101.9-29.3l122.4-57.1V287.6z M358.8,197.9v-92.1c25.4,4.2,42.6,28.2,38.4,53.6
	C394,179.2,378.5,194.7,358.8,197.9L358.8,197.9L358.8,197.9z"/>
<linearGradient id="SVGID_1_" gradientUnits="userSpaceOnUse" x1="0" y1="256.0001" x2="512" y2="256.0001">
	<stop  offset="0" style="stop-color:#1FC9FD"/>
	<stop  offset="1" style="stop-color:#FB0061"/>
</linearGradient>
<path class="st1" d="M218.5,61.9C175,82.1,127.7,92.6,79.8,92.7c-18.1,0-32.7,14.7-32.7,32.7v52.9c0,18.1,14.7,32.7,32.7,32.7
	c1,0,2,0,3,0v66.6c-62.6,23.2-94.5,92.8-71.3,155.4s92.8,94.5,155.4,71.3c62.6-23.2,94.5-92.8,71.3-155.4
	c-14.6-39.4-48.7-68.4-89.9-76.6v-54c24.2,5.2,47.7,13,70.1,23.5l131.4,61.3c3.1,1.5,6.9,0.1,8.3-3c0.4-0.8,0.6-1.7,0.6-2.7v-86.9
	c29.5-3.8,51.6-29,51.6-58.7c0-29.7-22.1-54.9-51.6-58.7V6.3c0-3.5-2.8-6.3-6.3-6.3h0c-0.9,0-1.8,0.2-2.6,0.6L218.5,61.9z
	 M79.8,198.5c-11.1,0-20.2-9-20.2-20.2v-52.9c0-11.1,9-20.2,20.2-20.2c9.8,0,19.6-0.4,29.5-1.3v95.9C99.5,199,89.7,198.5,79.8,198.5
	z M135.8,215.9l0,54.7c-3.6-0.3-7.2-0.5-10.9-0.5c-9.9,0-19.8,1.2-29.5,3.6v-62.3C108.9,212.1,122.4,213.6,135.8,215.9z
	 M233.2,391.1c0,59.9-48.5,108.4-108.4,108.4c-59.9,0-108.4-48.5-108.4-108.4c0-59.9,48.5-108.4,108.4-108.4h0
	C184.7,282.8,233.2,331.2,233.2,391.1z M346.2,287.6l-122.4-57.1c-32.3-15-66.6-24.9-101.9-29.3v-98.6
	c35.3-4.4,69.7-14.3,101.9-29.3l122.4-57.1V287.6z M358.8,197.9v-92.1c25.4,4.2,42.6,28.2,38.4,53.6
	C394,179.2,378.5,194.7,358.8,197.9L358.8,197.9L358.8,197.9z"/>
<path class="st0" d="M464.3,164.4L464.3,164.4c0-35.4-21.1-67.3-53.6-81.1c-3.2-1.4-6.9,0.1-8.2,3.3s0.1,6.9,3.3,8.2
	c38.4,16.4,56.3,60.7,39.9,99.2c-7.7,18-22,32.3-39.9,39.9c-3.2,1.3-4.8,5-3.5,8.2c1.3,3.2,5,4.8,8.2,3.5c0.1,0,0.1-0.1,0.2-0.1
	C443.2,231.7,464.3,199.8,464.3,164.4z"/>
<linearGradient id="SVGID_2_" gradientUnits="userSpaceOnUse" x1="0" y1="164.462" x2="512" y2="164.462">
	<stop  offset="0" style="stop-color:#1FC9FD"/>
	<stop  offset="1" style="stop-color:#FB0061"/>
</linearGradient>
<path class="st2" d="M464.3,164.4L464.3,164.4c0-35.4-21.1-67.3-53.6-81.1c-3.2-1.4-6.9,0.1-8.2,3.3s0.1,6.9,3.3,8.2
	c38.4,16.4,56.3,60.7,39.9,99.2c-7.7,18-22,32.3-39.9,39.9c-3.2,1.3-4.8,5-3.5,8.2c1.3,3.2,5,4.8,8.2,3.5c0.1,0,0.1-0.1,0.2-0.1
	C443.2,231.7,464.3,199.8,464.3,164.4z"/>
<path class="st0" d="M428.3,43.9L428.3,43.9c-3.2-1.4-6.9,0.1-8.2,3.3s0.1,6.9,3.3,8.2c60.2,25.6,88.2,95.2,62.6,155.4
	c-12,28.2-34.4,50.6-62.6,62.6c-3.2,1.3-4.7,5-3.4,8.2s5,4.7,8.2,3.4c0,0,0,0,0.1,0c66.6-28.3,97.6-105.3,69.2-171.9
	C484.3,82,459.5,57.1,428.3,43.9z"/>
<linearGradient id="SVGID_3_" gradientUnits="userSpaceOnUse" x1="0" y1="164.4486" x2="512" y2="164.4486">
	<stop  offset="0" style="stop-color:#1FC9FD"/>
	<stop  offset="1" style="stop-color:#FB0061"/>
</linearGradient>
<path class="st3" d="M428.3,43.9L428.3,43.9c-3.2-1.4-6.9,0.1-8.2,3.3s0.1,6.9,3.3,8.2c60.2,25.6,88.2,95.2,62.6,155.4
	c-12,28.2-34.4,50.6-62.6,62.6c-3.2,1.3-4.7,5-3.4,8.2s5,4.7,8.2,3.4c0,0,0,0,0.1,0c66.6-28.3,97.6-105.3,69.2-171.9
	C484.3,82,459.5,57.1,428.3,43.9z"/>
<path class="st0" d="M119.8,312.7L119.8,312.7L69.9,382c-0.1,0.2-0.2,0.3-0.3,0.5c-10.3,17.7-10.2,39.2,0.3,57.5
	c17.2,30.4,55.8,41,86.2,23.8c10-5.7,18.2-13.9,23.8-23.9c10.5-18.3,10.6-39.7,0.3-57.3c-0.1-0.2-0.2-0.3-0.3-0.5L130,312.7
	c-1.2-1.6-3.1-2.6-5.1-2.6C122.9,310,121,311,119.8,312.7z M169.5,389.3c8,13.8,7.8,30-0.5,44.5c-13.7,24.4-44.6,33-69,19.3
	c-8-4.5-14.7-11.2-19.2-19.2c-8.3-14.5-8.5-30.8-0.5-44.7l44.6-62L169.5,389.3z"/>
<linearGradient id="SVGID_4_" gradientUnits="userSpaceOnUse" x1="0" y1="391.0707" x2="512" y2="391.0707">
	<stop  offset="0" style="stop-color:#1FC9FD"/>
	<stop  offset="1" style="stop-color:#FB0061"/>
</linearGradient>
<path class="st4" d="M119.8,312.7L119.8,312.7L69.9,382c-0.1,0.2-0.2,0.3-0.3,0.5c-10.3,17.7-10.2,39.2,0.3,57.5
	c17.2,30.4,55.8,41,86.2,23.8c10-5.7,18.2-13.9,23.8-23.9c10.5-18.3,10.6-39.7,0.3-57.3c-0.1-0.2-0.2-0.3-0.3-0.5L130,312.7
	c-1.2-1.6-3.1-2.6-5.1-2.6C122.9,310,121,311,119.8,312.7z M169.5,389.3c8,13.8,7.8,30-0.5,44.5c-13.7,24.4-44.6,33-69,19.3
	c-8-4.5-14.7-11.2-19.2-19.2c-8.3-14.5-8.5-30.8-0.5-44.7l44.6-62L169.5,389.3z"/>
<path class="st0" d="M124.5,446.1c20.1,0,36.5-16.3,36.6-36.4c0-3.5-2.8-6.3-6.3-6.3s-6.3,2.8-6.3,6.3c-0.1,13.2-10.8,23.9-24,23.8
	c-3.5,0-6.3,2.8-6.3,6.3C118.2,443.3,121,446.1,124.5,446.1z"/>
<linearGradient id="SVGID_5_" gradientUnits="userSpaceOnUse" x1="0" y1="424.7833" x2="512" y2="424.7833">
	<stop  offset="0" style="stop-color:#1FC9FD"/>
	<stop  offset="1" style="stop-color:#FB0061"/>
</linearGradient>
<path class="st5" d="M124.5,446.1c20.1,0,36.5-16.3,36.6-36.4c0-3.5-2.8-6.3-6.3-6.3s-6.3,2.8-6.3,6.3c-0.1,13.2-10.8,23.9-24,23.8
	c-3.5,0-6.3,2.8-6.3,6.3C118.2,443.3,121,446.1,124.5,446.1z"/>
</svg>
