<?xml version="1.0" encoding="utf-8"?>
<!-- Generator: Adobe Illustrator 23.0.2, SVG Export Plug-In . SVG Version: 6.00 Build 0)  -->
<svg version="1.1" id="Capa_1" xmlns="http://www.w3.org/2000/svg" xmlns:xlink="http://www.w3.org/1999/xlink" x="0px" y="0px"
	 viewBox="0 0 512 512" style="enable-background:new 0 0 512 512;" xml:space="preserve">
<style type="text/css">
	.st0{fill:#FFFFFF;}
	.st1{fill:url(#SVGID_1_);}
	.st2{fill:url(#SVGID_2_);}
	.st3{fill:url(#SVGID_3_);}
	.st4{fill:url(#SVGID_4_);}
	.st5{fill:url(#SVGID_5_);}
	.st6{fill:url(#SVGID_6_);}
	.st7{fill:url(#SVGID_7_);}
	.st8{fill:url(#SVGID_8_);}
</style>
<path class="st0" d="M453.6,225.9L453.6,225.9l15.6-3.7c-1.4-5.9-3.4-11.8-5.8-17.3l-14.7,6.4C450.7,215.9,452.4,220.8,453.6,225.9z
	"/>
<linearGradient id="SVGID_1_" gradientUnits="userSpaceOnUse" x1="1.831400e-04" y1="215.336" x2="511.9998" y2="215.336">
	<stop  offset="0" style="stop-color:#1FC9FD"/>
	<stop  offset="1" style="stop-color:#FB0061"/>
</linearGradient>
<path class="st1" d="M453.6,225.9L453.6,225.9l15.6-3.7c-1.4-5.9-3.4-11.8-5.8-17.3l-14.7,6.4C450.7,215.9,452.4,220.8,453.6,225.9z
	"/>
<path class="st0" d="M456,246.3v1.7c0,43.1-30.8,79.6-73.3,86.8l2.7,15.8C435.5,342.1,472,299,472,248v-1.7c0-2.3-0.1-4.6-0.2-6.9
	l-16,1.1C455.9,242.5,456,244.4,456,246.3z"/>
<linearGradient id="SVGID_2_" gradientUnits="userSpaceOnUse" x1="1.831400e-04" y1="295.016" x2="511.9998" y2="295.016">
	<stop  offset="0" style="stop-color:#1FC9FD"/>
	<stop  offset="1" style="stop-color:#FB0061"/>
</linearGradient>
<path class="st2" d="M456,246.3v1.7c0,43.1-30.8,79.6-73.3,86.8l2.7,15.8C435.5,342.1,472,299,472,248v-1.7c0-2.3-0.1-4.6-0.2-6.9
	l-16,1.1C455.9,242.5,456,244.4,456,246.3z"/>
<path class="st0" d="M472.5,159.3l-46.8-56.1l26.1-45.6c2.8-4.8,4.2-10.3,4.2-15.9V40c0-17.6-14.4-32-32-32
	c-10.6,0-16.3,6.5-20,10.7c-3.5,4-4.9,5.3-8,5.3c-3.1,0-4.5-1.3-8-5.3C384.2,14.5,378.6,8,368,8c-10.6,0-16.3,6.5-20,10.7
	c-3.5,4-4.9,5.3-8,5.3c-3.1,0-4.5-1.3-8-5.3C328.3,14.5,322.6,8,312,8c-17.6,0-32,14.4-32,32v1.6c0,5.6,1.5,11,4.2,15.9l26.1,45.6
	L292.1,125c-11.5-3.2-23.6-5-36.1-5c-75,0-136,61-136,136c0,26.4,7.7,51,20.8,71.9L120,348.7l-7.5-7.5l-85.9,71.6
	C14.8,422.6,8,437.1,8,452.4C8,480.9,31.1,504,59.6,504c15.4,0,29.8-6.8,39.6-18.6l71.6-85.9l-7.5-7.5l20.8-20.8
	C205,384.3,229.6,392,256,392c23.5,0,45.7-6,65-16.6c15.1,5.6,30.9,8.6,47,8.6c75,0,136-61,136-136v-1.7
	C504,214.6,492.8,183.7,472.5,159.3L472.5,159.3z M298.1,49.6c-1.4-2.4-2.1-5.2-2.1-7.9V40c0-8.8,7.2-16,16-16c3.1,0,4.5,1.3,8,5.3
	c3.7,4.3,9.4,10.7,20,10.7c10.6,0,16.3-6.5,20-10.7c3.5-4,4.9-5.3,8-5.3c3.1,0,4.5,1.3,8,5.3c3.7,4.3,9.4,10.7,20,10.7
	c10.6,0,16.3-6.5,20-10.7c3.5-4,4.9-5.3,8-5.3c8.8,0,16,7.2,16,16v1.6c0,2.8-0.7,5.5-2.1,7.9L411.4,96h-86.7L298.1,49.6z
	 M86.9,475.2c-6.8,8.1-16.7,12.8-27.3,12.8C40,488,24,472,24,452.4c0-10.6,4.7-20.6,12.8-27.3l74.7-62.3l37.7,37.7L86.9,475.2z
	 M152,380.7L131.3,360l18.8-18.8c6.1,7.6,13.1,14.5,20.7,20.7L152,380.7z M256,376c-66.2,0-120-53.8-120-120s53.8-120,120-120
	s120,53.8,120,120S322.2,376,256,376z M488,248c0,66.2-53.8,120-120,120c-10.1,0-20.1-1.4-29.8-3.9c32.6-24.9,53.8-64,53.8-108.1
	c0-56.4-34.6-105-83.7-125.5l15.4-18.5h88.5l47.9,57.5c17.9,21.5,27.8,48.8,27.8,76.8L488,248z"/>
<linearGradient id="SVGID_3_" gradientUnits="userSpaceOnUse" x1="1.831400e-04" y1="256" x2="511.9998" y2="256">
	<stop  offset="0" style="stop-color:#1FC9FD"/>
	<stop  offset="1" style="stop-color:#FB0061"/>
</linearGradient>
<path class="st3" d="M472.5,159.3l-46.8-56.1l26.1-45.6c2.8-4.8,4.2-10.3,4.2-15.9V40c0-17.6-14.4-32-32-32
	c-10.6,0-16.3,6.5-20,10.7c-3.5,4-4.9,5.3-8,5.3c-3.1,0-4.5-1.3-8-5.3C384.2,14.5,378.6,8,368,8c-10.6,0-16.3,6.5-20,10.7
	c-3.5,4-4.9,5.3-8,5.3c-3.1,0-4.5-1.3-8-5.3C328.3,14.5,322.6,8,312,8c-17.6,0-32,14.4-32,32v1.6c0,5.6,1.5,11,4.2,15.9l26.1,45.6
	L292.1,125c-11.5-3.2-23.6-5-36.1-5c-75,0-136,61-136,136c0,26.4,7.7,51,20.8,71.9L120,348.7l-7.5-7.5l-85.9,71.6
	C14.8,422.6,8,437.1,8,452.4C8,480.9,31.1,504,59.6,504c15.4,0,29.8-6.8,39.6-18.6l71.6-85.9l-7.5-7.5l20.8-20.8
	C205,384.3,229.6,392,256,392c23.5,0,45.7-6,65-16.6c15.1,5.6,30.9,8.6,47,8.6c75,0,136-61,136-136v-1.7
	C504,214.6,492.8,183.7,472.5,159.3L472.5,159.3z M298.1,49.6c-1.4-2.4-2.1-5.2-2.1-7.9V40c0-8.8,7.2-16,16-16c3.1,0,4.5,1.3,8,5.3
	c3.7,4.3,9.4,10.7,20,10.7c10.6,0,16.3-6.5,20-10.7c3.5-4,4.9-5.3,8-5.3c3.1,0,4.5,1.3,8,5.3c3.7,4.3,9.4,10.7,20,10.7
	c10.6,0,16.3-6.5,20-10.7c3.5-4,4.9-5.3,8-5.3c8.8,0,16,7.2,16,16v1.6c0,2.8-0.7,5.5-2.1,7.9L411.4,96h-86.7L298.1,49.6z
	 M86.9,475.2c-6.8,8.1-16.7,12.8-27.3,12.8C40,488,24,472,24,452.4c0-10.6,4.7-20.6,12.8-27.3l74.7-62.3l37.7,37.7L86.9,475.2z
	 M152,380.7L131.3,360l18.8-18.8c6.1,7.6,13.1,14.5,20.7,20.7L152,380.7z M256,376c-66.2,0-120-53.8-120-120s53.8-120,120-120
	s120,53.8,120,120S322.2,376,256,376z M488,248c0,66.2-53.8,120-120,120c-10.1,0-20.1-1.4-29.8-3.9c32.6-24.9,53.8-64,53.8-108.1
	c0-56.4-34.6-105-83.7-125.5l15.4-18.5h88.5l47.9,57.5c17.9,21.5,27.8,48.8,27.8,76.8L488,248z"/>
<path class="st0" d="M256,152c-57.3,0-104,46.7-104,104s46.7,104,104,104s104-46.7,104-104S313.3,152,256,152z M256,344
	c-48.5,0-88-39.5-88-88c0-48.5,39.5-88,88-88s88,39.5,88,88S304.5,344,256,344z"/>
<linearGradient id="SVGID_4_" gradientUnits="userSpaceOnUse" x1="1.831400e-04" y1="256" x2="511.9998" y2="256">
	<stop  offset="0" style="stop-color:#1FC9FD"/>
	<stop  offset="1" style="stop-color:#FB0061"/>
</linearGradient>
<path class="st4" d="M256,152c-57.3,0-104,46.7-104,104s46.7,104,104,104s104-46.7,104-104S313.3,152,256,152z M256,344
	c-48.5,0-88-39.5-88-88c0-48.5,39.5-88,88-88s88,39.5,88,88S304.5,344,256,344z"/>
<path class="st0" d="M256,216c8.8,0,16,7.2,16,16h16c0-14.9-10.2-27.3-24-30.9V184h-16v16h-24v32c0,17.6,14.4,32,32,32
	c8.8,0,16,7.2,16,16v16h-16c-8.8,0-16-7.2-16-16h-16c0,14.9,10.2,27.3,24,30.9V328h16v-16h24v-32c0-17.6-14.4-32-32-32
	c-8.8,0-16-7.2-16-16v-16H256z"/>
<linearGradient id="SVGID_5_" gradientUnits="userSpaceOnUse" x1="1.831400e-04" y1="256" x2="512.0002" y2="256">
	<stop  offset="0" style="stop-color:#1FC9FD"/>
	<stop  offset="1" style="stop-color:#FB0061"/>
</linearGradient>
<path class="st5" d="M256,216c8.8,0,16,7.2,16,16h16c0-14.9-10.2-27.3-24-30.9V184h-16v16h-24v32c0,17.6,14.4,32,32,32
	c8.8,0,16,7.2,16,16v16h-16c-8.8,0-16-7.2-16-16h-16c0,14.9,10.2,27.3,24,30.9V328h16v-16h24v-32c0-17.6-14.4-32-32-32
	c-8.8,0-16-7.2-16-16v-16H256z"/>
<rect x="312" y="248" class="st0" width="16" height="16"/>
<linearGradient id="SVGID_6_" gradientUnits="userSpaceOnUse" x1="1.831400e-04" y1="256" x2="512.0002" y2="256">
	<stop  offset="0" style="stop-color:#1FC9FD"/>
	<stop  offset="1" style="stop-color:#FB0061"/>
</linearGradient>
<rect x="312" y="248" class="st6" width="16" height="16"/>
<rect x="184" y="248" class="st0" width="16" height="16"/>
<linearGradient id="SVGID_7_" gradientUnits="userSpaceOnUse" x1="1.831400e-04" y1="256" x2="512.0002" y2="256">
	<stop  offset="0" style="stop-color:#1FC9FD"/>
	<stop  offset="1" style="stop-color:#FB0061"/>
</linearGradient>
<rect x="184" y="248" class="st7" width="16" height="16"/>
<circle class="st0" cx="48" cy="464" r="8"/>
<linearGradient id="SVGID_8_" gradientUnits="userSpaceOnUse" x1="1.831400e-04" y1="464" x2="512.0002" y2="464">
	<stop  offset="0" style="stop-color:#1FC9FD"/>
	<stop  offset="1" style="stop-color:#FB0061"/>
</linearGradient>
<circle class="st8" cx="48" cy="464" r="8"/>
</svg>
